<svg width="78" height="89" fill="none" xmlns="http://www.w3.org/2000/svg"><path d="M77 38.651c-7.717-.069-14.666-2.45-20.847-7.092-.256.207-.136.466-.136.673.085 9.8.12 19.619.256 29.42.188 12.924-9.425 24.277-22.127 26.055-.512.069-1.076-.035-1.537.31h-4.95c-.137-.276-.393-.172-.598-.207-4.9-.656-9.305-2.467-13.164-5.625-1.092-.88-2.236-1.743-2.97-2.985.222-.052.358.138.529.242 6.317 4.227 13.214 5.487 20.607 3.9 11.234-2.416 19.856-12.804 20.01-24.4.136-10.145.017-20.291 0-30.454V27.47c.341.241.546.397.751.535 5.822 4.244 12.327 6.418 19.48 6.677.65.018.803-.155.803-.793-.034-3.055 0-6.091 0-9.146 1.298.173 2.595.432 3.91.277C77 29.558 77 34.113 77 38.65z" fill="#FD013D"/><path d="M52.073 0c-.085 1.329.205 2.64.324 3.951-2.936 0-5.856.052-8.792 0-.803-.017-.956.225-.956.984.017 18.79 0 37.581 0 56.389 0 .88-.035 1.794-.171 2.657-1.468 9.249-12.566 13.614-19.873 7.8-.973-.777-1.93-1.588-2.493-2.761.376-.087.632.19.94.328 7.033 3.123 15.075-.725 17.09-8.162.324-1.225.426-2.485.426-3.744V.017C43.076 0 47.583 0 52.073 0z" fill="#01FDF9"/><path d="M0 56.941c.375-1 .307-2.053.478-3.089 1.775-10.94 10.551-19.74 21.358-21.43 2.527-.397 5.037-.431 7.564-.173.512.052.683.207.666.725-.052 1-.034 2.002-.052 3.02-1.963.069-3.91.293-5.822.724C9.612 39.945.734 55.854 5.532 70.141c.921 2.744 2.321 5.228 3.96 7.575-.324.242-.46-.12-.614-.259-4.49-4.072-7.342-9.076-8.383-15.115-.188-1.035-.103-2.14-.495-3.158v-2.243z" fill="#02FDF9"/><path d="M10.705 78.993c-.256-.259-.53-.5-.786-.742.017-.052-.017-.104-.068-.12l-.051-.052c-.034-.052-.086-.104-.12-.156l-.034-.034c-.034-.087-.085-.156-.205-.121l.051-.052c-1.639-2.364-3.039-4.831-3.96-7.575-4.798-14.287 4.08-30.196 18.643-33.423a31.603 31.603 0 015.822-.724c.017.034.052.051.069.086v10.111c-1.861-.466-3.603-.759-5.43-.5-4.866.707-8.331 3.313-10.107 7.92-1.775 4.642-.854 8.92 2.356 12.682.717.829 1.468 1.674 2.561 2.054v-.017c-.034.138.051.155.154.172.12.12.239.224.358.345.017.104.035.207.188.173h-.017c.563 1.156 1.52 1.984 2.493 2.76 7.29 5.798 18.388 1.45 19.873-7.799.137-.88.17-1.777.17-2.657.018-18.79.018-37.581 0-56.39 0-.758.154-1 .957-.983 2.92.052 5.856 0 8.792 0a.355.355 0 00.103.07c.666 3.692 2.288 6.919 4.73 9.731.75.863 1.433 1.812 2.526 2.312-.068.173.051.19.17.19v-.017c-.016.12.052.173.154.19l.666.673c.034.103.069.207.222.19h-.017c.837 1.345 2.032 2.363 3.244 3.33 2.63 2.07 5.549 3.52 8.861 4.055.017.034.034.051.051.086 0 3.054-.034 6.09 0 9.145 0 .638-.153.81-.802.794-7.154-.26-13.659-2.433-19.48-6.678-.206-.155-.41-.293-.752-.535v1.018c0 10.146.137 20.31 0 30.455-.154 11.595-8.776 21.983-20.01 24.399-7.392 1.587-14.273.327-20.607-3.9-.154-.104-.29-.276-.53-.242v.018c-.016-.19-.119-.225-.238-.242z" fill="#fff"/><path d="M19.463 68.347c-1.093-.38-1.844-1.225-2.561-2.054-3.21-3.744-4.132-8.04-2.356-12.682 1.775-4.607 5.241-7.213 10.107-7.92 1.81-.259 3.568.034 5.43.5V36.08c1.195-.104 2.39.052 3.568.172.341.035.512.121.512.518-.017 4.452 0 8.904 0 13.424-1.707-.465-3.38-.672-5.088-.534-8.622.724-13.846 10.11-9.936 17.91.119.242.324.466.324.777z" fill="#FD013D"/><path d="M19.6 68.502c-.103-.017-.188-.034-.154-.172.12 0 .17.069.153.172z" fill="#FD013D"/><path d="M20.146 69.037c-.136.034-.17-.07-.187-.173.102 0 .222 0 .188.173z" fill="#01FDF9"/><path d="M73.04 24.657c-3.313-.552-6.233-1.984-8.862-4.055-1.212-.966-2.407-1.984-3.244-3.33.188-.052.325.086.461.173 3.364 2.26 7.069 3.433 11.098 3.572.478.017.632.155.615.638-.069 1-.052 2.002-.069 3.002z" fill="#02FDF9"/><path d="M59.756 16.064c-1.093-.5-1.776-1.45-2.527-2.312-2.441-2.812-4.063-6.04-4.73-9.732l3.142-.051c.29 0 .478.051.495.414.052 4.244 1.417 8.058 3.637 11.595 0 .017-.017.052-.017.086z" fill="#FD013D"/><path d="M59.91 16.237c-.12 0-.24-.017-.171-.19.17-.017.187.07.17.19zm.153.19c-.102-.018-.187-.07-.153-.19.12 0 .17.069.153.19z" fill="#FD013D"/><path d="M60.951 17.272c-.154.018-.188-.086-.222-.19.12.018.205.052.222.19zM9.424 77.768c.12-.052.17.017.205.12-.154.104-.222.07-.205-.12zm.239.155c.034.052.086.104.12.155-.051-.017-.12-.017-.17-.034.016-.052.033-.086.05-.12zm.171.19c.05.017.085.052.068.12-.017 0-.051.018-.068.018-.017 0-.034-.035-.034-.07 0-.016.034-.034.034-.068z" fill="#02FDF9"/><path d="M10.705 78.993c.12.017.239.069.239.224-.17.017-.222-.103-.24-.224z" fill="#FD013D"/></svg>