<svg width="88" height="62" fill="none" xmlns="http://www.w3.org/2000/svg"><path d="M84.57 5.322C81.394 1.542 75.529 0 64.328 0H23.671C12.214 0 6.25 1.64 3.085 5.666 0 9.59 0 15.372 0 23.374v15.252C0 54.129 3.66 62 23.67 62h40.66c9.713 0 15.095-1.36 18.577-4.697C86.476 53.882 88 48.296 88 38.626V23.374c0-8.44-.239-14.255-3.43-18.052zM56.496 33.106l-18.462 9.66a2.834 2.834 0 01-2.786-.088 2.843 2.843 0 01-1.368-2.431V20.989c0-.992.517-1.913 1.365-2.429a2.836 2.836 0 012.782-.093l18.463 9.598a2.842 2.842 0 01.006 5.04z" fill="red"/></svg>