<svg width="431" height="321" fill="none" xmlns="http://www.w3.org/2000/svg"><g filter="url(#filter0_d_97_1427)"><path d="M398.684 147.866c.491-.438 1.022-.866 1.784-1.538-.324 3.645-.558 7.099-.964 10.553-2.475 20.718-4.86 41.415-7.466 62.144-2.265 18.072-4.782 36.126-7.218 54.199-.389 3.031-.859 6.042-1.329 9.053-.028.293-.137.567-.114.829.075 3.057-1.027 4.075-4.062 3.171-6.605-1.894-13.121-3.98-19.697-5.995l-82.186-24.973c-13.799-4.187-27.588-8.414-41.387-12.601-1.002-.284-1.933-.68-3.036-1.075-3.876 7.368-10.637 8.604-17.937 8.169-8.067-.449-15.495-3.012-22.053-7.763-3.756-2.704-6.468-6.183-7.666-10.796-.156-.594-.991-1.394-1.576-1.45-8.879-.987-17.347-3.673-25.806-6.4-14.539-4.665-29.422-8.086-44.44-10.769-24.326-4.373-48.809-7.03-73.467-8.787-2.605-.2-5.17-.392-7.765-.633-1.131-.102-1.831-1.811-1.5-3.187 3.51-15.246 10.53-29.26 15.546-44.014 5.085-15.037 10.565-29.937 15.65-44.974 4.71-13.844 9.138-27.755 13.616-41.698.502-1.548 1.208-1.635 2.572-1.434 1.98.307 4 .452 5.96.668 1.12.142 1.702-.316 2.178-1.4 2.32-5.176 5.778-9.22 11.486-10.882.453-.104.843-.652 1.071-1.068.388-.72.552-1.579.9-2.308.605-1.266 1.012-3.308 1.989-3.629 2.143-.724 4.546-.572 6.865-.782.222-.032.415.057.91.133.7-2.014 1.379-4.118 2.21-6.143.307-.74.886-1.541 1.569-1.89 3.176-1.63 6.484-1.86 10.086-.647 1.344-3.614 2.869-7.098 3.95-10.689.57-1.831 1.527-2.071 3.1-2.205 10.983-.816 21.521.743 31.975 3.01 16.225 3.53 31.451 9.431 44.933 19.362C223 60.905 234.893 75.29 241 93.97c.093.322.277.623.472 1.055 8.345-6.375 17.634-10.638 27.304-14.168 21.25-7.712 43.028-10.16 65.437-6.89 13.357 1.939 26.074 5.822 38.33 11.434 1.114.525 1.098.95.925 2.02-1.061 5.993-1.961 12.025-2.932 17.997l6.553 1.582c.485.117.92.265 1.396.422 4.472 1.508 4.595 1.709 4.199 6.364-.1 1.303-.15 2.575-.231 3.796l6.188 1.494c-.208 1.748-.419 3.152-.548 4.576-.027.464.058.999.314 1.36 1.04 1.364 2.463 2.563 3.212 4.071.574 1.166.325 2.732.46 4.477.152.079.76.397 1.399.765-.087.536-.154.99-.261 1.435-.292 1.385-.584 2.599.255 4.085.604 1.045.214 2.663.307 4.226.94.184 1.94.297 2.941.582.871.295 1.702.753 2.735 1.259-.541.469-.912.764-1.232 1.029-.821-.326-1.278-1.977-2.539-.655-.579-.439-1.188-.929-1.767-1.368l-.724.339c.194 1.502.348 2.994.542 4.496-2.045.491-.25 1.566-.364 2.395-.127.526-.596 1.226-.371 1.537.931 1.637 2.054 3.192 3.086 4.768-.351.215-.703.43-1.014.654-.568-1.549-1.166-3.149-1.734-4.699-.382.165-.764.33-1.105.504.179 1.028.4 2.065.58 3.093l-.769-.185c.066.615.091 1.22.166 1.795-.072 1.01-.175 1.969-.248 2.979-.092 1.09-.134 2.15-.226 3.241-.085.707-.21 1.404-.295 2.112-1.044 2.016-1.38 4.118-.625 6.312l-.611 3.063c-.113.999-.176 1.969-.289 2.969-.139 1.464-.228 2.898-.368 4.362-1.255.767-.733 1.621-.171 2.484-1.629.72-.682 1.762-.311 2.707-1.65.629-.642 1.771-.533 2.739.007.858-.036 1.747-.029 2.604-.207.678-.382 1.406-.589 2.084-.05 1.272-.141 2.534-.191 3.806l-.357 2.011c-.064.798-.138 1.636-.202 2.434-1.894 1.64.252 2.5.727 3.728-.487-.289-.933-.568-1.938-1.196.295 1.441.494 2.388.663 3.285-1.474 1.142-.858 2.489-.453 3.828-1.014.654-1.024.695-.202 2.434-1.176.615-1.233 1.029-.279 2.929-2.005.5-.42 1.739-.504 2.618-1.011.997-1.018 1.38-.307 3.221-1.436.809-.711 1.883-.319 2.919-1.254.939-1.053 2.057-.448 3.274a32.116 32.116 0 01-.145 2.019c-1.213.948-1.249 2.695-.106 4.34-2.069-.114-.959 1.138-.861 1.975-.074.838-.179 1.626-.253 2.465-.103.959-.216 1.959-.279 2.928-.103.96-.175 1.97-.279 2.929-.164.859-.369 1.709-.534 2.568-.064.797-.169 1.585-.233 2.383-.044.717-.039 1.403-.083 2.12-1.447.849-.731 1.964-.389 3.031-1.997 1.358.269 2.076.489 3.114-.415-.229-.8-.407-1.601-.814.172 1.239.3 2.126.428 3.013-.103.96-.569 2.003-.249 2.808.443 1.177 1.4 2.178 2.125 3.252-.905-.86-1.76-1.751-2.736-2.672l-.537 2.225c-.424-.017-.817.016-1.241 0 .012.302-.035.676.118.927a773.51 773.51 0 004.921 6.923c.241-.113.442-.236.683-.349-.442-1.005-.874-2.051-1.357-3.066.406.269.802.578 1.208.848.191-.083.392-.206.583-.288-.3-.885-.559-1.761-.859-2.647-.268-.664-.576-1.337-.854-1.961.499.592 1.049 1.152 1.589 1.753 1.417-1.969-.71-2.91-1.014-4.311.486.289 1.004.628 1.41.897 1.439-1.707-.136-2.986-.642-4.435l1.218.808.481-.398c-.288-.583-.525-1.196-.912-1.718-.705-.983-1.519-1.865-2.233-2.808.986.881 1.982 1.72 2.927 2.59.151-.092.261-.194.402-.245-.483-1.015-.915-2.061-1.398-3.077l1.251 1.201c.141-.052.242-.113.392-.205-.226-.483-.411-.955-.637-1.438 2.28-1.29.273-2.374-.211-3.56.435.147.82.326 1.762.682-.525-1.197-.864-1.921-1.162-2.635.382-.165 1.127-.413 1.106-.503-.23-.998-.561-1.933-.882-2.91.355.129.759.226 1.508.493-.321-.977-.579-1.681-.806-2.335.31-.396.881-.815.939-1.229.026-.464-.422-.915-.688-1.407.363-.084 1.038-.22 1.007-.271-.098-.836-.286-1.652-.424-2.499 2.315-.725.185-2.01.379-2.99 1.375.332.986-.361.597-1.054l-2.364-4.038c.866 1.022 1.742 2.004 2.568 3.017.181-.042.362-.084.534-.085-.141-1.19-.332-2.349-.473-3.539.166-.687.544-1.366.448-2.032-.116-.584-.675-1.104-1.053-1.666.486.288.983.537 1.51.835.191-.082.382-.164.533-.257-.382-1.076-.805-2.163-1.187-3.239.335.209.669.418 1.522.966-.254-1.431-.383-2.318-.542-3.255.126-.697.483-1.467.336-2.102-.207-.735-.818-1.396-1.258-2.058.579.439 1.168.838 1.747 1.277.145-.778-.002-1.413-.339-1.965-.625-1.135-1.401-2.178-2.076-3.283.926.951 1.862 1.862 2.829 2.823l.573-.247c-.464-1.268-.888-2.526-1.353-3.793.375.219.75.437 1.075.687.201-.123.392-.205.593-.328-.29-.926-.47-1.954-.911-2.788-.85-1.617-1.852-3.143-2.803-4.7 1.193 1.444 2.416 2.938 3.608 4.381.186-.768-.001-1.413-.329-2.005-.389-.694-.869-1.366-1.308-2.028.671.59 1.341 1.18 2.022 1.729.211-.163.411-.286.622-.449-.99-1.395-2.011-2.84-3.001-4.234.845.931 1.721 1.913 2.566 2.845l.422-.155c-.29-.926-.57-1.892-.86-2.819.342-.174 1.046-.432 1.025-.523-.414-1.298-.919-2.576-1.384-3.843.489.46 1.007.97 1.496 1.431.2-.123.361-.256.562-.378-.339-.724-.618-1.519-1.048-2.222-1.135-1.858-2.33-3.644-3.516-5.471 1.448 1.804 2.936 3.619 4.384 5.424.191-.083.332-.134.523-.217-.24-.956-.521-1.923-.751-2.92.342-.174.956-.411.935-.502-.189-.816-.477-1.571-.726-2.315 1.636.138 1.225-.818.875-1.672-.247-.574-.644-1.055-.951-1.557.406.269.771.529 1.512 1.007-.161-1.109-.257-1.774-.384-2.489 1-1.129.88-3.469-.304-5.124.435.147.83.285 1.781.601-.504-1.106-.771-1.77-1.08-2.444 2.116-.431.995-1.814.825-2.883 1.207-1.634 1.264-4.531.11-6.308 2.001.398 1.233-1.029 1.075-1.795-.137-.675-.677-1.276-1.045-1.878.356.3.742.65 1.484 1.3-.129-1.059-.215-1.593-.3-2.127 1.434-1.152.226-2-.266-2.975 2.512-.121.583-1.529.697-2.357 1.281-1.403 1.437-4.533.322-6.3 1.806-.035 1.03-1.249.832-2.025-.178-.685-.677-1.276-1.045-1.879.396.31.792.62 1.178.97l.452-.276c-.361-.986-.672-2.003-1.033-2.989.314.118.668.247 1.538.542-.524-1.196-.894-1.97-1.223-2.735l1.052.254c-.42-.743-.486-1.358-.592-1.983zm-325.54-58.03c.497.249 1.043.467 1.773.814-.106-.625-.18-1.028-.204-1.462 1.45-.335.758-1.187.52-1.972 1.854-.237.726-1.237.518-1.972.21-.335.66-.782.608-.923-.41-.784-1.001-1.526-1.512-2.248.67.59 1.392 1.149 2.063 1.739.134-.91.036-1.746-.442-2.247-.642-.711-1.554-1.188-2.356-1.767.279.795.517 1.58.797 2.375-.416-.229-.862-.508-1.501-.876.015.646.058.999.051 1.382a34.648 34.648 0 01-.528 2.013c-1.206.565-1.2 1.422-.586 2.427-1.855.237-.566 1.104-.37 1.708-.292-.028-.595-.015-.888-.043.247.573.453 1.136.7 1.71-.424-.017-.838-.074-1.262-.091.257.533.544 1.116.8 1.648-.404-.097-.858-.164-1.263-.262.116.585.282 1.138.398 1.723-2.072-.286-1.285.888-.964 1.864-.248.497-.547 1.024-.795 1.52-1.427.77-.701 1.843-.38 2.82-.324-.079-.617-.107-.94-.185.075.575.18 1.2.256 1.774-1.607-.259-1.034.735-.835 1.511-2.021.924-.204 2.262-.346 3.383-1.589-.512-1.674.195-1.2 1.423-1.633.205-.344 1.072-.39 1.617-1.665-.016-.87.946-.612 1.65-.34.518-.89 1.027-.936 1.572-.027.465.583.954.9 1.416-.447-.279-.853-.548-1.309-.787-.19.082-.372.124-.563.207.25 1.087.512 2.135.763 3.223-.94-.184-2.074-.629-1.253 1.11-.237.627-.505 1.205-.742 1.832-1.125.585-1.28 1.403-.545 2.437-1.905.268-.816 1.429-.728 2.307-.243-.059-.535-.087-.778-.145-.154.99-.347 1.97-.5 2.961-1.902.782-.41 1.698-.111 2.584l-1.416-.342c.278.624.402.996.567 1.378-1.696-.067-1.183.999-.964 1.865-.73.722-.73.722.294 2.682-.486-.289-.923-.608-1.856-1.176.18 1.028.305 1.572.39 2.106-1.734.095-.456 1.003-.43 1.608-1.643.246-1.343 1.131-.68 2.105-1.221-.081-1.291.03-.634 1.387-1.675.024-.92 1.148-.852 1.935-.455 1.174-.87 2.358-1.324 3.532-2.263.867-.156 1.889-.078 2.807l-1.254-.303c.025.605.081 1.261.106 1.866-.302.013-.595-.015-.938-.013.155.423.159.938.433 1.218 1.261 1.16 2.542 2.24 3.853 3.369.15-.092.291-.143.442-.235-.186-.473-.28-.967-.526-1.368-.409-.613-.928-1.123-1.396-1.664.75.438 1.46.866 2.372 1.343l.371-1.537c.831-.784.766-1.399-.118-2.169-.956-.83-1.741-1.832-2.586-2.764 1.167.838 2.365 1.727 3.533 2.565.12-.143.19-.254.31-.396-.54-.601-1.12-1.212-1.65-1.854.06-.071.129-.183.189-.254.558.349 1.146.748 1.704 1.096.191-.082.352-.214.543-.297-.257-.532-.403-1.167-.76-1.638-.786-1.003-1.731-1.873-2.576-2.805 1.207.848 2.375 1.686 3.583 2.534l.401-.245c-.206-.564-.443-1.177-.65-1.741 1.042.294 1.332-.021.599-.883-.755-.952-1.529-1.824-2.303-2.696 1.015.759 1.98 1.548 2.996 2.307.15-.092.332-.134.482-.226-.32-.805-.608-1.559-.927-2.364.464.027.919.094 1.424.13-.195-.432-.34-.895-.636-1.266-.765-.913-1.579-1.794-2.353-2.666 1.127.829 2.294 1.667 3.411 2.536.1-.061.21-.163.27-.234-.173-.342-.378-.734-.553-1.076 1.27-.293 1.289-.373.448-2.032 2.283.294.91-1.107.892-1.924.21-.335.67-.823.588-1.014-.278-.624-.787-1.175-1.215-1.706.639.368 1.237.727 2.21 1.304a89.874 89.874 0 00-.272-2.42c2.548-.626-.506-1.449.053-2.17.426.188.82.326 1.205.505.11-.102.22-.204.34-.346-.51-.722-1.07-1.414-1.58-2.136l1.924.892c-.056-.655-.15-1.149-.205-1.633 1.146-.494 1.383-1.121.417-2.082-.52-.511-.968-1.133-1.437-1.674.75.438 1.45.907 2.2 1.345.151-.093.343-.175.493-.267-.247-.573-.403-1.167-.75-1.679-.572-.823-1.194-1.615-1.816-2.407.925.779 1.86 1.519 3.068 2.538-.85-1.618-1.496-2.844-2.142-4.07.325.25.64.54.994.668.588.228 1.244.344 1.892.5-.127-.716-.154-1.493-.482-2.085-.45-.794-1.152-1.434-1.743-2.176a99.96 99.96 0 012.841 1.884c.11-.102.23-.244.34-.346-.786-1.174-1.613-2.358-2.4-3.532.854.719 1.677 1.389 2.886 2.408-.21-.906-.314-1.36-.46-1.823 1.844-.368.828-1.298.418-2.082.361-.255 1.025-.523.993-.745-.087-.705-.395-1.379-.612-2.073l1.631-.377c-.216-.523-.473-1.056-.689-1.579.434-.024.817-.017 1.251-.04-.083-.363-.117-.756-.25-1.088-.175-.342-.44-.663-.665-.974.426.189.81.367 1.55.674a68.862 68.862 0 00-.229-2.067c1.52-.446 1.109-1.402.617-2.376 2.117-.26.443-1.306.407-2.042 2.207-.28.968-1.35.546-2.265 2.533-.03-.07-1.301.43-1.78.374.048.717.045 1.09.092-.094-.493-.24-.956-.334-1.45 1.123.314 1.2-.181.708-.985a10.83 10.83 0 01-1.272-1.291zm3.268-16.374c1.036.85 2.072 1.699 3.118 2.507.1-.06.21-.163.27-.234-.206-.563-.402-1.167-.609-1.73.374.047.738.135 1.072.172-.084-.362-.108-.796-.302-1.057-.633-.923-1.326-1.775-2.01-2.668.875.81 1.79 1.63 2.684 2.36.325.25.77.357 1.155.535l.302-1.253c.565-.035 1.17-.06 1.745-.136-.266-.492-.463-1.096-.86-1.405-.578-.44-1.317-.747-2.026-1.003-.161-.04-.531.428-.801.662-.974-.577-1.998-1.124-2.971-1.701l-.36.427c.347.511.735 1.033 1.082 1.545-.465-.198-.881-.427-1.347-.625-.11.102-.22.204-.371.296.358.643.717 1.286 1.025 1.96-.424-.017-.838-.075-1.302-.101.094.494.23.997.325 1.49-1.926.178-.264 1.093-.36 1.669-1.41.344-1.46.547-.377 2.092-.353.043-.696.046-1.049.09.166.553.203 1.29.599 1.599.782.66 1.745 1.106 2.86 1.803-.106-.625-.19-.987-.223-1.38 2.15-1.28-.418-1.814-.406-2.752.547.217 1.124.485 2.218.92-1.144-1.646-2.133-2.869-3.081-4.082zm45.231 133.929c-.458-.41-.846-.931-1.383-1.189-.536-.258-1.223-.253-1.839-.359-.87-.295-1.6-1.884-2.697-.351-.963-.446-1.553-2.258-3.014-.813-.822-.498-1.653-.956-2.809-1.663.209.907.262 1.219.346 1.582-.448-.451-.847-1.103-1.403-1.28-.587-.228-1.332.021-1.988.076-.902-.517-1.845-1.044-3.163-1.79.321.976.414 1.298.548 1.63-.488-.46-.846-1.103-1.424-1.371-.465-.198-1.139.11-1.673.195-1.547-1.571-2.073-1.698-3.205-.73-1.063-.385-2.085-.761-3.148-1.145a58.58 58.58 0 00-2.701-.866c-.04-.01-.218.546-.327.82-1.747-1.449-4.863-2.373-6.595-1.935-.74-.307-1.51-.664-2.258-.93-.081-.019-.4.589-.608.923-1.005-.627-2.018-1.214-3.023-1.842-.12.142-.199.294-.31.396.156.423.36.815.516 1.237-.498-.42-.917-.991-1.494-1.259-.497-.248-1.162-.152-1.778-.258-.86-.336-1.69-.622-3.067-1.126.573.995.778 1.387 1.014 1.829l-3.318-2.214c-.12.143-.21.335-.33.477 1.938 2.437 3.835 4.864 5.832 7.229.367.431 1.265.434 2.216.749-1.276-1.806-2.328-3.301-3.42-4.806 1.232 1.282 2.423 2.553 3.664 3.795.56.52 1.32.917 1.989 1.336.08-.152.2-.295.279-.447a215.914 215.914 0 01-2.47-3.421c1.078 1.031 2.146 2.102 3.274 3.102.498.42 1.116.697 1.643.996l.239-.456c-1.254-1.544-2.498-3.128-3.752-4.672 1.455 1.421 2.91 2.842 4.414 4.232.56.521 1.299.827 1.928 1.236.12-.142.209-.335.329-.477-1.51-1.905-3.028-3.77-4.497-5.665 2.208 2.202 4.385 4.354 6.593 6.556.16-.132.32-.265.45-.447-.104-.454-.168-.897-.273-1.35 1.373 2.471 4.007 1.309 6.155 2.341l-1.006-2.04c1.518.452 1.963 3.041 4.236 2.135l-3.644-5.117c1.344 1.523 2.669 3.127 4.064 4.619.478.501 1.167.838 2.192 1.556-.21-1.078-.284-1.481-.358-1.884.488.46.877 1.154 1.433 1.331.516.167 1.2-.182 1.784-.297.791.447 1.622.905 2.413 1.352.07-.111.109-.273.178-.384a53.693 53.693 0 00-1.085-1.889c.631.58 1.261 1.161 1.932 1.75.782.66 1.516 1.522 2.474.212.67.419 1.349.797 2.059 1.225-.606-1.216-1.088-2.232-1.611-3.257.793.791 1.567 1.663 2.421 2.382.6.53 1.279.908 1.939 1.367l.238-.456c-.725-1.074-1.45-2.148-2.135-3.212 1.058 1.112 2.067 2.254 3.176 3.335.488.46 1.122 1.555 1.451-.163.781.488 1.562.976 2.403 1.393.112.07.501-.479.731-.723.822.498 1.633 1.037 2.414 1.525.08-.152.15-.264.229-.416-.501-.763-.992-1.566-1.492-2.329.865.851 1.729 1.702 2.644 2.522.559.52 1.183 1.484 1.796.005.812.538 1.624 1.077 2.445 1.575.03-.122.099-.233.119-.314-.451-.794-.891-1.628-1.342-2.421.834.8 1.628 1.591 2.522 2.32.457.411 1.035.678 1.602.986.13-.182.219-.375.349-.557-1.764-1.025-2.078-3.627-4.644-3.989.115.584.159.937.242 1.3-1.136-.788-1.747-2.691-3.687-1.746-.739-.307-1.428-.645-2.4-1.05.248.744.331 1.107.456 1.479zm105.01 29.541c-.542.297-1.035.563-1.577.86-1.004.614-2.009 1.228-2.972 1.851-1.996.289-3.942.547-5.937.836-1.879-.197-3.788-.444-5.667-.641l-3.276-.79c-1.057-.94-1.926-2.306-3.654-1.353l-3.448-3.272c-.17.173-.29.315-.46.488 2.516 2.876 4.28 6.384 7.278 8.862.16-.133.32-.265.531-.428-.135-.504-.321-.977-.456-1.48.438.491.827 1.184 1.374 1.402.86.336 1.839.358 2.739.532.838.074 1.686.108 2.565.191.677.207 1.345.454 2.347.738-.339-.724-.473-1.056-.607-1.388.618.278.955.83 1.452 1.078.344.169.888.044 1.363.03-.044-.353-.037-.737-.08-1.09.558.349 1.209 1.02 1.662.915 1.733-.438 3.442-1.138 5.133-1.757.842-.653 1.694-1.346 2.496-2.008.37-.468.79-.965 1.159-1.433 2.096-.35.541-1.71.716-2.609.789.276 1.499.704 2.327.819.495.076 1.088-.252 1.642-.418.548.39 1.056.769 1.604 1.158.12-.142.199-.294.319-.436-.358-.643-.676-1.277-1.045-1.879.794.791 1.568 1.662 2.431 2.342.397.309 1.304 1.513 1.522-.275.842.588 1.735 1.146 2.577 1.735l.21-.335c-.574-.994-1.157-1.948-1.73-2.943.784.831 1.558 1.703 2.442 2.473.783.66 1.675 1.217 2.518 1.806.12-.142.199-.294.309-.396-.45-.794-.851-1.618-1.301-2.411 1.028 1.061 2.066 2.082 3.134 3.153.06-.071.11-.102.13-.183-.533-.984-1.016-2-1.549-2.984.673.761 1.325 1.603 2.067 2.253.996.84 2.071 1.527 3.127 2.296.13-.183.209-.335.339-.517l-.28-.967c.975.749 1.95 1.498 2.934 2.206.07-.111.19-.254.26-.365-.238-.614-.484-1.187-.721-1.801 1.368.716 1.649 3.095 3.875 2.562-.154-.422-.279-.795-.412-1.127.528.47 1.018 1.102 1.635 1.38.659.287 1.436.261 2.173.396.862.507 1.734.975 2.596 1.482.07-.111.139-.223.169-.344a221.894 221.894 0 00-2.161-3.817c1.518 1.693 3.004 3.336 4.522 5.029.12-.142.23-.244.35-.387-.565-1.206-1.17-2.422-1.745-3.588 1.596 1.37 2.101 3.888 4.7 4.644a58.805 58.805 0 00-1.1-2.534c.652.842 1.245 1.756 2.008 2.497.488.46 1.266.605 1.915.933.119-.314.247-.669.325-.992.904.689 1.798 1.418 2.63 2.047-1.076-2.1-2.132-4.11-3.198-6.079 1.438 1.845 2.876 3.69 4.364 5.505.5.591 1.119 1.04 1.728 1.53.12-.143.271-.235.391-.377-.268-.664-.526-1.368-.794-2.032 1.018 1.102 2.077 2.213 3.095 3.315.12-.142.23-.244.35-.386-1.007-2.212-2.004-4.465-3.011-6.676 1.4 2.178 2.74 4.428 4.231 6.585.634.923 1.469 1.895 2.649.554.752.609 1.503 1.219 2.224 1.778.111-.102.23-.244.341-.346-.42-.743-.84-1.487-1.3-2.24.651.671 1.302 1.342 2.004 1.982.529.47 1.077.859 1.98 1.548-1.262-2.573-2.308-4.623-3.313-6.664 1.429 2.057 2.849 4.155 4.338 6.141.622.792 1.328 1.947 2.549.615.69.509 1.43.987 2.121 1.496.07-.111.18-.213.249-.324l-1.016-2.172a215.376 215.376 0 003.428 3.353c.12-.142.23-.244.35-.387-.371-.945-.752-1.85-1.123-2.796.622.792 1.375 1.573 1.847 2.458.809 1.436 2.082 1.658 3.485 1.697-1.31-2.2-2.527-4.248-3.745-6.297.529.47 1.198.888 1.607 1.501 1.073 1.585 2.035 3.273 3.117 4.818.286.412.993.497 1.49.745-.013-.303-.066-.615-.069-.958.336.38.723.73 1.059 1.111.856 1.063 2.28 1.193 2.878.31.722.559 1.452 1.078 2.133 1.627-.191.083-.413.115-.604.197l-4.402-8.895c2.01 2.668 4.01 5.376 6.12 7.983.52.682 1.311 1.13 1.992 1.679.07-.112.099-.233.169-.344-1.554-2.43-3.067-4.85-4.621-7.279 1.764 2.266 3.469 4.604 5.333 6.809.663.801 1.696 1.308 2.569 1.946.03-.121.09-.192.119-.313-1.597-2.783-3.204-5.525-4.801-8.307 1.97 2.658 3.889 5.347 5.908 7.975.53.641 1.381 1.018 2.112 1.537.069-.112.109-.274.178-.385-.686-1.236-1.362-2.512-2.049-3.748 1.999 1.296 2.327 4.371 5.41 5.073-.574-1.166-.975-1.991-1.415-2.825 2.037 3.617 5.535 4.375 9.214 5.092-2.124-3.081-4.075-5.991-6.076-8.871.519.51 1.138.959 1.597 1.541 1.835 2.326 3.56 4.754 5.496 7.019.663.802 1.856 1.176 2.79 1.743.029-.121.058-.242.037-.333-2.114-3.121-4.188-6.233-6.303-9.354 2.477 3.038 4.904 6.106 7.381 9.144 1.05 1.323 4.187 2.337 5.848 1.839 1.135.616 2.261 1.273 3.883 2.178-.392-1.036-.537-1.499-.692-1.921.569.479 1.018 1.101 1.667 1.429.537.258 1.233.212 1.849.318l3.163 1.791.239-.456-.738-1.377.201-.123c1.291 1.211 2.044 3.233 4.372 2.811a358.678 358.678 0 01-3.173-4.233 353.653 353.653 0 014.204 4.396c1.058 1.111 2.241 1.354 2.982.591.059-.071.15-.092.251-.153.984.708 1.959 1.457 2.944 2.166l.389-.549c-.663-.801-1.345-1.522-1.957-2.355-1.501-2.117-2.992-4.275-4.452-6.382 2.385 2.887 4.73 5.764 7.124 8.611.469.541 1.108.909 1.25 1.029-.81-1.608-1.774-3.467-2.728-5.367 1.355 1.654 2.611 3.37 4.036 4.912.774.872 1.788 1.459 2.682 2.188.08-.152.149-.263.229-.415-2.533-3.693-5.066-7.386-7.629-11.13.376.391.813.71 1.139 1.131 2.519 3.219 4.988 6.469 7.557 9.657.397.481.955.83 1.453 1.25.06-.072.079-.152.139-.224-2.429-3.411-4.849-6.863-7.278-10.274.518.51 1.128 1 1.596 1.541 2.264 2.858 4.437 5.736 6.751 8.563.632.752 1.258 2.059 2.528.696.924.608 1.47 2.067 2.986 1.106.822.498 1.643.996 2.505 1.504.029-.122.099-.233.119-.314-2.113-2.95-4.216-5.94-6.329-8.89 2.21 2.545 4.38 5.081 6.927 8.007-.098-.837-.07-1.13-.193-1.331-1.91-2.9-3.73-5.822-5.801-8.591-.419-.571-1.78-.429-2.689-.563-1.063-.385-2.076-.801-3.138-1.185l-2.82-.553c-1.567-1.491-1.728-1.53-2.802-.804-.84-.246-1.229-2.18-2.569-.706-1.144-.405-2.318-.859-3.462-1.264-1.003-.456-1.792-1.973-3.174-.68-2.123-1.668-4.501-2.456-7.233-2.131-1.919-1.448-4.025-2.299-6.484-1.865-1.003-.456-1.955-.943-2.968-1.358-.081-.02-.379.508-.609.752-1.032-.335-1.403-2.522-3.067-1.126-1.954-.771-3.908-1.542-5.881-2.233-.203-.048-.553.338-.823.572-1.385-1.533-2.598-1.825-3.702-.979-1.171-1.353-5.219-2.672-7.022-2.294-1.315-.403-2.599-.756-3.915-1.159-.737-.135-1.485-.23-2.182-.355a113.424 113.424 0 01-3.631-.919c-.913-.649-1.73-1.874-3.083-.702-.589-.399-1.228-.767-1.816-1.166l-.326.82c-1.045-.637-2.12-1.325-3.165-1.962-.12.142-.199.294-.319.436.615 1.176 1.199 2.302 1.814 3.477-.685-1.064-1.42-2.097-2.104-3.161-.716-1.115-1.282-1.251-2.498-.646-1.123-.314-2.215-.577-3.338-.891l-2.831-.684c-.799-.235-1.648-.44-2.448-.676-1.051-.254-2.153-.477-3.205-.731-.94-.184-1.88-.368-2.81-.592-.8-.408-1.632-.865-2.432-1.272a2.07 2.07 0 01-.269.406c.676 1.276 1.353 2.552 2.019 3.868-.735-1.033-1.601-2.055-2.185-3.181-.585-1.125-1.306-1.685-2.575-1.392-1.04-.122-2.04-.235-3.071-.399-.915-.82-1.8-1.761-3.021-.429-.876-.982-1.753-2.135-3.226-.821a65.145 65.145 0 00-2.742-.876l-2.507-.606c-1.024-.546-1.922-1.79-3.213-.518-.745-.993-1.578-1.622-2.832-.684-.823-.669-1.559-1.874-2.82-.552-.965-.789-1.813-2.064-3.163-.549-.718-1.458-1.83-1.64-3.217-1.034-.649-.328-1.237-.726-1.915-.933-.243-.058-.622.449-.943.714-.922-.436-1.35-2.209-2.905-1.086-1.095-.607-2.114-1.88-3.506-.547-.629-.408-1.299-.827-1.947-1.155-.081-.019-.401.417-.631.662-.87-.296-1.69-.622-2.56-.918-.901-.346-1.629-1.763-2.769-.412-.396-.309-.802-.578-1.523-1.138-.15 1.334-.244 2.253-.347 3.212-1.255-.474-1.888-.156-1.463 1.274zM49.825 154.531a82.406 82.406 0 00-1.753-.893c.128.887.223 1.38.277 1.864-1.312 1.182-2.099 2.49-1.246 4.279-1.607-.259-1.115.716-.836 1.511-1.584 1.244-1.883 3.012-.828 4.85l-1.486-.23c.118.756.275 1.522.392 2.278-.433.023-.919-.094-1.26.08-.141.052-.175.9.039 1.08 1.453 1.25 3.007 2.438 4.52 3.616.12-.142.28-.275.44-.407l-2.476-3.038c.883.599 1.765 1.197 2.638 1.836.575-1.317.575-1.317-1.04-3.847.71.428 1.389.806 2.099 1.235.12-.143.29-.316.41-.458-1.08-1.202-2.2-2.414-3.27-3.657.101-.061.17-.173.271-.234 1.027.89 2.013 1.77 3.03 2.7.15-.092.341-.174.502-.307-.257-.533-.463-1.096-.81-1.608-.613-.832-1.295-1.553-1.927-2.305.975.749 2 1.467 2.975 2.216.16-.133.352-.215.512-.347-.298-.714-.637-1.438-.936-2.152.474-.014 1.363.029 1.382-.052.183-1.112.244-2.252.306-3.393 1.252.131 1.51-.406.856-1.42-.368-.602-.887-1.113-1.346-1.694.68.377 1.349.796 2.028 1.174.17-.173.3-.356.47-.529-1.545-1.4-3.04-2.831-4.586-4.231-.21.163-.461.316-.682.52.438.491.907 1.032 1.335 1.563zm141.335 66.13c-.831-.458-1.587-1.582-2.524-.182-1.253-1.372-2.081-1.486-3.031-.389-.798-1.305-1.801-1.761-3.124-.711-.866-1.022-1.87-1.65-3.226-.821-.943-.528-1.869-1.479-2.969-.289a49.279 49.279 0 01-2.109-1.194c-.089.193-.209.335-.298.527 1.316 1.816 2.683 3.601 4 5.417-1.437-1.673-3.034-3.215-4.31-5.021-.806-1.093-1.537-1.612-2.844-.986-.698-.297-1.387-.634-2.471-1.11.421.915.555 1.247.729 1.589-.386-.35-.683-.893-1.118-1.041-.799-.235-1.657-.228-2.495-.302l-2.791-.674c-.81-.367-1.597-1.541-2.565-.191-1.036-.849-1.965-2.143-3.488-.799l-3.721-.898c-1.206-.676-2.376-1.858-3.88-.594-.694-1.024-1.487-1.643-2.752-.835-1.164-.496-2.224-1.779-3.688-.677l-6.876-1.659c-.497-.249-1.003-.456-1.499-.705.012.303-.016.596.007.858-1.288-.696-2.565-1.432-3.893-2.138l-.389.548c1.06 1.283 1.99 2.749 3.29 3.748.681.549 1.982 1.719 3.058.096.731.519 1.452 1.078 2.183 1.597.07-.112.19-.254.26-.366-.094-.322-.197-.604-.291-.926 1.066.728 2.132 1.456 3.451 2.374-.007-.858-.02-1.161-.034-1.635.509.551.816 1.053 1.263 1.332.892.558 1.859 1.519 2.938.239.974.577 1.988 1.164 2.961 1.742l.239-.457a118.076 118.076 0 01-2.041-2.718c1.453 1.25 2.937 2.55 4.391 3.799.11-.101.179-.213.29-.315-.155-.422-.36-.814-.515-1.237 1.491.916 2.941 1.823 4.432 2.739.13-.183.26-.365.38-.508-.797-1.133-1.603-2.227-2.399-3.361.936.911 1.781 1.843 2.777 2.682.924.78 2.019 1.387 3.044 2.105.13-.183.209-.335.339-.518-.837-1.143-1.683-2.246-2.52-3.39.997 1.011 1.954 2.012 2.971 2.943.701.64 1.513 1.178 2.274 1.747.12-.142.281-.275.41-.457-.093-.322-.196-.604-.29-.926 1.066.728 2.101 1.405 3.166 2.133.07-.111.18-.213.25-.325-.216-.523-.423-1.086-.639-1.609.509.551.968 1.132 1.487 1.643.661.63 1.373 1.402 2.283.294.95.144 1.413 2.481 2.831.684.791.447 1.531.926 2.332 1.333.04.01.358-.599.558-.893.457.41.835.972 1.341 1.18.476.158 1.049-.089 1.624-.165.852.549 1.714 1.056 2.566 1.604.07-.111.13-.182.159-.304-1.093-1.676-2.177-3.393-3.271-5.069 1.335 1.563 2.61 3.198 4.005 4.69.61.661 1.532 1.097 2.304 1.626.12-.142.209-.335.329-.477a22.04 22.04 0 00-.636-1.266c.59.57 1.12 1.212 1.739 1.661.7.468 1.526 1.481 2.199-.069.427.36.904.689 1.331 1.049.201-.123.361-.255.552-.337-.494-1.147-1.028-2.303-1.522-3.449 2.917 3.7 5.843 7.359 8.759 11.059 1.571 2.006 3.081 4.082 4.601 6.119-2.026-2.244-4.103-4.458-6.029-6.763-1.794-2.145-3.386-4.413-5.079-6.619-.192.082-.392.205-.583.287.422 1.087.895 2.142 1.318 3.229-.13.183-.451.448-.399.588.961 2.758 2.594 5.035 5.019 6.691-1.287-1.938-2.565-3.915-3.852-5.852 1.815 2.235 3.529 4.532 5.463 6.626 1.12 1.212 2.601 2.168 3.951 3.136.183.13.685-.177 1.017-.311.752.61 1.463 1.209 2.215 1.819.12-.143.28-.275.4-.417-6.047-6.51-11.121-13.685-15.623-21.277 1.518 1.865 3.087 3.699 4.606 5.563.141-.051.251-.153.392-.205-.381-.905-.711-1.841-1.092-2.746 2.029.105.891-2.096 2.149-2.52-.092-.151-.134-.332-.226-.483-1.191-.03-2.361.03-3.531.09zm-157.624-26.66c1.97 1.588 3.941 3.177 5.962 4.735.538.429 1.237.726 1.835 1.085.07-.112.1-.233.17-.345-2.3-2.353-4.631-4.756-6.931-7.108.406.269.831.457 1.187.757 2.256 2 4.453 4.071 6.75 6.081.458.41 1.165.495 1.792.732.038-.334.116-.657.154-.99.983.536 1.966 1.073 2.909 1.601.13-.183.26-.366.358-.599-2.665-2.612-5.38-5.193-8.046-7.806.575-.075.87.125 1.154.364 2.481 2.311 4.902 4.693 7.393 6.964.63.58 1.51.835 2.27 1.233.08-.152.21-.335.29-.487-.631-.58-1.302-1.17-1.923-1.791l-10.744-10.811c1.127.828 2.223 1.607 3.35 2.435.145-.778-.021-1.332-.388-1.763-1.11-1.252-2.23-2.464-3.38-3.726 1.462 1.209 2.935 2.378 4.865 3.956-.15-1.149-.196-1.845-.293-2.51 1.352-.102 1.508-.749.763-1.742-.49-.632-1.029-1.233-1.569-1.834.781.488 1.522.966 2.313 1.414.15-.092.3-.184.461-.317-.226-.482-.392-1.036-.718-1.457-.795-.962-1.69-1.863-2.536-2.795 1.168.838 2.366 1.727 3.533 2.565 1.498-3.191 1.498-3.191-.8-5.372-.489-.461-.826-1.013-1.254-1.544 1.167.838 2.365 1.726 3.532 2.565 1.1-1.19 1.003-2.027-.255-2.844-.486-.289-.774-.872-1.14-1.303.82.498 1.692.965 2.514 1.463.18-.213.35-.386.53-.599-1.576-1.451-3.183-2.952-4.759-4.402-.15.092-.332.134-.482.226.044.524.12 1.099.164 1.623-1.612.296-1.19 1.382-.919 2.389-1.707 1.044-1.916 2.62-1.7 4.384-.277.618-.505 1.205-.782 1.823-1.833.499-.845 1.551-.515 2.486-2.212-.234-1.385.95-.902 1.966-1.385-.292-1.532.315-.937 1.4.205.392.51.722.765 1.083-.496-.248-.993-.496-1.793-.903-.27 1.647-.46 2.97-.702 4.325-1.662.326-1.09 1.149-.438 1.991-1.748-.379-1.245.727-1.036 1.633-.096.576-.513 1.417-.31 1.638 1.323 1.26 2.796 2.429 4.278 3.557.254.19.798.065 1.222.081a198.763 198.763 0 00-5.262-5.507zm19.08-.317c-.436-.319-.824-.841-1.279-.908-.616-.106-1.32.152-1.936.218l-2.887-1.339c-.13.182-.228.415-.358.598 2.767 2.722 5.524 5.485 8.351 8.136.489.461 1.337.494 2.065.67.04.01.237-.628.365-.982l2.074.629c.78.317 1.55.674 2.288.98.03-.121.11-.273.139-.394l-6.632-7.636c.548.389 1.206.676 1.644 1.167 1.914 2.003 3.727 4.067 5.61 6.02.478.5 1.136.788 1.734 1.146.07-.112.15-.264.26-.365l-5.322-6.678c1.954 2.013 3.867 4.015 5.881 5.957.519.51 1.239.898 1.868 1.306.12-.142.2-.294.319-.436a379.952 379.952 0 00-3.632-4.815c1.078 1.031 2.367 1.899 3.134 3.154 1.575 2.52 3.946 2.45 6.5 2.51-1.715-2.297-3.337-4.443-4.959-6.59 1.852 1.903 3.695 3.845 5.547 5.748.478.5 1.036.849 1.574 1.279.12-.143.24-.285.32-.437-1.866-2.376-3.682-4.784-5.649-7.099-.428-.531-1.337-.665-2.37-1.171.29.926.444 1.348.559 1.761-.112-.069-.324-.078-.345-.168-1.403-2.522-4.117-1.208-6.072-2.151-.04-.01-.229.416-.359.598-.931-.396-1.782-2.014-2.928-.279-1.014-.587-1.935-2.093-3.233-.437-.74-.307-1.52-.624-2.248-.971.002.343-.026.636-.023.979zm185.949 11.453c-.896.341-1.874.49-2.636.991-6.808 4.263-13.544 8.587-20.321 12.901-.803.49-1.545 1.082-2.408 1.644 2.798 1.531 4.555 1.699 7 .791 1.449-.507 2.867-1.063 4.337-1.479 23.361-6.346 47.053-7.861 71.061-5.362 21.917 2.294 42.946 8.269 63.338 16.529 1.832.742 3.655 1.524 5.64 2.346.146-.607.265-.921.303-1.254 2.832-20.247 5.624-40.503 8.496-60.739 2.865-20.025 5.851-40.02 8.755-60.035.067-.455-.161-1.281-.435-1.389-3.694-1.363-7.378-2.594-11.375-3.944-.722 4.234-1.408 7.963-1.973 11.722-3.217 21.309-6.444 42.659-9.621 63.977-.229 1.657-.174 3.383-.453 5.07-.487 3.435-1.135 6.831-1.612 10.226-.564 3.93-1.046 7.88-1.519 11.789-.178 1.626-1.024 1.936-2.45 1.463-4.19-1.439-8.349-2.828-12.548-4.227a1776.938 1776.938 0 00-14.127-4.779 77.05 77.05 0 00-5.139-1.583c-1.163-.324-2.416-.455-3.608-.657-.696.046-1.327-.534-2.055-.71-2.538-.655-5.117-1.321-7.704-1.774-4.072-.683-8.195-1.336-12.316-1.817-14.162-1.62-28.129-.498-41.8 3.65-2.174.674-4.193 1.77-6.255 2.685l.05-.03c-1.147.322-2.326.594-3.453 1.007-.281.103-.436.921-.517.902-2.073-.458-3.374.855-4.686 2.036l.031.05zm-26.982 15.317l.411-1.699c2.759-13.03 5.429-26.04 8.269-39.051 3.066-13.941 6.252-27.853 9.479-41.755 3.179-13.7 6.559-27.351 9.778-41.04.205-.85.125-1.94-.184-2.784-11.437-30.111-33.448-48.864-63.492-58.983-14.764-4.976-30.015-6.517-45.468-6.865-1.15-.021-1.5.365-1.825 1.357-3.448 10.382-6.864 20.814-10.433 31.167-8.645 25.178-17.281 50.315-26.007 75.474-1.538 4.422-3.31 8.746-4.969 13.139-.162-.039-.314-.119-.476-.158 5.191-18.136 11.849-35.79 17.95-53.62 6.162-17.903 12.171-35.884 18.31-54.048-1.475-.271-2.679-.604-3.901-.685-4.563-.245-5.305.346-6.773 4.657a3293.927 3293.927 0 01-9.318 26.899c-4.26 12.154-8.561 24.3-12.822 36.454l-14.999 42.991c-.986 2.843-2.124 5.608-3.31 8.746 5.777-1.945 11.392-2.687 17.075-2.471 12.315.405 24.156 3.305 35.792 7.056 25.416 8.189 48.207 21.051 67.911 39.076 5.155 4.711 9.6 10.235 14.404 15.333.479.5 1.278.736 2.069 1.184.036-.505.115-.657.054-.758-.216-.523-.442-1.005-.658-1.528-6.989-14.313-16.946-26.261-29.258-36.253a140.884 140.884 0 00-11.756-8.573c-4.068-2.651-8.435-4.775-12.573-7.314-3.874-2.391-8.304-3.546-12.308-5.753-2.909-1.601-6.127-2.635-9.304-3.658-3.733-1.201-7.566-2.169-11.398-3.137-4.48-1.124-8.932-2.541-13.518-3.048-6.333-.716-12.72-.674-19.07-.965-.465-.027-.93-.053-1.434-.09l-.004-.514c.625-.106 1.26-.253 1.915-.308 6.856-.742 13.68-.465 20.521.63 15.238 2.479 29.63 7.579 43.42 14.46 19.597 9.781 36.396 22.995 48.806 41.271 3.319 4.867 5.984 9.962 9.094 15.164zm142.187-11.522c.192-1.152.376-2.092.52-3.042 2.525-18.266 4.96-36.511 7.526-54.767 2.959-20.772 5.635-41.613 10.363-62.086.332-1.376-.067-2.028-1.282-2.493-4.889-1.908-9.711-4.099-14.699-5.773-25.176-8.303-50.531-8.944-76.147-1.944-13.019 3.578-24.836 9.8-36.498 16.444-2.23 1.26-3.831 2.927-4.131 5.766-.337 3.171-1.21 6.256-1.921 9.38-2.992 13.103-6.105 26.177-8.975 39.309-4.377 20.087-8.603 40.254-12.94 60.352-.593 2.81-1.347 5.581-2.118 8.776 4.707-3.187 8.85-6.167 13.147-8.897 17.981-11.368 37.395-17.853 58.913-17.453 17.512.332 34.385 4.019 50.8 9.779 5.839 2.051 11.489 4.356 17.442 6.649zm28.536-90.743c-.256 1.95-.446 3.445-.686 4.971-1.796 12.407-3.683 24.835-5.439 37.251-3.109 22.106-6.219 44.211-9.238 66.296-.334 2.445-.131 4.976-.131 7.459.004.514.058.998.103 1.523-.576-.097-1.172-.112-1.688-.279-.526-.127-1.012-.416-1.519-.624a249.799 249.799 0 00-46.928-15.179c-3.052-.651-6.163-.888-9.255-1.377-3.87-.635-7.712-1.562-11.581-2.025-10.394-1.268-20.831-1.476-31.323-1.098-15.284.549-29.998 4.231-44.826 7.5-.181.042-.27.234-.28.275 2.399 2.12 5.028 3.996 7.056 6.411 1.426 1.714 3.026 2.357 5.028 2.755 10.33 2.065 20.699 3.968 30.942 6.398 18.139 4.292 36.249 8.706 54.331 13.413 17.04 4.413 33.972 9.27 50.954 13.925 3.297.882 6.673 1.611 10.03 2.421.088-.364.256-.88.342-1.415.904-8 1.717-15.979 2.661-23.969 2.181-18.435 4.402-36.86 6.633-55.325 1.371-11.354 3.035-22.68 4.194-34.043.597-6.019.486-12.124.669-18.2.018-.253-.388-.522-.481-.844a30.178 30.178 0 01-.686-2.477c-.158-.766-.038-2.149-.352-2.268-1.265-.433-1.434-1.33-1.644-2.408-.064-.444-.622-.792-1.214-1.534-.38 2.818-.613 5.202-.977 7.596-2.561 17.702-5.161 35.393-7.722 53.094-2.168 15.014-4.296 30.037-6.465 45.051-.717 4.92-1.484 9.871-2.039 14.831-.283 2.414-.081 2.463-2.379 1.523-20.11-8.364-40.317-16.323-61.59-21.286-3.246-.741-6.59-1.248-9.874-1.827-5.265-.886-10.491-1.933-15.774-2.566-4.667-.527-9.422-.862-14.145-.803-7.315.16-14.69.392-21.949 1.208-6.201.686-12.294 2.169-18.421 3.258-.584.116-1.199.181-1.774.257l-.159-.938c6.488-1.344 12.883-3.011 19.404-3.962 21.167-3.109 42.045-.766 62.681 4 18.492 4.25 36.275 10.725 53.812 17.868a9605.48 9605.48 0 008.809 3.581c6.073-42.363 12.068-84.402 18.141-126.765-1.498-.533-3.177-1.024-5.251-1.653zm-180.742 97.493c-.296-.371-.48-.673-.683-.893-17.657-18.172-37.937-32.569-61.278-42.44-5.246-2.208-10.629-4.021-15.983-5.955-2.328-.819-4.665-1.597-7.071-2.092-7.036-1.527-14.043-3.176-21.156-4.208-7.356-1.09-14.77-.697-22.051 1.098-.775.198-1.625-.007-2.856-.047 13.046-37.384 25.916-74.212 38.933-111.475-1.998-.055-3.422-.184-4.845-.142-1.847.025-2.778.87-3.409 2.772-3.21 9.755-6.653 19.41-10.097 29.065a22472.59 22472.59 0 01-17.69 49.532c-4.184 11.66-8.337 23.369-12.562 35.019-.237.628-.626 1.176-.944 1.784-.273-.109-.537-.258-.85-.377 12.933-36.384 25.836-72.818 38.957-109.8-4.953 2.786-9.191 5.272-10.944 10.585-2.03 6.101-4.422 12.115-6.532 18.197-5.845 17.123-11.65 34.255-17.333 51.416-3.171 9.593-6.029 19.304-9.21 28.937-1.004 3.096-2.534 6.066-3.84 9.174 26.448 2.318 51.538 10.086 76.723 17.106 25.195 6.98 49.956 15.225 74.096 25.332-.245-.402-.56-.692-.905-.86-11.739-6.515-23.319-13.333-35.296-19.391a331.66 331.66 0 00-47.864-19.814c-3.015-.984-6.071-1.979-9.195-2.69-6.4-1.502-12.812-3.135-19.308-4.061-6.982-1.043-14.048-1.379-21.057-1.958-2.433-.202-4.846-.314-7.25-.466 0-.171-.002-.343.006-.555.585-.116 1.138-.281 1.703-.316 2.845-.084 5.67-.258 8.516-.171 19.26.711 37.695 5.375 55.691 11.859 20.323 7.302 39.635 16.842 58.788 26.687 5.695 2.83 11.089 6.015 16.796 9.148zm-2.701 4.098a4.99 4.99 0 01.226-.758c-48.746-18.999-98.403-34.751-150.287-42.695.405-.972.932-1.915 1.308-2.937 3.48-10.16 6.959-20.32 10.358-30.5 6.836-20.521 13.582-41.021 20.418-61.543.897-2.651 1.946-5.223 2.913-7.814a8.144 8.144 0 01-.507-.38c-.92.977-2.367 1.826-2.731 2.98-3.633 11.15-6.821 22.408-10.566 33.489-8.828 26.289-17.888 52.48-26.828 78.7a46.066 46.066 0 01-.65 1.983c2.858.219 5.433.369 7.957.551 17.338 1.402 34.31 4.857 51.156 9.008 28 6.887 56.234 12.803 84.661 17.738 4.144.743 8.378 1.466 12.572 2.178zM53.15 201.046c.12-.142.21-.334.33-.477-2.738-2.843-5.435-5.677-8.233-8.45-.377-.39-1.144-.404-1.731-.632-.08.152-.169.345-.289.487 3.635 2.675 6.27 6.478 9.923 9.072zm-20.153-4.992a3.48 3.48 0 01-.563.206c.127.716.035 1.806.44 2.075.883.599 2.045.751 3.118 1.095.09-.192.148-.435.237-.627-1.067-.9-2.165-1.85-3.232-2.749z" fill="#97FF95"/></g><path d="M395.64 146.276c1.26-1.322 1.718.329 2.538.655.184.302.358.643.543.945.065.615.181 1.199.246 1.814l-1.051-.254c-.776-1.043-1.501-2.117-2.276-3.16zm-184.058 74.178c-3.069-5.192-5.775-10.297-8.952-15.044-12.4-18.316-29.169-31.48-48.806-41.271-13.79-6.881-28.172-12.021-43.42-14.46-6.8-1.085-13.624-1.363-20.521-.63-.615.065-1.25.212-1.915.308l.004.514c.465.027.97.063 1.434.09 6.35.291 12.778.259 19.071.965 4.545.497 9.037 1.924 13.517 3.048 3.832.968 7.624 1.926 11.398 3.137 3.177 1.023 6.385 2.097 9.304 3.658 4.004 2.207 8.393 3.352 12.308 5.753 4.138 2.539 8.505 4.663 12.573 7.314a140.719 140.719 0 0111.756 8.573c12.353 10.001 22.309 21.949 29.258 36.253.226.482.482 1.015.658 1.528.062.101-.018.253-.054.758-.791-.448-1.59-.684-2.069-1.184-4.804-5.098-9.249-10.622-14.404-15.333-19.704-18.025-42.535-30.897-67.911-39.076-11.636-3.75-23.476-6.651-35.791-7.056-5.734-.185-11.308.567-17.075 2.471 1.175-3.098 2.283-5.912 3.31-8.746l14.998-42.991c4.26-12.155 8.562-24.3 12.822-36.454a3257.671 3257.671 0 009.318-26.9c1.468-4.31 2.21-4.901 6.774-4.656 1.221.08 2.425.414 3.901.685-6.14 18.164-12.149 36.145-18.31 54.047-6.142 17.822-12.76 35.485-17.95 53.621.161.039.313.119.475.158 1.66-4.393 3.43-8.717 4.97-13.139 8.685-25.169 17.361-50.296 26.006-75.474 3.569-10.353 6.976-20.745 10.433-31.167.335-1.032.675-1.378 1.826-1.357 15.453.348 30.703 1.89 45.467 6.865 30.044 10.12 52.055 28.872 63.492 58.983.31.845.399 1.894.184 2.783-3.219 13.69-6.599 27.342-9.777 41.041-3.227 13.902-6.414 27.814-9.479 41.755-2.841 13.011-5.51 26.021-8.27 39.051-.269.406-.396.932-.553 1.579zm142.184-11.522c-5.993-2.302-11.613-4.557-17.371-6.589-16.456-5.77-33.288-9.447-50.8-9.779-21.468-.431-40.922 6.045-58.913 17.454-4.297 2.729-8.481 5.7-13.147 8.896.771-3.195 1.525-5.966 2.118-8.776 4.297-20.107 8.522-40.274 12.94-60.352 2.87-13.132 5.983-26.206 8.975-39.309.711-3.124 1.543-6.219 1.921-9.38.31-2.879 1.901-4.506 4.131-5.766 11.653-6.604 23.429-12.835 36.498-16.444 25.576-7.01 50.971-6.359 76.146 1.944 4.999 1.634 9.77 3.856 14.7 5.773 1.215.465 1.614 1.118 1.282 2.493-4.768 20.464-7.404 41.314-10.363 62.086-2.606 18.247-5.041 36.492-7.526 54.767-.215.89-.399 1.83-.591 2.982z" fill="#000"/><path d="M382.308 118.189c2.034.619 3.713 1.11 5.23 1.562-6.063 42.323-12.058 84.362-18.141 126.766-3.119-1.267-5.964-2.424-8.809-3.582-17.537-7.143-35.31-13.659-53.812-17.867-20.686-4.736-41.564-7.079-62.681-4.001-6.521.951-12.956 2.608-19.404 3.963l.159.937c.575-.076 1.19-.141 1.774-.257 6.137-1.13 12.23-2.612 18.421-3.258 7.29-.766 14.634-1.048 21.949-1.208 4.692-.109 9.448.226 14.145.803 5.283.633 10.519 1.64 15.774 2.566 3.284.579 6.638 1.046 9.874 1.827 21.273 4.963 41.521 12.932 61.59 21.286 2.299.94 2.087.932 2.379-1.523.555-4.96 1.322-9.911 2.039-14.831 2.128-15.023 4.297-30.037 6.465-45.051 2.561-17.701 5.162-35.392 7.722-53.093.354-2.355.637-4.769.977-7.597.592.742 1.15 1.091 1.214 1.534.21 1.078.379 1.975 1.644 2.409.354.128.194 1.502.352 2.267.178.857.407 1.682.686 2.477.093.322.459.582.481.844-.183 6.077-.022 12.15-.669 18.2-1.159 11.363-2.823 22.689-4.193 34.043-2.222 18.425-4.453 36.89-6.634 55.325-.944 7.99-1.757 15.969-2.661 23.969-.046.545-.254 1.051-.342 1.415-3.357-.81-6.693-1.529-10.03-2.421-16.991-4.614-33.924-9.472-50.954-13.925-18.042-4.697-36.152-9.111-54.331-13.413-10.243-2.429-20.612-4.333-30.942-6.398-2.002-.398-3.601-1.041-5.028-2.755-2.028-2.415-4.657-4.291-7.056-6.411 0 0 .14-.223.28-.275 14.828-3.269 29.542-6.951 44.826-7.499 10.492-.378 20.929-.171 31.323 1.097 3.909.473 7.711 1.39 11.582 2.025 3.082.53 6.202.726 9.255 1.378a249.7 249.7 0 0146.928 15.179c.506.207.993.496 1.518.623.567.137 1.152.192 1.688.279-.045-.524-.099-1.008-.103-1.523.04-2.473-.203-5.014.131-7.459 3.029-22.125 6.088-44.2 9.238-66.295 1.756-12.417 3.633-24.805 5.439-37.252.251-1.395.441-2.89.707-4.88zM275.142 226.677l-.36.427c3.202 2.87 6.414 5.7 9.576 8.561.13-.183.29-.316.42-.498l-9.636-8.49zm-73.583-10.995c-5.666-3.123-11.101-6.318-16.655-9.199-19.153-9.845-38.506-19.396-58.788-26.688-17.996-6.484-36.43-11.147-55.69-11.858-2.847-.088-5.672.086-8.517.17-.565.035-1.118.201-1.703.317.002.171.003.343-.005.555 2.403.152 4.825.223 7.25.466 7.048.588 14.115.924 21.056 1.957 6.487.967 12.898 2.6 19.308 4.061 3.124.712 6.139 1.696 9.195 2.691 16.463 5.386 32.411 12.017 47.864 19.813 11.977 6.058 23.557 12.877 35.296 19.391.335.209.66.459.905.861-24.14-10.107-48.901-18.352-74.096-25.332-25.235-6.99-50.275-14.789-76.723-17.106 1.316-3.149 2.836-6.078 3.84-9.174 3.172-9.593 6.03-19.304 9.21-28.937 5.683-17.162 11.528-34.284 17.333-51.416 2.07-6.092 4.462-12.106 6.532-18.198 1.784-5.262 5.991-7.799 10.944-10.584-13.211 37.002-26.105 73.396-39.048 109.821.273.108.537.258.85.376.319-.608.708-1.156.945-1.784 4.184-11.659 8.377-23.359 12.561-35.018 5.91-16.508 11.821-33.015 17.69-49.532 3.444-9.656 6.847-19.32 10.098-29.065.64-1.943 1.562-2.748 3.408-2.773 1.423-.042 2.847.088 4.846.142-13.018 37.263-25.847 74.101-38.934 111.475 1.231.041 2.08.246 2.856.048 7.272-1.755 14.686-2.148 22.051-1.098 7.113 1.032 14.11 2.72 21.156 4.207 2.406.495 4.743 1.273 7.071 2.092 5.354 1.934 10.738 3.747 15.983 5.955 23.382 9.881 43.621 24.268 61.278 42.44.154.251.338.553.633.924z" fill="#000"/><path d="M247.172 201.222c2.101-.905 4.09-2.051 6.255-2.684 13.67-4.148 27.597-5.281 41.799-3.651 4.121.481 8.204 1.124 12.316 1.817 2.588.454 5.166 1.119 7.705 1.774.728.176 1.348.797 2.054.71 1.192.202 2.445.333 3.608.657a77.05 77.05 0 015.139 1.583c4.716 1.566 9.412 3.213 14.127 4.779 4.19 1.439 8.348 2.828 12.548 4.227 1.427.473 2.272.163 2.45-1.463.483-3.95.956-7.859 1.519-11.789.487-3.435 1.135-6.831 1.612-10.226.229-1.657.174-3.382.453-5.069 3.177-21.319 6.404-42.669 9.621-63.978.565-3.759 1.251-7.488 1.973-11.722 3.998 1.35 7.721 2.591 11.375 3.944.274.108.503.934.436 1.389-2.905 20.015-5.891 40.01-8.755 60.035-2.914 20.227-5.665 40.493-8.497 60.739-.038.333-.156.647-.303 1.254-1.985-.822-3.807-1.604-5.64-2.346-20.391-8.26-41.42-14.235-63.338-16.529-24.007-2.499-47.7-.984-71.061 5.362-1.47.416-2.878.932-4.337 1.479-2.485.898-4.202.74-7-.791.873-.602 1.646-1.144 2.409-1.644 6.776-4.314 13.513-8.638 20.32-12.901.803-.491 1.75-.691 2.636-.99 1.894 3.324 4.768 5.602 7.563 8.031.12-.142.28-.274.4-.417-2.684-2.531-5.329-5.053-8.013-7.584 1.352-1.171 2.613-2.493 4.686-2.036.08.019.276-.789.517-.902 1.137-.454 2.315-.726 3.423-1.058 3.114 3.235 6.147 6.449 9.211 9.714.231-.244.461-.488.681-.692-3.264-2.97-6.598-6.001-9.892-9.022zm-48.311 18.558c-4.194-.713-8.438-1.395-12.622-2.148a1247.448 1247.448 0 01-84.66-17.738c-16.847-4.151-33.819-7.606-51.157-9.008a625.46 625.46 0 00-7.957-.551c.226-.759.423-1.396.65-1.983 8.94-26.22 18.01-52.451 26.828-78.701 3.745-11.08 6.983-22.369 10.566-33.488.364-1.154 1.81-2.003 2.73-2.98.183.13.366.26.508.38-.967 2.591-2.026 5.203-2.913 7.814-6.836 20.521-13.592 41.062-20.419 61.543-3.398 10.18-6.878 20.34-10.357 30.5-.335 1.032-.872 2.015-1.308 2.937 51.934 7.913 101.592 23.665 150.287 42.695-.009.212-.117.485-.176.728zm126.885 37.346c2.001 2.88 3.952 5.79 6.076 8.871-3.679-.717-7.177-1.475-9.174-5.082-1.462-2.279-2.883-4.548-4.344-6.827 1.843-.368 5.85.942 7.022 2.294.143.292.266.493.42.744zm16.577 3.658c2.458-.433 4.564.417 6.483 1.865a729.68 729.68 0 004.514 6.482c1.071 1.415 2.102 2.819 3.173 4.233-2.338.463-3.081-1.6-4.373-2.81-1.633-2.278-3.306-4.565-4.94-6.842-.16.132-.371.295-.531.428 1.743 2.176 3.527 4.361 5.27 6.537.236.442.503.934.738 1.376l-.238.456-3.163-1.79c-2.288-3.292-4.606-6.633-6.933-9.935z" fill="#000"/><path d="M353.328 269.091a744.702 744.702 0 00-4.514-6.483c2.733-.325 5.11.463 7.233 2.131.52.682 1.091 1.333 1.611 2.015 1.501 2.118 2.951 4.265 4.452 6.382.612.833 1.284 1.594 1.957 2.356l-.39.548c-.984-.708-1.959-1.457-2.944-2.166-1.887-2.467-3.764-4.975-5.651-7.442-.211.163-.371.296-.582.459a831.443 831.443 0 015.982 7.137c-.74.762-1.923.52-2.982-.592a534.706 534.706 0 00-4.172-4.345zM38.097 187.525l10.745 10.811c.62.621 1.292 1.211 1.922 1.791-.08.152-.21.335-.289.487-.76-.398-1.63-.693-2.27-1.233-2.491-2.271-4.912-4.653-7.393-6.964-.285-.239-.58-.439-1.154-.364 2.666 2.613 5.38 5.194 8.046 7.806-.13.183-.26.366-.358.599-.983-.537-1.967-1.074-2.91-1.601l.062.1c-2.725-2.541-5.46-5.042-8.145-7.573-.437-.319-.833-.629-1.27-.948.242-1.355.433-2.678.702-4.325.841.417 1.338.665 1.794.904l.518.51zm290.926 69.836c.261-.194.621-.621.823-.572 1.974.69 3.928 1.462 5.882 2.233l.213.18c2.226 3.191 4.492 6.391 6.718 9.582l-.061-.1c-1.651.457-4.798-.516-5.848-1.84-2.436-3.027-4.904-6.105-7.381-9.143-.111-.07-.244-.23-.346-.34zm4.985 2.401c-.16.133-.361.256-.522.388l6.331 7.82c.16-.133.371-.296.531-.428-2.15-2.617-4.23-5.173-6.34-7.78zm-272.975-65.33c.14-.223.359-.598.359-.598 1.955.943 4.71-.361 6.072 2.151.062.1.233.099.345.168l-.061-.1c1.621 2.146 3.243 4.293 4.967 6.549-2.553-.06-4.884.02-6.499-2.51-.777-1.215-2.106-2.092-3.134-3.153a81.675 81.675 0 00-2.049-2.507zm329.671-20.244c-.755-2.193-.378-4.285.624-6.312l3.925 6.084c1.155 1.776 1.098 4.673-.11 6.308-1.52-2.036-2.96-4.053-4.439-6.08zM185.61 220.09c.99-1.088 1.788-1.024 3.03.389.052.141.144.292.196.432 4.502 7.593 9.566 14.807 15.623 21.277-.12.143-.28.275-.4.417-.752-.609-1.463-1.209-2.215-1.818a827.16 827.16 0 01-.916-.992c-1.521-2.036-3.031-4.113-4.601-6.118-2.876-3.691-5.833-7.4-8.759-11.06-.612-.832-1.306-1.685-1.958-2.527zm207.094-62.154c-.18-1.028-.401-2.065-.581-3.093.382-.165.765-.329 1.106-.504.568 1.55 1.166 3.149 1.734 4.699.351-.215.703-.43 1.014-.654-1.032-1.576-2.155-3.131-3.087-4.768-.174-.342.244-1.012.371-1.537a559.48 559.48 0 013.851 5.68c1.114 1.767.958 4.897-.322 6.3-1.308-2.028-2.697-4.075-4.086-6.123zm-307.54 40.266c1.773-.428 4.888.495 6.596 1.934.825 1.013 1.61 2.016 2.426 3.069l1.006 2.04c-2.158-.992-4.782.13-6.155-2.342-1.284-1.594-2.579-3.147-3.873-4.701zm310.479-51.926c.735 1.034 1.501 2.117 2.236 3.151.329.764.658 1.528 1.223 2.735-.86-.336-1.215-.465-1.538-.543.361.986.682 1.963 1.033 2.989l-.452.276a20.406 20.406 0 01-1.178-.969c-1.081-1.374-2.193-2.798-3.273-4.172-.194-1.502-.348-2.994-.542-4.496l.724-.339c.579.439 1.198.889 1.767 1.368z" fill="#000"/><path d="M200.964 239.805l.916.991c-.372.124-.834.441-1.017.311-1.35-.968-2.831-1.924-3.951-3.136-1.934-2.094-3.648-4.391-5.463-6.626-.276-.452-.542-.945-.818-1.396-.423-1.087-.896-2.143-1.318-3.229.191-.082.391-.205.583-.287 1.693 2.206 3.285 4.474 5.079 6.619 1.876 2.336 3.962 4.509 5.989 6.753zm23.921 2.691c-1.69.619-3.4 1.319-5.132 1.757-.453.105-1.095-.606-1.662-.914-.624-.964-1.297-1.897-1.921-2.861 1.996-.289 3.941-.547 5.937-.835a76.938 76.938 0 002.778 2.853zm134.33 22.965c1.143.404 2.318.859 3.502 1.273l-.031-.05c2.533 3.693 5.066 7.386 7.629 11.129-.079.152-.149.264-.229.416-.894-.729-1.938-1.367-2.682-2.188-1.415-1.583-2.68-3.258-4.036-4.912-1.418-1.926-2.765-3.792-4.153-5.668zm-30.19-8.1c.102.11.244.23.346.34 2.114 3.121 4.188 6.233 6.302 9.354-.029.121-.058.243-.037.333-.933-.567-2.127-.941-2.79-1.743-1.935-2.265-3.62-4.683-5.496-7.019-.459-.582-1.078-1.031-1.597-1.541-.153-.251-.266-.493-.43-.703 1.104-.847 2.307-.514 3.702.979zm-27.363-4.723c-.615-1.175-1.199-2.301-1.814-3.476.12-.143.199-.295.319-.437 1.045.637 2.12 1.325 3.165 1.962l5.117 7.527c-.608.924-1.982.763-2.879-.309-.336-.381-.722-.731-1.058-1.112-.96-1.344-1.9-2.77-2.85-4.155zM42.434 174.876c.428.531.766 1.083 1.254 1.543 2.298 2.182 2.298 2.182.8 5.373a272.756 272.756 0 00-3.532-2.565c-.356-.3-.661-.63-1.017-.93-.256-1.774-.007-3.341 1.7-4.384l.795.963zm299.888 85.909c2.328 3.301 4.646 6.642 6.933 9.934-.616-.106-1.322-.02-1.849-.318-.649-.328-1.138-.96-1.667-1.43-2.325-2.958-4.619-5.866-6.944-8.824.19-.254.488-.781.609-.752.963.447 1.966.903 2.918 1.39zm-24.03-6.657c1.461 2.279 2.923 4.558 4.344 6.827.401.824.801 1.649 1.375 2.815-3.083-.702-3.411-3.777-5.41-5.073-1.428-1.885-2.846-3.811-4.234-5.687 1.325.362 2.61.715 3.925 1.118zm-24.573-6.188c1.122.314 2.214.578 3.337.892.449.622.898 1.244 1.338 1.906 1.217 2.049 2.435 4.098 3.744 6.297-1.443-.049-2.676-.261-3.485-1.697-.512-.894-1.234-1.625-1.846-2.458-1.104-1.636-2.076-3.283-3.088-4.94zm99.901-62.946c1.184 1.655 1.304 3.995.304 5.124-1.488-1.815-3.007-3.679-4.495-5.494.139-1.464.228-2.898.368-4.362 1.254 1.544 2.538 3.138 3.823 4.732zm-54.831 75.194c2.325 2.958 4.619 5.865 6.944 8.824.155.422.31.845.692 1.921-1.622-.905-2.748-1.562-3.883-2.178l.061.1c-2.226-3.191-4.492-6.391-6.718-9.582l-.213-.18c1.714-1.427 2.085.76 3.117 1.095zm40.681 19.962c-1.466.93-2.053-.538-2.986-1.106l.021.091c-1.928-2.477-3.815-4.944-5.742-7.421l-2.753-3.49 2.82.553c2.937 3.79 5.784 7.602 8.64 11.373z" fill="#000"/><path d="M379.465 280.15c-2.847-3.811-5.703-7.583-8.59-11.404 1.063.385 2.075.801 3.138 1.186.572.822 1.184 1.655 1.756 2.478 2.113 2.95 4.216 5.94 6.329 8.889-.029.122-.099.233-.119.314-.831-.457-1.652-.955-2.514-1.463zm-11.407-11.956l2.754 3.489c1.927 2.477 3.814 4.944 5.742 7.421l-.021-.09c-1.271 1.362-1.897.056-2.529-.696-2.273-2.817-4.487-5.706-6.75-8.563-.459-.582-1.038-1.021-1.597-1.541-.144-.292-.257-.533-.4-.825 1.073-.725 1.266-.636 2.801.805zM135.57 209.811l6.876 1.659 3.418 3.393c-1.079 1.281-2.005.329-2.938-.238-.446-.279-.753-.781-1.262-1.332.004.515.026.777.033 1.635-1.36-.928-2.385-1.646-3.45-2.374-.896-.901-1.781-1.843-2.677-2.743zm223.645 55.65c1.347 1.866 2.735 3.742 4.082 5.608.954 1.899 1.918 3.758 2.728 5.366-.183-.129-.821-.497-1.249-1.029-2.395-2.846-4.74-5.723-7.125-8.61-.52-.682-1.09-1.334-1.61-2.016 1.422-1.283 2.171.225 3.174.681zM56.937 200.077c-.128.354-.325.991-.365.981-.688-.166-1.566-.249-2.064-.669-2.827-2.651-5.585-5.414-8.352-8.136.13-.183.229-.416.359-.599l2.887 1.339 7.535 7.084zm-9.829-40.296c-.812-1.779-.056-3.138 1.246-4.278 1.12 1.211 2.24 2.423 3.37 3.595-.102 1.131-.123 2.282-.305 3.393-.02.081-.908.038-1.383.052l-2.928-2.762zm265.346 93.537c1.597 2.782 3.204 5.524 4.801 8.306-.03.122-.09.193-.119.314-.873-.639-1.906-1.145-2.569-1.947-1.864-2.205-3.579-4.502-5.343-6.768-.226-.483-.492-.975-.708-1.498 1.213.293 2.426.586 3.63.919.113.241.236.442.308.674zm-96.3-12.799c.624.964 1.297 1.897 1.921 2.86.043.353.036.737.079 1.09-.474.014-1.028.18-1.362-.03-.497-.248-.834-.8-1.452-1.078.134.332.277.624.607 1.388-.992-.325-1.67-.531-2.348-.738-1.04-1.364-2.071-2.768-3.152-4.142 1.919.207 3.838.413 5.707.65z" fill="#000"/><path d="M312.453 253.318c-.113-.241-.186-.473-.308-.674.737.135 1.485.23 2.182.356 1.428 1.885 2.847 3.811 4.234 5.687.687 1.236 1.363 2.512 2.049 3.748-.069.111-.108.273-.178.385-.731-.519-1.592-.855-2.112-1.537-1.989-2.578-3.898-5.307-5.867-7.965zm78.25-79.129c1.48 2.026 2.96 4.053 4.449 6.039.17 1.068 1.332 2.461-.824 2.883-1.409-1.967-2.827-3.893-4.276-5.869.203-1.021.407-2.042.651-3.053zm.357 27.779c.465 1.268.969 2.545 1.384 3.844.03.05-.674.308-1.025.523-1.286-1.766-2.562-3.572-3.848-5.338.05-1.271.141-2.534.191-3.806 1.113 1.596 2.185 3.182 3.298 4.777zm-1.333 14.23c.464 1.268.888 2.526 1.352 3.794l-.573.246c-.926-.951-1.862-1.861-2.828-2.822-.541-.773-1.123-1.555-1.664-2.328-.405-1.339-1.011-2.727.453-3.828 1.063 1.626 2.156 3.302 3.26 4.938zM47.483 162.826c.673.761 1.345 1.522 1.927 2.305.357.471.553 1.075.81 1.608-.15.092-.342.174-.502.307-1.027-.89-2.013-1.77-3.03-2.7-.1.061-.17.173-.27.234 1.08 1.202 2.2 2.414 3.269 3.657-.12.142-.29.315-.41.457-.71-.428-1.39-.806-2.099-1.234-.579-.439-1.158-.879-1.777-1.328-1.064-1.797-.756-3.606.829-4.85.468.541.866 1.022 1.253 1.544zm139.761 62.539c-.673 1.549-1.499.537-2.199.068-.66-.459-1.19-1.1-1.739-1.661-1.336-1.735-2.682-3.429-4.018-5.164 1.355-.829 2.319-.211 3.226.821 1.539 1.956 3.119 3.921 4.73 5.936zM293.72 247.94c1.013 1.657 2.035 3.273 3.048 4.93.371.946.752 1.851 1.123 2.797-.12.142-.231.244-.35.386-1.14-1.131-2.279-2.262-3.429-3.353l-3.192-5.393c.89.215 1.82.439 2.8.633zm94.326-13.614c.14 1.19.332 2.349.472 3.538a2.568 2.568 0 01-.534.086c-.866-1.023-1.742-2.005-2.567-3.017-.491-.803-1.023-1.617-1.514-2.42-.574-1.166-.806-2.335.448-3.273a409.26 409.26 0 013.695 5.086zm.261-6.4c.382 1.077.804 2.163 1.187 3.24a4.282 4.282 0 00-.533.256c-.487-.288-.983-.537-1.511-.835l-2.729-4.297c-.711-1.841-.664-2.215.307-3.222a190.302 190.302 0 003.279 4.858zm-95.59 25.765c-1.21 1.291-1.966.167-2.548-.615-1.53-1.996-2.909-4.084-4.339-6.141-.214-.351-.389-.693-.613-1.004 1.051.254 2.153.477 3.205.731l.368.602 3.989 6.527-.062-.1zM53.383 143.705c.885.941 1.78 1.842 2.575 2.804.367.431.514 1.066.76 1.639-.19.082-.35.215-.542.297-.558-.348-1.146-.747-1.704-1.096-.06.071-.13.183-.19.254.54.601 1.12 1.212 1.65 1.853-.12.143-.19.254-.31.396-1.167-.838-2.365-1.726-3.532-2.564l-.64-.54c.454-1.174.868-2.358 1.323-3.533.223.14.437.32.61.49z" fill="#000"/><path d="M389.724 216.198c-1.103-1.636-2.197-3.312-3.3-4.948-.199-.947-.368-1.844-.662-3.285 1.004.628 1.491.917 1.937 1.196l-.061-.101c.951 1.557 1.952 3.082 2.803 4.7.441.834.621 1.862.911 2.788-.201.123-.392.205-.593.328-.285-.24-.66-.459-1.035-.678zm-2.574 23.776c-.194.981 1.936 2.265-.379 2.991a273.26 273.26 0 01-3.112-4.133c-1.143-1.645-1.097-3.432.106-4.34a460.469 460.469 0 003.385 5.482zm-3.984 24.505c.506 1.449 2.081 2.728.641 4.435-.405-.27-.933-.568-1.41-.897-.796-1.134-1.583-2.308-2.379-3.442-.128-.887-.257-1.774-.428-3.014.8.407 1.216.636 1.601.815.692.68 1.333 1.391 1.975 2.103zm12.049-90.529l-3.925-6.083c.085-.707.211-1.405.296-2.112a350.781 350.781 0 013.66 4.522c.358.643.908 1.203 1.044 1.878.198.776.967 2.203-1.075 1.795zm-2.386 20.869c.239.786.528 1.54.726 2.316.021.09-.593.327-.935.502a588.466 588.466 0 01-4.24-5.133c-.068-.958-1.076-2.1.533-2.739 1.346 1.695 2.611 3.37 3.916 5.054zM61.663 125.886c.51.723 1.071 1.414 1.582 2.137-.11.102-.22.203-.34.346-.386-.179-.78-.317-1.206-.505-.559.721 2.495 1.544-.053 2.17-1.088-.99-2.135-1.971-3.223-2.961.154-.99.347-1.971.5-2.961.243.059.536.087.78.145.72.56 1.32 1.089 1.96 1.629zm125.579 99.478c-1.581-1.965-3.191-3.98-4.772-5.945 1.324-1.05 2.336-.635 3.124.711.694.852 1.346 1.695 2.049 2.506.494 1.147 1.028 2.303 1.522 3.449-.201.123-.361.256-.552.338-.468-.37-.945-.699-1.371-1.059zm-152.16-34.928c.437.319.833.629 1.27.948 2.725 2.541 5.46 5.042 8.144 7.573l-.061-.1c-.038.333-.116.657-.154.99-.587-.227-1.334-.322-1.792-.732-2.306-1.97-4.503-4.041-6.75-6.081-.355-.3-.78-.488-1.187-.757l.071.06c-.672-.762-1.203-1.575.46-1.901zm356.732-27.921c.073-1.01.176-1.97.248-2.979l4.113 6.899c.503.934 1.741 1.833.267 2.975l-4.628-6.895zm-83.378 95.74l-5.118-7.527.327-.82c.588.399 1.227.767 1.816 1.166l.092.15 4.401 8.895c.191-.082.413-.114.604-.196a32.208 32.208 0 00-2.122-1.668zm-97.35-14.466c-.909-.134-1.888-.156-2.739-.532-.546-.218-.936-.911-1.373-1.402-1.122-1.384-2.243-2.767-3.405-4.16 1.728-.953 2.637.422 3.654 1.352 1.285 1.595 2.569 3.189 3.863 4.742zM61.04 194.433c.694.852 1.387 1.704 2.13 2.525a373.836 373.836 0 003.632 4.815c-.12.142-.2.294-.32.436-.619-.449-1.308-.786-1.867-1.306-1.964-1.972-3.918-3.985-5.881-5.957-.194-.261-.428-.531-.622-.792 1.186-1.725 1.997-.117 2.928.279zm327.262 33.493c-1.113-1.596-2.175-3.222-3.288-4.818.083-.878-1.501-2.117.503-2.617l3.766 5.146c.159.937.318 1.874.541 3.255-.852-.548-1.187-.757-1.522-.966zm-209.06-9.328c1.336 1.735 2.682 3.429 4.018 5.164.195.433.4.825.636 1.267-.12.142-.209.335-.329.477-.771-.529-1.693-.965-2.304-1.626-1.395-1.493-2.67-3.127-4.004-4.691-.315-.29-.671-.59-.986-.88 1.1-1.189 1.986-.248 2.969.289zm92.177 28.283a9.032 9.032 0 00-.325.991c-.658-.287-1.426-.473-1.914-.933-.763-.74-1.356-1.654-2.009-2.496l-2.206-3.272c.911.305 1.821.611 2.742.876a148.19 148.19 0 003.712 4.834zm10.313 1.419a235.59 235.59 0 01-2.019-3.869c.079-.152.149-.263.269-.406.801.408 1.632.865 2.432 1.272.901 1.587 1.853 3.144 2.754 4.731.419.743.839 1.487 1.299 2.24-.11.102-.23.244-.34.346a137.35 137.35 0 00-2.224-1.779c-.744-.821-1.437-1.673-2.171-2.535z" fill="#000"/><path d="M285.159 250.068c-.901-1.587-1.852-3.143-2.753-4.73.94.184 1.88.368 2.811.592.214.352.389.694.613 1.005 1.006 2.04 2.052 4.09 3.314 6.663-.904-.689-1.452-1.078-1.98-1.548-.702-.64-1.344-1.351-2.005-1.982zm20.405 1.116l-.092-.15c1.343-1.132 2.12.083 3.084.701.226.483.482 1.015.708 1.498a872.193 872.193 0 004.621 7.279c-.07.111-.099.232-.169.344-.68-.549-1.471-.997-1.991-1.679-2.151-2.616-4.151-5.325-6.161-7.993zM78.65 199.84a214.648 214.648 0 012.47 3.421c-.079.152-.199.294-.278.446-.66-.459-1.39-.806-1.989-1.336-1.291-1.211-2.473-2.523-3.664-3.795-.357-.471-.673-.933-1.03-1.404-.246-.402-.451-.794-1.015-1.829 1.337.494 2.197.83 3.067 1.126.837 1.143 1.634 2.277 2.44 3.371zm74.914 14.699c.796 1.133 1.602 2.227 2.399 3.361-.13.182-.26.365-.38.507-1.491-.916-2.941-1.822-4.432-2.739-.764-.912-1.538-1.783-2.303-2.696 1.504-1.263 2.674-.082 3.88.594.306.331.571.652.836.973zm15.376 2.942c-.174-.342-.308-.674-.729-1.588 1.124.485 1.813.822 2.471 1.11 1.396 1.664 2.762 3.277 4.158 4.941-.2.294-.518.902-.558.893-.801-.408-1.582-.896-2.332-1.334-.969-1.304-2.01-2.668-3.01-4.022zm224.754-67.738c1.081 1.374 2.192 2.798 3.273 4.171.359.643.868 1.194 1.045 1.879.198.775.975 1.99-.831 2.025-1.297-1.897-2.594-3.793-3.851-5.68.114-.829-1.681-1.904.364-2.395zm2.476 16.692l-4.113-6.9c-.066-.615-.091-1.22-.166-1.795l.768.186c1.389 2.047 2.769 4.135 4.158 6.182-.064.798 1.855 2.246-.647 2.327zm-192.608 71.301c1.121 1.383 2.242 2.767 3.404 4.16.135.503.321.976.456 1.48-.16.132-.321.265-.531.428-2.957-2.469-4.762-5.986-7.278-8.862.17-.173.29-.315.461-.488 1.149 1.091 2.338 2.191 3.488 3.282zM58.11 194.154c.193.26.428.531.621.792l5.322 6.677c-.07.112-.149.264-.259.366-.588-.399-1.247-.686-1.735-1.147-1.913-2.002-3.736-4.026-5.61-6.019-.437-.491-1.096-.778-1.644-1.167l.031.05c1.349-1.686 2.27-.18 3.273.448zm166.774 48.342l-2.778-2.853c1.004-.614 2.008-1.227 2.972-1.851.764.912 1.538 1.784 2.302 2.696-.811.703-1.654 1.356-2.496 2.008zm165.167-65.254c1.408 1.966 2.827 3.892 4.276 5.868.308.674.576 1.338 1.079 2.444-.951-.315-1.386-.463-1.781-.601a377.685 377.685 0 00-3.863-4.742c.103-.96.216-1.96.289-2.969z" fill="#000"/><path d="M74.161 197.171c.357.472.674.933 1.031 1.405 1.052 1.495 2.103 2.99 3.42 4.806-.91-.306-1.81-.309-2.216-.749-2.007-2.325-3.935-4.802-5.832-7.229.12-.142.21-.335.33-.477 1.055.769 2.161 1.506 3.267 2.244zm307.83 51.958c.103-.96.175-1.97.279-2.929 1 1.354 2.009 2.668 3.009 4.022.321.976.642 1.952.882 2.909.021.091-.724.339-1.106.504-1.021-1.445-2.023-2.971-3.064-4.506zm-110.574-2.248c-1.244-1.584-2.478-3.209-3.722-4.793 1.472-1.314 2.309-.171 3.225.821l-.071-.06c1.056 2.01 2.071 4.01 3.198 6.079-.832-.629-1.726-1.358-2.63-2.047zm2.485-3.553c1.041.123 2.041.236 3.071.399 1.007 2.212 2.005 4.465 3.012 6.677-.12.142-.231.244-.35.386a199.371 199.371 0 00-3.105-3.275c-.859-1.406-1.728-2.771-2.628-4.187zM54.88 193.716l-.031-.05 6.632 7.635c-.03.122-.11.274-.138.395-.78-.317-1.55-.674-2.289-.98l.02.09a874.074 874.074 0 00-6.486-7.172l.071.059c-.012-.302.016-.595.013-.938.699.297 1.469.654 2.208.961zm320.929 78.704c-.572-.823-1.184-1.656-1.756-2.479.9.175 2.261.032 2.689.564 2.071 2.768 3.891 5.69 5.802 8.591.123.201.095.494.192 1.33a1308.613 1308.613 0 01-6.927-8.006zM42.434 174.876l-.795-.962c-.311-1.017-.734-2.104.919-2.39.67.59 1.351 1.14 2.022 1.73.367.431.654 1.014 1.14 1.302 1.259.818 1.387 1.705.256 2.844-1.177-.798-2.335-1.676-3.542-2.524zm51.753 28.329a154 154 0 01-2.427-3.068l.326-.82c.92.265 1.79.561 2.702.866 1.214 1.706 2.43 3.411 3.634 5.157-2.273.907-2.678-1.673-4.235-2.135zm194.611 44.019l-.368-.602c.799.235 1.648.44 2.447.676l3.193 5.393 1.017 2.172c-.07.111-.18.213-.25.325-.69-.51-1.431-.988-2.121-1.497l.061.101c-1.35-2.21-2.669-4.369-3.979-6.568zm100.445-21.597l-3.766-5.146c-.954-1.9-.896-2.314.279-2.929.848 1.275 1.687 2.59 2.534 3.865.44.662 1.091 1.333 1.258 2.058.228.654-.129 1.424-.305 2.152zm-220.301-8.146c1 1.354 2 2.708 3.051 4.032-1.419 1.798-1.892-.499-2.832-.683-1.294-1.554-2.578-3.148-3.832-4.692.838.074 1.696.067 2.495.303.435.147.732.69 1.118 1.04zm223.884-22.662l-3.916-5.054c-.371-.946-1.318-1.988.311-2.707 1.172 1.524 2.355 3.008 3.488 4.523.307.502.704.983.951 1.556.441.834.802 1.82-.834 1.682zm-307.658 3.383a374.89 374.89 0 013.873 4.702c.105.453.17.896.274 1.35a2.36 2.36 0 00-.45.447c-2.209-2.202-4.386-4.354-6.593-6.556l.06.101c.21-.335.488-.953.609-.924.728.176 1.488.573 2.227.88zm307.584-6.611c-1.173-1.524-2.356-3.008-3.488-4.523-.603-.873-1.124-1.726.171-2.484 1.489 1.815 3.007 3.679 4.496 5.494.096.665.182 1.371.383 2.489-.781-.488-1.146-.747-1.562-.976zM45.439 166.142c.579.439 1.158.879 1.777 1.328 1.615 2.53 1.615 2.53 1.04 3.846a87.44 87.44 0 01-2.638-1.835c-.408-.441-.815-.882-1.232-1.282-.117-.756-.275-1.521-.392-2.277.455.067.95.143 1.445.22zM365.245 267.43c.143.291.256.532.4.824 2.43 3.411 4.849 6.863 7.279 10.274-.06.071-.08.152-.14.223-.497-.419-1.055-.768-1.453-1.249-2.519-3.219-5.028-6.478-7.556-9.657-.327-.421-.763-.74-1.18-1.141l.03.051c1.391-1.505 1.79.389 2.62.675zm18.407-28.557a278.277 278.277 0 013.112 4.132c.148.806.326 1.662.424 2.499-.01.041-.645.187-1.007.271-1.144-1.646-2.247-3.282-3.391-4.928-.097-.836-1.208-2.089.862-1.974zm-1.827 31.702c.309.673.627 1.306.854 1.96.31.846.559 1.762.859 2.648-.191.082-.392.205-.583.287-.406-.269-.802-.579-1.208-.848-1.051-1.495-2.072-2.94-3.124-4.435l.537-2.225c.936.911 1.831 1.812 2.737 2.673l-.072-.06z" fill="#000"/><path d="M82.233 198.135c1.51 1.906 3.028 3.77 4.497 5.666-.12.142-.21.334-.33.476-.628-.408-1.367-.715-1.927-1.235-1.514-1.35-2.96-2.812-4.414-4.233l-.581-.782c-.155-.423-.36-.815-.515-1.237.12-.143.2-.295.31-.396 1.004.627 2.018 1.214 3.022 1.842.01-.041-.062-.101-.062-.101zm306.15-5.631a603.719 603.719 0 014.24 5.132c.24.957.52 1.923.75 2.921-.191.082-.332.134-.523.216-1.448-1.805-2.936-3.619-4.383-5.424-.062-.1-.093-.151-.164-.211.094-.919.087-1.776.08-2.634zm-134.788 46.308c1.221-1.332 1.957-.127 2.82.552 1.123 1.555 2.296 3.079 3.419 4.634-.748-.095-1.525-.068-2.173-.396-.618-.277-1.108-.909-1.636-1.379-.837-1.144-1.633-2.278-2.43-3.411zm138.217-76.298l4.628 6.895c.085.534.12 1.099.3 2.127-.742-.65-1.098-.95-1.484-1.3a343.93 343.93 0 01-3.66-4.521c.083-1.05.165-2.1.216-3.201z" fill="#000"/><path d="M259.792 243.988c-1.123-1.555-2.296-3.079-3.419-4.634 1.223-.989 2.046-.32 2.831.683.417.401.825.841 1.201 1.232a225.742 225.742 0 002.161 3.817c-.07.111-.14.223-.169.344-.882-.426-1.744-.934-2.605-1.442zm14.113-.66c.869 1.365 1.728 2.771 2.638 4.146.268.664.535 1.328.793 2.032-.12.143-.27.235-.39.377-.559-.52-1.229-.939-1.728-1.53-1.488-1.814-2.926-3.66-4.364-5.505 0 0 .071.06.031.05 1.21-1.291 2.106-.39 3.02.43zM79.474 198.027l.581.782c1.254 1.544 2.498 3.128 3.752 4.672l-.238.456c-.558-.349-1.186-.586-1.643-.996-1.129-1-2.157-2.061-3.275-3.101-.806-1.094-1.653-2.197-2.45-3.331.587.056 1.242 0 1.779.258.577.268.996.84 1.494 1.26zm83.092 20.696c.093.323.197.604.29.926-.12.143-.28.275-.41.458-.761-.569-1.573-1.107-2.275-1.748-1.016-.93-2.004-1.981-2.97-2.942-.225-.311-.5-.592-.724-.903 1.532-1.385 2.461-.09 3.488.799.846 1.104 1.724 2.257 2.601 3.41zM56.933 200.077l-7.535-7.084c.665-.096 1.32-.323 1.936-.217.454.067.842.588 1.278.908l-.07-.06a890.83 890.83 0 006.486 7.172l-.02-.09c-.679-.207-1.397-.423-2.075-.629zm324.885 70.497l.062.101c-.725-1.074-1.682-2.076-2.126-3.253-.279-.795.156-1.888.25-2.807.796 1.134 1.583 2.308 2.379 3.442.304 1.4 2.441 2.301 1.014 4.311-.53-.642-1.029-1.233-1.579-1.794zm-277.913-65.067c-.585.116-1.268.464-1.784.297-.547-.217-.946-.87-1.434-1.33a242.737 242.737 0 00-2.76-3.106c1.092-.978 1.658-.841 3.205.73.927 1.123 1.845 2.286 2.773 3.409zm194.452 45.221c-.449-.622-.898-1.244-1.338-1.906 1.216-.606 1.783-.469 2.498.645.685 1.064 1.42 2.098 2.105 3.162.95 1.385 1.89 2.81 2.839 4.195.013.303.066.615.069.958-.497-.248-1.204-.333-1.49-.745-1.123-1.555-2.044-3.232-3.117-4.818-.368-.603-1.038-1.021-1.566-1.491zm-44.766-11.917l2.389 3.402c.124.372.248.745.413 1.127-2.226.533-2.508-1.847-3.876-2.562-.693-.852-1.396-1.664-2.089-2.516 1.34-1.474 2.188-.199 3.163.549zm-3.549 1.927l.28.966c-.129.183-.209.335-.339.518-1.055-.769-2.171-1.466-3.126-2.296-.783-.66-1.395-1.492-2.067-2.254l-.399-.652c.32-.265.7-.773.942-.714.678.206 1.307.615 1.915.933a267.135 267.135 0 002.794 3.499zm134.632-14.418l2.729 4.297c.378.562.978 1.092 1.053 1.667.106.625-.281 1.344-.447 2.032-1.215-1.706-2.48-3.381-3.695-5.086-.351-1.027-1.077-2.101.36-2.91zm-219.385-10.191c1.294 1.553 2.579 3.147 3.832 4.691-.919 1.148-1.622.336-2.283-.294-.519-.51-.977-1.092-1.486-1.643-.959-1.173-1.886-2.296-2.844-3.468.92.265 1.851.489 2.781.714zM38.642 182.606c-.331-.936-1.319-1.987.514-2.487.763.741 1.526 1.481 2.33 2.232.539.601 1.079 1.202 1.568 1.834.745.993.589 1.64-.763 1.742-1.23-1.11-2.42-2.211-3.65-3.321zM211.09 243.79c-1.285-1.594-2.579-3.148-3.863-4.742l3.276.791c1.04 1.364 2.071 2.768 3.152 4.142a63.542 63.542 0 01-2.565-.191zm176.484-42.792c1.286 1.765 2.562 3.571 3.848 5.337.29.926.571 1.892.861 2.819l-.423.154c-.845-.931-1.721-1.913-2.566-2.845-.706-1.155-1.371-2.3-2.077-3.454l.357-2.011zm-4.777 39.809c1.144 1.645 2.247 3.281 3.39 4.927.236.442.714.943.688 1.407-.017.424-.579.802-.939 1.229-1.134-1.686-2.258-3.413-3.392-5.099.115-.828.179-1.626.253-2.464zm-206.521-22.498c.316.291.671.59.986.88 1.094 1.677 2.178 3.394 3.271 5.07-.07.112-.13.183-.159.304-.852-.548-1.714-1.056-2.566-1.604l.071.06c-1.317-1.816-2.683-3.601-4-5.417.089-.192.209-.334.298-.527.701.469 1.38.847 2.099 1.234z" fill="#000"/><path d="M162.491 215.495c.958 1.173 1.886 2.295 2.844 3.468.216.523.423 1.087.639 1.61-.07.111-.18.213-.25.325-1.065-.728-2.1-1.406-3.166-2.134a4495.5 4495.5 0 00-2.632-3.46c.978-1.391 1.755-.176 2.565.191zm-16.63-.631l-3.418-3.393c1.464-1.102 2.483.171 3.688.676.286.411.613.833.899 1.244.683.893 1.366 1.785 2.04 2.718l-.238.456a99.707 99.707 0 00-2.971-1.701zM281.734 248.3c.693.852 1.427 1.714 2.12 2.566-1.18 1.342-2.015.37-2.649-.554-1.45-2.147-2.831-4.407-4.231-6.585 1.269-.293 1.99.266 2.575 1.392.624 1.135 1.46 2.107 2.185 3.181zm-53.585-12.763c.103-.959.196-1.879.347-3.212.721.559 1.127.829 1.523 1.138 1.059 1.112 2.107 2.264 3.166 3.375-.554.166-1.106.504-1.641.417-.788-.104-1.539-.542-2.328-.818-.315-.29-.671-.59-1.067-.9zM53.154 201.046c-3.654-2.594-6.298-6.357-9.883-9.062.08-.152.17-.345.29-.487.596.187 1.313.232 1.73.632 2.798 2.772 5.485 5.647 8.233 8.45-.12.142-.24.285-.37.467zm82.978 11.212c-1.077 1.624-2.368.413-3.059-.096-1.3-.998-2.18-2.495-3.29-3.747l.389-.548c1.288.696 2.565 1.432 3.893 2.138.682.721 1.354 1.482 2.067 2.253zm252.218-17.15c.072.06.092.151.164.211 1.185 1.827 2.38 3.613 3.516 5.471.429.703.718 1.457 1.047 2.221-.201.123-.361.256-.562.378-.488-.46-1.007-.97-1.495-1.431-1.073-1.585-2.186-3.181-3.258-4.766.206-.678.422-1.397.588-2.084zm-7.134 59.012c.064-.797.169-1.585.233-2.383 1.01 1.314 2.02 2.627 2.989 3.931.494 1.147 2.46 2.221.211 3.561a211.835 211.835 0 00-3.433-5.109z" fill="#000"/><path d="M384.486 255.638a305.831 305.831 0 01-2.989-3.932c.165-.859.37-1.708.534-2.567 1.002 1.525 2.053 3.02 3.055 4.546.339.724.668 1.488 1.161 2.635-.941-.356-1.376-.504-1.761-.682zM243.04 237.676c.45.794.85 1.618 1.301 2.412-.12.142-.2.294-.31.396-.842-.589-1.735-1.147-2.517-1.806-.884-.77-1.618-1.632-2.442-2.473-.356-.3-.752-.609-1.108-.909 1.433-1.324 2.412-.06 3.507.546.53.642 1.029 1.233 1.569 1.834zM63.06 116.55c-.251-1.088-.512-2.135-.763-3.223.191-.082.372-.124.563-.206.447.278.852.548 1.309.786l-.062-.1c.601.701 1.293 1.382 1.743 2.175.328.593.305 1.401.482 2.085-.647-.156-1.264-.262-1.891-.499-.355-.128-.66-.459-.995-.668a4.588 4.588 0 00-.386-.35zm-24.423 66.056c1.19 1.1 2.42 2.211 3.609 3.311.096.665.142 1.361.293 2.51a469.056 469.056 0 01-4.866-3.956l.061.1c-.482-1.015-1.31-2.199.903-1.965zm117.797 31.898c.224.311.499.592.724.903.837 1.143 1.683 2.247 2.52 3.39-.13.183-.209.335-.339.518-1.035-.678-2.079-1.315-3.045-2.105-1.005-.799-1.841-1.771-2.776-2.682l-.795-.962c1.253.303 2.507.605 3.711.938zm222.223 55.693c1.052 1.495 2.073 2.94 3.124 4.435.443 1.006.875 2.052 1.357 3.067-.241.113-.442.236-.683.349-1.623-2.318-3.297-4.605-4.92-6.923-.164-.211-.066-.615-.119-.928.393-.033.817-.017 1.241 0zM34.57 192.368c2.3 2.353 4.631 4.756 6.93 7.109-.069.111-.098.232-.168.344-.598-.358-1.297-.655-1.835-1.085a348.584 348.584 0 01-5.963-4.735l.031.05c-.169-.896-.713-2.012 1.077-1.623-.04-.01-.071-.06-.071-.06zm33.294 3.755c-.155-.423-.27-.836-.56-1.762 1.034.507 1.903.631 2.372 1.172 1.966 2.315 3.782 4.722 5.648 7.099-.12.142-.24.284-.32.436-.538-.429-1.086-.819-1.574-1.279a598.6 598.6 0 01-5.547-5.747c-.05.031-.019.081-.019.081zm312.878 63.148c-.342-1.067-1.057-2.181.389-3.031l2.51 3.431c.483 1.015.915 2.061 1.398 3.077-.151.092-.261.194-.402.245-.986-.88-1.982-1.719-2.927-2.59-.336-.38-.632-.751-.968-1.132zm-115.825-18.069c.726 1.074 1.482 2.198 2.207 3.272.329.764.627 1.478 1.1 2.534-2.559-.746-3.054-3.306-4.7-4.644a47.962 47.962 0 00-1.114-1.767c.818.154 1.658.4 2.507.605z" fill="#000"/><path d="M262.418 240.556c.369.603.737 1.205 1.115 1.767.565 1.207 1.17 2.423 1.745 3.589-.12.142-.23.244-.35.386-1.518-1.693-3.005-3.336-4.522-5.029-.417-.4-.824-.841-1.201-1.232 1.282-1.231 2.18.013 3.213.519zm-12.374.182c-.958-1.173-1.876-2.337-2.834-3.509 1.387-.607 2.499-.424 3.217 1.033.693.852 1.396 1.664 2.089 2.516.238.614.484 1.187.722 1.8-.07.112-.19.254-.26.366-.984-.709-1.959-1.458-2.934-2.206zm138.288-19.312c-.848-1.274-1.686-2.589-2.534-3.864-.852-1.79-.843-1.83.202-2.434.541.773 1.123 1.555 1.664 2.328.715 1.114 1.45 2.148 2.075 3.283.338.552.474 1.227.339 1.965-.579-.439-1.167-.838-1.746-1.278zm-5.742 21.855c1.134 1.686 2.258 3.413 3.392 5.099.217.695.475 1.399.806 2.335a23.98 23.98 0 01-1.508-.493c-1-1.354-2.01-2.668-3.01-4.022.104-.959.207-1.919.32-2.919zM47.479 162.825c-.388-.522-.826-1.013-1.214-1.534-.279-.795-.771-1.77.836-1.511l2.928 2.762c.299.714.638 1.438.936 2.152-.16.132-.351.214-.512.347a83.781 83.781 0 00-2.974-2.216zm340.198 46.245l.061.101c-.484-1.187-2.58-2.078-.727-3.728l2.636 3.975c.44.662.92 1.334 1.309 2.027.287.583.474 1.228.329 2.006-1.193-1.443-2.416-2.937-3.608-4.381zm-277.869-2.481c-.949 1.269-1.733.438-2.474-.212-.631-.58-1.302-1.17-1.932-1.75-.367-.431-.764-.912-1.131-1.343-.094-.322-.187-.645-.548-1.631 1.358.756 2.26 1.274 3.163 1.791a131.934 131.934 0 012.922 3.145zm65.061 15.405c-1.396-1.664-2.761-3.278-4.157-4.942 1.307-.626 2.038-.107 2.844.986 1.286 1.766 2.873 3.348 4.309 5.021l-.071-.06c-.534.085-1.157.363-1.623.165-.507-.208-.885-.77-1.302-1.17zM66.405 106.23c.142-1.121-1.685-2.418.346-3.383.773.871 1.588 1.753 2.362 2.625.216.523.473 1.055.69 1.578l-1.633.377c-.598-.359-1.177-.798-1.765-1.197z" fill="#000"/><path d="M389.653 209.417l-2.636-3.975c.064-.798.138-1.636.202-2.434.705 1.155 1.371 2.3 2.076 3.455.991 1.395 2.012 2.839 3.002 4.234-.211.163-.412.286-.622.449-.671-.59-1.352-1.139-2.022-1.729zM54.347 139.872c-.664-.973-1.005-1.869.688-2.145l2.565 2.674c.32.804.608 1.559.928 2.363-.15.093-.332.134-.483.226-1.015-.758-1.98-1.548-2.995-2.306a8 8 0 01-.703-.812zm134.479 81.04c-.051-.141-.143-.292-.195-.433.937-1.4 1.734-.266 2.524.182l1.628 2.832c.381.905.711 1.841 1.092 2.746-.141.052-.251.154-.392.205-1.569-1.834-3.088-3.698-4.657-5.532zM56.63 132.547c-.21-.907-.732-1.932.963-1.865.947 1.042 1.925 2.134 2.872 3.176.027.777 1.44 2.188-.892 1.924-1.019-1.101-1.996-2.193-2.943-3.235zm-5.133 14.17l.64.54c.846.932 1.621 1.975 2.586 2.764.925.78.95 1.385.119 2.169-1.158-.879-2.306-1.798-3.463-2.676-.038-.908-2.105-1.921.118-2.797zM71.368 99.68c.493.975.904 1.931-.616 2.377l-2.531-2.28c-.311-1.017-1.037-2.091.38-2.819.946.87 1.882 1.78 2.767 2.722zm26.563 101.688c.907 1.032 1.853 2.074 2.76 3.106.074.403.148.806.359 1.884-.985-.708-1.684-1.005-2.193-1.556-1.395-1.493-2.73-3.056-4.064-4.619 1.053.425 2.116.81 3.138 1.185z" fill="#000"/><path d="M51.42 149.524c1.158.878 2.306 1.798 3.463 2.676l-.37 1.537a54.28 54.28 0 00-2.373-1.343c-.62-.449-1.248-.858-1.827-1.297-.025-.605-.08-1.261-.106-1.866l1.213.293zm-9.933 32.827c-.762-.74-1.525-1.481-2.329-2.231.278-.618.505-1.205.783-1.823.355.3.66.63 1.017.93.845.932 1.74 1.833 2.535 2.795.326.421.492.975.718 1.457-.15.092-.301.184-.461.317-.74-.478-1.522-.967-2.263-1.445zM60.52 121.93c-.736-1.034-.581-1.852.544-2.437.45.622.889 1.285 1.379 1.916.468.542.917 1.164 1.436 1.674.967.961.73 1.589-.417 2.082-1.018-1.102-2.006-2.153-2.943-3.235zm55.203 83.562c1.097-1.533 1.827.056 2.697.351.643.883 1.326 1.776 1.979 2.618-.24.285-.619.792-.731.723-.841-.417-1.572-.936-2.403-1.394-.501-.762-1.001-1.525-1.542-2.298zm-64.006-46.394a234.63 234.63 0 00-3.37-3.596c-.094-.493-.148-.977-.277-1.864a76.93 76.93 0 011.753.894c.479.5.957 1.001 1.395 1.492.459.582.978 1.092 1.346 1.694.664.974.446 1.521-.847 1.38zm1.666-15.394c-.214-.18-.387-.35-.6-.53-.027-.777-.823-1.911.852-1.934l2.992 3.033c.206.563.443 1.177.65 1.741l-.402.245c-1.077-.859-2.285-1.707-3.492-2.555zm50.858 59.53c.367.431.764.912 1.131 1.343.359.643.717 1.286 1.085 1.888-.069.112-.108.274-.178.385-.791-.447-1.622-.905-2.413-1.352-.918-1.164-1.845-2.286-2.763-3.449.575-.076 1.248-.384 1.674-.196.618.278 1.016.931 1.464 1.381zm276.503 56.037c.336.381.632.752.968 1.133.764.912 1.528 1.824 2.233 2.807.388.522.625 1.135.912 1.718l-.481.398-1.218-.808c-.641-.711-1.293-1.382-1.934-2.093-.211-1.078-2.477-1.796-.48-3.155zm-142.79-23.935c.355.3.752.61 1.107.91.573.994 1.156 1.948 1.73 2.942l-.21.335c-.842-.589-1.735-1.146-2.577-1.735-.876-.982-1.782-2.014-2.658-2.996.23-.244.549-.68.63-.661a34.64 34.64 0 011.978 1.205zM58.508 127.052c1.087.99 2.135 1.971 3.223 2.961.086.705.173 1.411.272 2.42-.974-.578-1.572-.936-2.21-1.304-.48-.501-.917-.992-1.405-1.452-.33-.936-1.781-1.843.12-2.625zM387.15 239.974c-1.145-1.817-2.24-3.665-3.385-5.482.035-.677.07-1.353.145-2.02.491.803 1.022 1.617 1.513 2.42.788 1.346 1.586 2.651 2.364 4.037.349.684.738 1.377-.637 1.045z" fill="#000"/><path d="M60.519 121.93c.988 1.051 1.965 2.143 2.912 3.185.055.484.109.968.205 1.633l-1.925-.892c-.64-.54-1.28-1.08-1.91-1.66-.138-.847-1.187-1.999.718-2.266zm8.928-26.523c-.32-.976-1.107-2.15.964-1.864.62.62 1.282 1.25 1.912 1.83.431.875 1.661 1.985-.546 2.266-.763-.74-1.567-1.491-2.33-2.232zm40.365 111.183c-.988-1.052-1.925-2.134-2.912-3.186.655-.055 1.39-.263 1.987-.076.557.177.946.87 1.403 1.28l-.061-.1c.482 1.015.975 1.99 1.611 3.256-.68-.378-1.349-.796-2.028-1.174zm-47.365-85.181c-.45-.622-.889-1.284-1.379-1.916.238-.627.505-1.205.742-1.832.235.27.479.5.713.771.622.792 1.294 1.554 1.816 2.407.347.512.504 1.106.75 1.679-.15.092-.341.175-.492.267-.7-.469-1.44-.947-2.15-1.376zm3.96-15.179c.589.399 1.168.838 1.756 1.237.218.694.567 1.378.613 2.074.032.222-.632.489-.993.745l-2.565-2.674c-.484-1.187-.359-1.884 1.19-1.382zm-28.313 81.295c-.173-.17-.355-.3-.528-.47-.256-.361-.561-.692-.766-1.084-.594-1.085-.457-1.651.937-1.4l-.061-.1c1.12 1.212 2.28 2.433 3.38 3.726.367.431.533.985.388 1.763-1.127-.829-2.213-1.647-3.35-2.435zM78.063 70.522c-.347-.512-.735-1.033-1.082-1.545l.36-.427c.973.578 1.997 1.124 2.97 1.702.62.62 1.282 1.25 1.902 1.871l-.302 1.254c-.385-.178-.83-.286-1.155-.535-.934-.74-1.8-1.59-2.683-2.36-.072-.06-.01.04-.01.04zm155.156 166.326c-1.059-1.112-2.108-2.264-3.166-3.375 1.139-1.352 1.867.065 2.768.411.409.612.868 1.194 1.276 1.806.359.643.677 1.276 1.045 1.879-.12.142-.199.294-.319.436-.549-.389-1.056-.768-1.604-1.157zm-86.188-23.457c-.286-.412-.613-.833-.899-1.244 1.265-.808 2.058-.189 2.752.835.764.912 1.539 1.784 2.303 2.696.155.422.36.814.514 1.237-.11.102-.179.213-.29.315a302.147 302.147 0 00-4.38-3.839zM68.234 99.737l2.53 2.28c.067.615.132 1.23.23 2.067a38.644 38.644 0 01-1.55-.674c-.61-.661-1.212-1.362-1.863-2.033-.076-.575-.181-1.2-.257-1.774.293.028.617.106.91.134z" fill="#000"/><path d="M234.096 235.69c-.408-.612-.867-1.193-1.276-1.806.871.296 1.691.622 2.561.918.876.982 1.782 2.014 2.658 2.996-.177 1.797-1.125.584-1.521.274-.894-.729-1.628-1.591-2.422-2.382zM56.629 132.547c.977 1.092 1.965 2.144 2.943 3.236.83 1.699.811 1.779-.448 2.032l-2.2-2.586c-1.057-2.01-1.057-2.01-.295-2.682zm66.986 74.465c1.94-.945 2.551.958 3.688 1.746l-.061-.101c.45.794.891 1.628 1.341 2.421-.029.122-.099.233-.118.314-.812-.538-1.624-1.076-2.445-1.574-.805-.922-1.6-1.884-2.405-2.806zm-58.408-99.359l2.565 2.673c.4.825 1.426 1.714-.417 2.083-.857-1.063-1.682-2.076-2.539-3.138.046-.546-1.242-1.413.39-1.618zm-20.82 60.546a29.7 29.7 0 001.231 1.282l2.477 3.038c-.16.132-.28.274-.44.407-1.514-1.179-3.067-2.367-4.52-3.616-.173-.171-.15-.978-.04-1.08.373-.124.858-.007 1.292-.031zm.151 5.045c-.67-.59-1.351-1.14-2.022-1.73-.044-.524-.12-1.099-.164-1.623.15-.092.332-.134.482-.226 1.576 1.45 3.183 2.951 4.759 4.402-.18.213-.35.386-.53.599a98.18 98.18 0 01-2.525-1.422zm339.151 86.396l-2.511-3.431c.045-.717.039-1.403.084-2.12 1.134 1.686 2.308 3.382 3.442 5.069.226.482.411.955.637 1.437-.141.052-.241.113-.392.205-.426-.359-.843-.76-1.26-1.16zM75.18 87.247c.29.755.973 1.647-.518 1.972-.813-.71-1.586-1.41-2.4-2.12-.613-1.004-.62-1.862.587-2.426.783.83 1.557 1.702 2.332 2.574zm-24.87 63.85c.618.449 1.247.858 1.826 1.297.469.541 1.028 1.061 1.396 1.664.246.402.381.905.526 1.368-.15.092-.291.144-.442.236-1.27-1.12-2.591-2.209-3.852-3.37-.285-.24-.28-.795-.434-1.217.343-.003.636.025.98.022zm62.367 53.531c.725 1.074 1.451 2.148 2.135 3.212l-.238.456c-.66-.459-1.339-.837-1.939-1.367-.843-.76-1.627-1.591-2.421-2.382l.062.1c-.084-.362-.178-.684-.346-1.581 1.125.657 1.987 1.164 2.809 1.662.009-.04-.062-.1-.062-.1zm80.115 18.865l-1.628-2.832c1.17-.06 2.34-.12 3.551-.171.092.151.134.332.226.483-1.308.455-.12 2.625-2.149 2.52z" fill="#000"/><path d="M75.184 87.247c-.774-.872-1.558-1.703-2.332-2.575.166-.687.322-1.334.528-2.012l2.322 2.615c.208.735 1.337 1.735-.518 1.972zm-7.603 14.129c.61.661 1.212 1.362 1.863 2.033.225.311.49.632.664.974.134.331.168.725.251 1.087-.433.024-.817.017-1.25.041-.775-.872-1.59-1.753-2.363-2.625-.198-.775-.812-1.78.835-1.51zm9.898-24.704c-.013.939 2.545 1.514.406 2.752-.733-.69-1.455-1.421-2.187-2.112-1.083-1.545-1.034-1.747.376-2.091.488.46.967.96 1.405 1.451zm58.654 135.586a92.545 92.545 0 00-2.067-2.253c-.013-.303.015-.596-.007-.858.496.248 1.002.456 1.499.704.895.901 1.781 1.843 2.676 2.744.094.322.197.603.29.926-.069.111-.189.253-.259.365a44.774 44.774 0 00-2.132-1.628zm-20.407-6.766c.541.772 1.041 1.535 1.583 2.308-.32 1.678-.964.623-1.452.163-1.069-1.071-2.117-2.223-3.176-3.334l.031.05c1.502-1.435 2.092.376 3.014.813zm111.653 34.996c-.764-.912-1.538-1.783-2.303-2.695.543-.298 1.035-.564 1.578-.861.641.711 1.242 1.413 1.894 2.084-.38.507-.759 1.015-1.169 1.472zM64.923 111.822c.787 1.175 1.614 2.359 2.4 3.533-.11.102-.23.244-.34.346a99.96 99.96 0 01-2.841-1.884l.061.1c-.316-.462-.926-.951-.9-1.415.047-.546.598-1.055.937-1.572.184.301.418.572.683.892zm4.524-16.415c.804.75 1.567 1.491 2.37 2.241.046.696 1.67 1.773-.407 2.042-.936-.91-1.822-1.852-2.757-2.763.257-.537.506-1.033.794-1.52zm50.994 113.064a109.788 109.788 0 00-1.979-2.618c.616.106 1.303.1 1.84.358.536.258.924.78 1.382 1.19l-.062-.101c.501.763.992 1.567 1.493 2.329-.08.152-.15.264-.229.416-.852-.548-1.633-1.036-2.445-1.574z" fill="#000"/><path d="M228.537 239.056c-.642-.712-1.243-1.413-1.894-2.084-.426-1.429.217-1.788 1.492-1.395.355.3.752.61 1.107.91-.164.859 1.431 2.228-.705 2.569zm-104.918-32.044c.795.962 1.6 1.884 2.435 2.856-.614 1.479-1.227.475-1.796-.005-.915-.82-1.739-1.661-2.645-2.522l.062.101c-.084-.363-.218-.695-.456-1.48.931.396 1.671.703 2.4 1.05zM56.893 135.18l2.201 2.585c.175.342.38.734.554 1.075-.1.062-.21.164-.27.235-1.127-.829-2.295-1.667-3.412-2.536-.173-.17-.356-.3-.529-.47-.085-.534-.21-1.078-.39-2.106a24 24 0 001.846 1.217zm-1.479.97c.173.17.356.3.529.47.814.881 1.629 1.763 2.353 2.665.295.371.44.834.636 1.266-.465-.026-.92-.093-1.424-.129l-2.565-2.674c.015-.596-1.264-1.503.471-1.598zm71.888 72.608c-.083-.363-.117-.756-.242-1.3 2.556.403 2.88 2.964 4.644 3.989-.13.183-.219.375-.349.558-.517-.339-1.095-.607-1.602-.986-.854-.72-1.678-1.561-2.522-2.321.01-.04.071.06.071.06zm63.293 21.181c.276.452.543.944.819 1.396 1.287 1.937 2.564 3.915 3.852 5.852-2.426-1.655-4.059-3.933-5.02-6.69-.092-.151.219-.375.349-.558zm-157.06-35.938c1.72 1.742 3.4 3.474 5.22 5.326-.423-.017-.977.149-1.221-.081-1.483-1.128-2.915-2.287-4.277-3.558-.204-.22.172-1.071.269-1.647.04.01.01-.04.01-.04zm24.863-64.364c.478.5.916.991 1.404 1.451.419.572.938 1.083 1.215 1.706.082.191-.378.679-.587 1.014-.947-1.042-1.925-2.134-2.872-3.176a62.182 62.182 0 01-.566-1.378c.597.187 1.002.285 1.406.383zm184.638 108.039c-.54-.601-1.04-1.192-1.579-1.793 1.555-1.123 1.983.65 2.905 1.086l.399.653c.532.985 1.015 2 1.548 2.984-.06.072-.11.102-.13.183-1.088-.99-2.116-2.051-3.143-3.113zM77.41 72.162c-.358-.643-.717-1.286-1.025-1.96.11-.101.22-.203.37-.295.467.198.882.427 1.348.624l-.061-.1c.683.893 1.376 1.745 2.01 2.668.183.301.217.695.3 1.057-.373-.047-.737-.135-1.07-.173a29.07 29.07 0 01-1.872-1.821zm-12.482 39.66c-.234-.27-.459-.581-.733-.862-.218-.694-1.053-1.666.612-1.649.856 1.062 1.682 2.075 2.538 3.138.105.453.24.956.46 1.822a89.128 89.128 0 00-2.877-2.449zm17.248-39.709c-.62-.62-1.282-1.25-1.903-1.871.271-.235.6-.712.802-.663.719.216 1.458.523 2.027 1.003.396.31.583.954.859 1.406-.605.025-1.17.06-1.785.125zM33 196.054c1.097.949 2.164 1.849 3.262 2.799-.09.192-.148.435-.237.627-1.073-.344-2.225-.537-3.117-1.094-.406-.27-.314-1.36-.441-2.076.16-.132.351-.214.533-.256zm39.32-100.68a65.111 65.111 0 00-1.913-1.831c-.115-.585-.281-1.138-.397-1.723.404.098.859.165 1.263.262.479.501.957 1.002 1.476 1.512-.47.529 2.103 1.75-.43 1.78zm-15.614 48.919l-2.992-3.033c-.657-1.357-.587-1.469.635-1.388.234.271.469.541.663.802.764.912 1.578 1.794 2.302 2.696.724.902.444 1.177-.608.923z" fill="#000"/><path d="M77.413 72.162c.58.61 1.2 1.231 1.78 1.842.207.564.404 1.168.61 1.731-.1.061-.21.163-.27.234-1.037-.849-2.073-1.698-3.119-2.507l.061.1c-.094-.493-.23-.997-.325-1.49.424.016.839.073 1.263.09zm-2.585 9.992c-.28-.795-.518-1.58-.797-2.375.802.579 1.714 1.056 2.356 1.767.438.49.586 1.297.442 2.247-.67-.59-1.392-1.15-2.063-1.74l.062.1zm-2.073 11.44c-.479-.5-.957-1.001-1.476-1.512-.257-.533-.544-1.116-.8-1.648.424.016.838.074 1.262.09.59.57 1.18 1.141 1.73 1.702.094.493.239.957.334 1.45-.334-.037-.667-.075-1.05-.082zM51.26 156.033a60.2 60.2 0 01-1.394-1.492c-.428-.531-.897-1.073-1.315-1.644.21-.164.462-.317.682-.521 1.545 1.401 3.04 2.832 4.586 4.232-.17.173-.3.355-.47.528a36.548 36.548 0 01-2.088-1.103zm21.047-68.924c.813.71 1.585 1.41 2.399 2.12.073.403.138.846.203 1.461-.73-.347-1.226-.596-1.772-.813-.397-.31-.823-.67-1.22-.98-.207-.734-1.455-1.592.39-1.788z" fill="#000"/><path d="M71.931 88.817c.397.31.823.67 1.22.979.356.471.764.912 1.07 1.414.491.803.415 1.299-.708.985l-1.77-1.711c-.247-.574-.453-1.137-.7-1.71.293.028.586.055.888.043zm-9.411 29.614c-.235-.27-.479-.5-.713-.771-.822-1.739.312-1.294 1.252-1.11l.427.36 2.142 4.069a126.296 126.296 0 00-3.109-2.548zm13.216-41.108c.733.69 1.455 1.42 2.187 2.111.084.363.117.756.223 1.38-1.085-.646-2.088-1.102-2.86-1.802-.396-.31-.433-1.046-.599-1.6.353-.043.697-.046 1.05-.09zm1.741-.651c-.438-.49-.926-.95-1.364-1.442.056-.586-1.607-1.5.36-1.668l-.062-.1c.99 1.223 1.938 2.436 3.324 4.14a56.514 56.514 0 00-2.258-.93zm-1.775 8.603L73.38 82.66c-.043-.353-.036-.736-.052-1.382.68.378 1.085.647 1.5.876l-.06-.1c.51.722 1.101 1.464 1.511 2.247.083.192-.368.64-.577.974zm199.439 141.403l9.636 8.489c-.13.183-.29.315-.42.498-3.202-2.87-6.414-5.7-9.576-8.561.13-.182.25-.324.36-.426zm-27.97-25.455c3.295 3.02 6.599 6.001 9.893 9.022-.23.244-.46.488-.681.691-3.033-3.214-6.097-6.479-9.212-9.713.051-.031 0 0 0 0zm-8.653 3.945c2.684 2.531 5.329 5.053 8.013 7.584-.119.142-.28.275-.4.417-2.754-2.42-5.669-4.707-7.563-8.032l-.05.031zm113.403 65.508c-1.743-2.175-3.527-4.361-5.271-6.536.161-.133.371-.296.532-.429 1.633 2.278 3.307 4.565 4.94 6.843l-.201.122zm8.596 3.403c-1.997-2.366-3.994-4.731-5.982-7.137.211-.163.371-.295.582-.459 1.887 2.467 3.764 4.975 5.651 7.442a.502.502 0 00-.251.154zM44.48 198.998c-2.724-2.541-5.46-5.042-8.144-7.573 2.695 2.491 5.42 5.032 8.145 7.573zm291.465 60.204c2.226 3.191 4.493 6.391 6.719 9.582a1607.38 1607.38 0 01-6.719-9.582zm-1.935.56c2.11 2.607 4.23 5.173 6.34 7.78-.16.132-.371.295-.531.428l-6.331-7.82c.161-.133.321-.265.522-.388zm42.533 19.383c-1.928-2.477-3.815-4.944-5.742-7.421 1.937 2.436 3.814 4.944 5.742 7.421zm-87.746-31.922l3.989 6.527a326.818 326.818 0 01-3.989-6.527zM59.034 200.797z" fill="#000"/><defs><filter id="filter0_d_97_1427" x=".717" y=".835" width="429.752" height="319.759" filterUnits="userSpaceOnUse" color-interpolation-filters="sRGB"><feFlood flood-opacity="0" result="BackgroundImageFix"/><feColorMatrix in="SourceAlpha" values="0 0 0 0 0 0 0 0 0 0 0 0 0 0 0 0 0 0 127 0" result="hardAlpha"/><feOffset dy="4"/><feGaussianBlur stdDeviation="15"/><feComposite in2="hardAlpha" operator="out"/><feColorMatrix values="0 0 0 0 0.23316 0 0 0 0 0.708333 0 0 0 0 0.594292 0 0 0 1 0"/><feBlend in2="BackgroundImageFix" result="effect1_dropShadow_97_1427"/><feBlend in="SourceGraphic" in2="effect1_dropShadow_97_1427" result="shape"/></filter></defs></svg>