<svg width="123" height="123" fill="none" xmlns="http://www.w3.org/2000/svg"><path d="M.698 46.813c1.4-8.9 5-17.4 10.8-24.7 18.5-23.3 58.4-30 82.1-11.3 25.5 20.1 43.6 66.7 13.4 88.3-3.4 2.4-7.2 4.5-11.4 6.3 1.1 5.1 3.6 13.6 8.4 16.8 0 0-18.1 1.4-24.9-11.9-26.8 5-58.7-1.7-71.1-23.9-6.7-12.2-9.4-26.3-7.3-39.6z" fill="url(#paint0_linear_74_1660)"/><path d="M80.998 66.413a7 7 0 100-14 7 7 0 000 14zm-22.201-1a7 7 0 100-14 7 7 0 000 14zm-22.1-1a7 7 0 100-14 7 7 0 000 14z" fill="#fff"/><defs><linearGradient id="paint0_linear_74_1660" x1="-.002" y1="61.134" x2="122.812" y2="61.134" gradientUnits="userSpaceOnUse"><stop stop-color="#006837"/><stop offset="1" stop-color="#39B54A"/></linearGradient></defs></svg>