<svg width="137" height="108" fill="none" xmlns="http://www.w3.org/2000/svg"><path d="M122.998.413l-109.2 8.5c-7.4 0-13.4 6-13.4 13.4l8.5 53.5c0 7.4 6 13.4 13.4 13.4l5.2.3s3.1 11.5-2.9 17.5c0 0 17.9-4.3 20.8-16.4l69.2 4.3c7.4 0 13.4-6 13.4-13.4l8.5-67.7c0-7.4-6-13.4-13.5-13.4z" fill="url(#paint0_linear_74_1666)"/><path d="M109.898 36.112c0 1.5-1.2 2.8-2.8 2.8h-77.3c-1.5 0-2.8-1.2-2.8-2.8 0-1.5 1.2-2.8 2.8-2.8h77.3c1.5 0 2.8 1.3 2.8 2.8zm0 11.601c0 1.5-1.2 2.8-2.8 2.8h-77.3c-1.5 0-2.8-1.2-2.8-2.8 0-1.5 1.2-2.8 2.8-2.8h77.3c1.5 0 2.8 1.3 2.8 2.8zm0 11.6c0 1.5-1.2 2.8-2.8 2.8h-77.3c-1.5 0-2.8-1.2-2.8-2.8 0-1.5 1.2-2.8 2.8-2.8h77.3c1.5 0 2.8 1.2 2.8 2.8z" fill="#fff"/><defs><linearGradient id="paint0_linear_74_1666" x1=".439" y1="53.775" x2="136.451" y2="53.775" gradientUnits="userSpaceOnUse"><stop stop-color="#39B54A"/><stop offset="1" stop-color="#D9E021"/></linearGradient></defs></svg>