<svg width="221" height="266" fill="none" xmlns="http://www.w3.org/2000/svg"><path d="M87.339 262.853l-3.009 1.75c-.95.556-2.455.556-3.405 0L.713 218.085c-.95-.557-.95-1.432 0-1.988l3.009-1.75c.95-.556 2.454-.556 3.404 0l80.213 46.518c.95.557.95 1.432 0 1.988z" fill="#E0E0E0"/><path d="M71.106 149.54v7.951l136.669 79.2 4.197 2.465c1.742-1.033 3.247-3.657 3.247-5.804V99.841c0-.239-.079-.477-.159-.636a3.41 3.41 0 00-.475-.557l-31.119-18.05c-.396-.24-2.613.715-2.929.954l-.238.159c-.158.08-.396.318-.554.477a7.144 7.144 0 00-.396.636l-2.851 8.19L75.144 30.342a1.355 1.355 0 00-1.346 0l-1.9 1.113c-.16.08-.317.318-.476.477-.158.239-.158.478-.158.716v27.831l-.158 89.061z" fill="#263238"/><path d="M71.106 157.491l140.866 81.665V100.954l-32.386-18.766a7.662 7.662 0 00-.396.636l-2.85 8.19-.555 1.51L71.264 31.933c-.158.239-.158.477-.158.716V157.49z" fill="url(#paint0_linear_99_3513)"/><path d="M179.664 82.188l32.386 18.766 3.009-1.75c-.158-.238-.317-.397-.475-.556l-31.119-18.05a1.355 1.355 0 00-1.346 0l-1.821 1.033a1.467 1.467 0 00-.634.557zM71.344 31.932l104.521 60.593.555-1.51L75.065 30.341a1.355 1.355 0 00-1.346 0l-1.9 1.113c-.159.08-.317.239-.475.477z" fill="#455A64"/><path d="M168.739 182.937c.791-.477 1.425-1.67 1.425-2.624V48.87c0-1.034-.713-2.227-1.584-2.704L91.297 1.398c-.87-.477-2.217-.557-3.008-.08-.792.477-1.426 1.67-1.426 2.624v131.444c0 1.033.713 2.226 1.584 2.703l77.283 44.769c.871.477 2.217.556 3.009.079z" fill="#233D59"/><path d="M165.73 182.858l-77.283-44.769c-.871-.477-1.584-1.749-1.584-2.703V3.942c0-1.034.713-1.431 1.584-.875l77.283 44.77c.871.476 1.583 1.749 1.583 2.703v131.443c-.079.954-.712 1.352-1.583.875z" fill="#16232B"/><path d="M157.259 53.084L98.901 19.21c-.792-.477-1.346-.079-1.346.796v.556c0 .875.633 1.909 1.346 2.386l58.358 33.875c.792.477 1.346.079 1.346-.796v-.556c0-.875-.634-1.988-1.346-2.386zm0 9.304L98.901 28.513c-.792-.477-1.346-.08-1.346.795v.557c0 .875.633 1.908 1.346 2.386l58.358 33.874c.792.477 1.346.08 1.346-.795v-.557c0-.874-.634-1.987-1.346-2.385zm0 9.304L98.901 37.817c-.792-.477-1.346-.08-1.346.795v.557c0 .874.633 1.908 1.346 2.385l58.358 33.875c.792.477 1.346.08 1.346-.795v-.557c0-.875-.634-1.908-1.346-2.385zm0 9.303L98.901 47.121c-.792-.477-1.346-.08-1.346.795v.556c0 .875.633 1.909 1.346 2.386l58.358 33.875c.792.477 1.346.08 1.346-.796v-.556c0-.875-.634-1.909-1.346-2.386zm0 9.304L98.901 56.424c-.792-.477-1.346-.08-1.346.795v.557c0 .875.633 1.909 1.346 2.386l58.358 33.874c.792.477 1.346.08 1.346-.795v-.556c0-.875-.634-1.909-1.346-2.386zm0 9.383L98.901 65.807c-.792-.477-1.346-.08-1.346.795v.557c0 .875.633 1.908 1.346 2.385l58.358 33.875c.792.477 1.346.08 1.346-.795v-.557c0-.874-.634-1.908-1.346-2.385zm0 9.304L98.901 75.111c-.792-.477-1.346-.08-1.346.795v.636c0 .875.633 1.909 1.346 2.386l58.358 33.874c.792.478 1.346.08 1.346-.795v-.556c0-.955-.634-1.988-1.346-2.465zm0 9.383L98.901 84.494c-.792-.477-1.346-.08-1.346.795v.557c0 .875.633 1.908 1.346 2.385l58.358 33.875c.792.477 1.346.08 1.346-.795v-.557c0-.874-.634-1.988-1.346-2.385zm0 9.304L98.901 93.798c-.792-.477-1.346-.08-1.346.795v.557c0 .874.633 1.908 1.346 2.385l58.358 33.875c.792.477 1.346.079 1.346-.795v-.557c0-.875-.634-1.988-1.346-2.385zm0 9.303l-58.358-33.875c-.792-.477-1.346-.079-1.346.795v.557c0 .875.633 1.908 1.346 2.385l58.358 33.875c.792.477 1.346.08 1.346-.795v-.557c0-.874-.634-1.988-1.346-2.385zm0 9.303l-58.358-33.874c-.792-.477-1.346-.08-1.346.795v.557c0 .874.633 1.908 1.346 2.385l58.358 33.875c.792.477 1.346.079 1.346-.795v-.557c0-.875-.634-1.908-1.346-2.386zm0 9.384l-58.358-33.875c-.792-.477-1.346-.079-1.346.795v.557c0 .875.633 1.908 1.346 2.385l58.358 33.875c.792.477 1.346.08 1.346-.795v-.557c0-.874-.634-1.988-1.346-2.385zm0 9.303l-58.358-33.874c-.792-.477-1.346-.08-1.346.795v.557c0 .874.633 1.908 1.346 2.385l58.358 33.875c.792.477 1.346.079 1.346-.795v-.557c0-.875-.634-1.988-1.346-2.386z" fill="#E0E0E0"/><path d="M165.887 182.937c.871.398 2.058.398 2.771-.079.792-.477 1.425-1.67 1.425-2.624V48.87c0-.477-.158-1.034-.475-1.511l-2.929 1.67c.316.477.475 1.033.475 1.51v131.444c.079.875-.475 1.352-1.267.954z" fill="#000"/><path d="M157.813 189.14c.792-.477 1.425-1.67 1.425-2.624V55.072c0-1.033-.713-2.226-1.584-2.703L80.372 7.6c-.871-.477-2.217-.556-3.01-.08-.791.478-1.424 1.67-1.424 2.625v131.443c0 1.034.712 2.227 1.583 2.704l77.283 44.768c.792.557 2.138.557 3.009.08z" fill="#233D59"/><path d="M154.804 189.14l-77.283-44.769c-.87-.477-1.584-1.749-1.584-2.703V10.224c0-1.033.713-1.43 1.584-.874l77.283 44.768c.871.477 1.584 1.75 1.584 2.704v131.443c-.08.955-.792 1.352-1.584.875z" fill="#16232B"/><path d="M146.33 59.287L87.893 25.492c-.792-.477-1.346-.08-1.346.795v.556c0 .875.633 1.909 1.346 2.386l58.437 33.795c.792.477 1.346.08 1.346-.795v-.557c0-.874-.633-1.908-1.346-2.385zm0 9.303L87.893 34.796c-.792-.477-1.346-.08-1.346.796v.556c0 .875.633 1.909 1.346 2.386l58.358 33.874c.792.478 1.346.08 1.346-.795v-.556c.079-.955-.554-1.988-1.267-2.465zm0 9.304L87.893 44.1c-.792-.477-1.346-.08-1.346.795v.557c0 .875.633 1.908 1.346 2.386l58.358 33.874c.792.477 1.346.08 1.346-.795v-.557c.079-.954-.554-1.988-1.267-2.465zm0 9.384L87.893 53.403c-.792-.477-1.346-.08-1.346.795v.557c0 .874.633 1.908 1.346 2.385l58.358 33.875c.792.477 1.346.08 1.346-.795v-.557c.079-.875-.554-1.988-1.267-2.385zm0 9.302L87.893 62.707c-.792-.477-1.346-.08-1.346.795v.557c0 .875.633 1.908 1.346 2.385l58.358 33.875c.792.477 1.346.08 1.346-.795v-.557c.079-.874-.554-1.988-1.267-2.385zm0 9.384L87.893 72.089c-.792-.477-1.346-.08-1.346.796v.556c0 .875.633 1.909 1.346 2.386l58.358 33.874c.792.478 1.346.08 1.346-.795v-.556c.079-.875-.554-1.988-1.267-2.386zm0 9.304L87.893 81.393c-.792-.477-1.346-.08-1.346.795v.557c0 .875.633 1.908 1.346 2.385l58.358 33.875c.792.477 1.346.08 1.346-.795v-.557c.079-.874-.554-1.988-1.267-2.385zm0 9.303L87.893 90.697c-.792-.477-1.346-.08-1.346.795v.557c0 .874.633 1.908 1.346 2.385l58.358 33.875c.792.477 1.346.079 1.346-.795v-.557c.079-.875-.554-1.988-1.267-2.386zm0 9.304L87.893 100c-.792-.477-1.346-.079-1.346.796v.556c0 .875.633 1.909 1.346 2.386l58.358 33.875c.792.477 1.346.079 1.346-.796v-.556c.079-.875-.554-1.909-1.267-2.386zm0 9.303l-58.437-33.795c-.792-.477-1.346-.079-1.346.795v.557c0 .875.633 1.909 1.346 2.386l58.358 33.874c.792.477 1.346.08 1.346-.795v-.556c.079-.955-.554-1.988-1.267-2.466zm0 9.384l-58.437-33.875c-.792-.477-1.346-.08-1.346.795v.557c0 .875.633 1.908 1.346 2.385l58.358 33.875c.792.477 1.346.08 1.346-.795v-.557c.079-.874-.554-1.988-1.267-2.385zm0 9.303l-58.437-33.874c-.792-.477-1.346-.08-1.346.795v.557c0 .874.633 1.908 1.346 2.385l58.358 33.875c.792.477 1.346.079 1.346-.795v-.557c.079-.875-.554-1.988-1.267-2.386zm0 9.304l-58.437-33.795c-.792-.478-1.346-.08-1.346.795v.556c0 .875.633 1.909 1.346 2.386l58.358 33.875c.792.477 1.346.079 1.346-.796v-.556c.079-.954-.554-1.988-1.267-2.465z" fill="#E0E0E0"/><path d="M154.961 189.219c.871.398 2.059.398 2.771-.079.792-.477 1.426-1.67 1.426-2.624V55.072c0-.477-.159-1.033-.475-1.51l-2.93 1.67c.316.477.475 1.033.475 1.51v131.444c.079.954-.475 1.351-1.267 1.033z" fill="#000"/><path d="M42.363 48.233l22.567 98.205 2.059 9.065c.475 2.147 2.454 4.772 4.355 5.885l133.978 77.689c.871.477 2.058.795 3.167.875 1.267.079 2.534-.159 3.484-.716l-.713-3.022c0-.079-.079-.159-.079-.318l-.792-3.26-3.246-14.234-20.746-90.253c0-.079-.079-.238-.158-.318-.08-.079-.08-.238-.159-.318v-.079c-.158-.239-.317-.398-.554-.478L71.186 60.479 46.084 46.007c-.396-.238-1.029-.238-1.346 0l-1.82 1.034a1.185 1.185 0 00-.555 1.193z" fill="url(#paint1_linear_99_3513)"/><path d="M42.363 47.995c0-.318.238-.398.555-.159l139.52 80.87c.159.079.396.318.554.477l3.247-1.908c-.158-.239-.317-.398-.554-.478l-139.6-80.79c-.396-.238-1.03-.238-1.346 0l-1.821 1.034c-.317.159-.555.556-.555.954z" fill="#455A64"/><path d="M182.914 129.183c.079.159.158.239.238.398.079.079.079.159.079.318l19.875 86.356 4.196 18.21.555 2.306.712 3.181c1.267.079 2.534-.159 3.484-.716l-.712-3.022c0-.079-.079-.159-.079-.318l-.792-3.26-3.247-14.234-20.746-90.253c0-.079-.079-.238-.158-.318-.079-.079-.079-.238-.158-.318v-.079l-3.247 1.749z" fill="#263238"/><path d="M207.065 230.807c-.317.159-.476.557-.396.954l1.108 4.93.554 2.465c.08.398.476.716.951.716 1.029-.079 1.979-.318 2.692-.716 1.742-1.033 3.246-3.657 3.246-5.804v-5.646c0-.716-.712-1.113-1.346-.795l-1.425.795c-.238.159-.475.477-.475.795v2.783c0 1.034-1.505 1.272-1.742.239l-.238-1.034c-.158-.557-.792-.875-1.346-.557l-1.583.875z" fill="#263238"/><path d="M177.53 209.814l7.602-4.453.079-.079c3.801-2.147 9.027-1.829 14.728 1.511 5.385 3.101 10.294 8.349 14.016 14.313 4.275 6.918 6.968 14.949 6.968 22.186 0 6.679-2.376 11.45-6.097 13.597l-7.76 4.453c-3.801 2.465-9.186 2.227-15.204-1.272-11.56-6.759-20.983-23.06-20.983-36.499 0-6.838 2.534-11.689 6.651-13.757z" fill="url(#paint2_linear_99_3513)"/><path opacity=".1" d="M207.221 261.342l7.602-4.373c3.8-2.227 6.097-6.918 6.097-13.598 0-7.236-2.692-15.188-6.968-22.185l-8.077 4.691c4.276 6.918 6.968 14.95 6.968 22.106 0 6.441-2.138 11.053-5.622 13.359z" fill="#000"/><path opacity=".4" d="M177.688 209.735c3.721-1.829 8.71-1.352 14.173 1.829 5.385 3.101 10.294 8.349 14.016 14.393l8.076-4.692c-3.721-6.043-8.631-11.212-14.015-14.313-5.78-3.34-10.927-3.658-14.728-1.511l-.079.08-7.443 4.214z" fill="#fff"/><path d="M184.023 235.181a1.877 1.877 0 01-.633-.716c-.158-.397-.238-.715-.238-1.113v-5.01c0-.397.08-.636.238-.795.158-.159.396-.159.633-.079l4.91 2.862v-7.395c0-.397.079-.636.237-.795.159-.159.396-.159.634-.079l4.038 2.306c.238.159.475.397.634.715.158.398.237.716.237 1.113v7.396l4.989 2.862c.237.159.475.398.633.716.158.398.238.716.238 1.113v5.01c0 .397-.08.636-.238.795-.158.159-.396.159-.633.08l-4.989-2.863v7.395c0 .398-.079.636-.237.795-.159.159-.396.159-.634.08l-4.038-2.306a1.879 1.879 0 01-.634-.716c-.158-.398-.237-.716-.237-1.113v-7.395l-4.91-2.863z" fill="#fff"/><path d="M84.25 262.694c.792-.477 1.426-1.67 1.426-2.624V136.499c0-1.034-.713-2.227-1.584-2.704L6.809 89.027c-.87-.478-2.217-.557-3.009-.08-.792.477-1.425 1.67-1.425 2.624v123.571c0 1.034.713 2.227 1.584 2.704l77.282 44.769c.871.556 2.218.556 3.01.079z" fill="url(#paint3_linear_99_3513)"/><path opacity=".15" d="M81.639 262.853c-.08 0-.08 0-.158-.079.079 0 .079.079.158.079 0 0 .158.08.237.08h.159c.158 0 .237.079.317.079h.395c.555 0 1.03-.079 1.426-.318.316-.159.554-.477.791-.795.396-.557.634-1.272.634-1.829V136.499c0-.239-.08-.477-.08-.795 0-.159-.078-.239-.158-.398-.079-.159-.158-.238-.158-.397l-2.93 1.67c0 .079.08.079.08.079.237.477.395.954.395 1.431V261.66c0 .16 0 .319-.079.478-.079.238-.158.397-.317.477-.079.079-.158.079-.316.159h-.159c0 .079-.079.079-.237.079.079 0 0 0 0 0z" fill="#000"/><path opacity=".3" d="M2.375 91.333c.158-.796.792-1.034 1.504-.636l77.283 44.768c.396.239.792.716 1.109 1.193l2.93-1.67c-.238-.477-.634-.875-1.11-1.193L6.81 89.027c-.87-.478-2.217-.478-3.009-.08-.712.398-1.346 1.431-1.425 2.386z" fill="#fff"/><path d="M72.77 140.713l-58.357-33.875c-.792-.477-1.347-.079-1.347.796v.556c0 .875.634 1.909 1.346 2.386L72.77 144.45c.792.478 1.347.08 1.347-.795v-.556c0-.955-.634-1.988-1.347-2.386zm0 11.371l-58.357-33.875c-.792-.477-1.347-.079-1.347.796v.556c0 .875.634 1.909 1.346 2.386l58.358 33.875c.792.477 1.347.079 1.347-.796v-.556c0-.875-.634-1.988-1.347-2.386zm0 11.371l-58.357-33.874c-.792-.478-1.347-.08-1.347.795v.556c0 .875.634 1.909 1.346 2.386l58.358 33.875c.792.477 1.347.079 1.347-.796v-.556c0-.875-.634-1.909-1.347-2.386zm0 11.371l-58.357-33.874c-.792-.477-1.347-.08-1.347.795v.556c0 .875.634 1.909 1.346 2.386l58.358 33.875c.792.477 1.347.079 1.347-.795v-.557c0-.875-.634-1.909-1.347-2.386zm0 11.451l-58.357-33.875c-.792-.477-1.347-.079-1.347.796v.556c0 .875.634 1.909 1.346 2.386l58.358 33.874c.792.477 1.347.08 1.347-.795v-.556c0-.875-.634-1.988-1.347-2.386zm0 11.371l-58.357-33.875c-.792-.477-1.347-.079-1.347.796v.556c0 .875.634 1.909 1.346 2.386l58.358 33.874c.792.478 1.347.08 1.347-.795v-.556c0-.875-.634-1.909-1.347-2.386zm0 11.371l-58.357-33.874c-.792-.478-1.347-.08-1.347.795v.556c0 .875.634 1.909 1.346 2.386l58.358 33.875c.792.477 1.347.079 1.347-.796v-.556c0-.875-.634-1.909-1.347-2.386zm0 11.451l-58.357-33.875c-.792-.477-1.347-.079-1.347.795v.557c0 .875.634 1.908 1.346 2.386l58.358 33.874c.792.477 1.347.08 1.347-.795v-.557c0-.874-.634-1.987-1.347-2.385zm0 11.371l-58.357-33.875c-.792-.477-1.347-.079-1.347.795v.557c0 .875.634 1.909 1.346 2.386l58.358 33.874c.792.477 1.347.08 1.347-.795v-.556c0-.875-.634-1.988-1.347-2.386zm0 11.371l-58.357-33.875c-.792-.477-1.347-.079-1.347.796v.556c0 .875.634 1.909 1.346 2.386l58.358 33.874c.792.478 1.347.08 1.347-.795v-.556c0-.875-.634-1.909-1.347-2.386z" fill="#FAFAFA"/><defs><linearGradient id="paint0_linear_99_3513" x1="71.145" y1="135.536" x2="211.996" y2="135.536" gradientUnits="userSpaceOnUse"><stop stop-color="#5BB745"/><stop offset="1" stop-color="#30703A"/></linearGradient><linearGradient id="paint1_linear_99_3513" x1="42.357" y1="142.836" x2="211.997" y2="142.836" gradientUnits="userSpaceOnUse"><stop stop-color="#5BB745"/><stop offset="1" stop-color="#30703A"/></linearGradient><linearGradient id="paint2_linear_99_3513" x1="170.879" y1="233.531" x2="220.969" y2="233.531" gradientUnits="userSpaceOnUse"><stop stop-color="#D6E000"/><stop offset="1" stop-color="#5CB845"/></linearGradient><linearGradient id="paint3_linear_99_3513" x1="2.36" y1="175.826" x2="85.692" y2="175.826" gradientUnits="userSpaceOnUse"><stop stop-color="#D6E000"/><stop offset="1" stop-color="#5CB845"/></linearGradient></defs></svg>