<svg width="320" height="260" fill="none" xmlns="http://www.w3.org/2000/svg"><path d="M224.509 210.201a5.138 5.138 0 01-5.139 5.142H77.452c-2.885 0-5.14-2.345-5.14-5.142V30.312a5.138 5.138 0 015.14-5.142H219.28c2.885 0 5.139 2.345 5.139 5.142v179.889h.09z" fill="url(#paint0_linear_103_1201)"/><path d="M216.575 38.702H86.648v168.702h129.927V38.702z" fill="#B8CFDE"/><path d="M213.329 35.906H83.402v168.702H213.33V35.906z" fill="#12232B"/><path d="M167.165 13.623V0h-37.599v13.623l-17.582 6.044V42.13h72.673V19.667l-17.492-6.045zm-6.312 1.172h-24.885V4.15h24.885v10.645z" fill="url(#paint1_linear_103_1201)"/><path d="M130.016 57.557H95.934V92.38h34.082V57.557z" fill="#fff"/><path d="M122.801 81.374c-.09-1.173-1.352-1.534-1.352-1.534l-3.877-1.263-1.623-.632a9.761 9.761 0 01-3.066 1.263c-.451-.09-1.803-.36-3.065-1.263l-1.623.632-3.877 1.263s-1.263.36-1.353 1.534l-1.172 6.585h22.09l-1.082-6.585zm-4.018-12.101c.075-3.985-2.488-7.264-5.724-7.325-3.236-.06-5.92 3.121-5.995 7.106-.074 3.985 2.489 7.265 5.725 7.326 3.236.06 5.92-3.121 5.994-7.107z" fill="#C3DFF6"/><path d="M130.016 102.845H95.934v34.823h34.082v-34.823z" fill="#fff"/><path d="M122.801 126.572c-.09-1.173-1.352-1.534-1.352-1.534l-3.877-1.263-1.623-.631a9.804 9.804 0 01-3.066 1.263c-.451-.091-1.803-.361-3.065-1.263l-1.623.631-3.877 1.263s-1.263.361-1.353 1.534l-1.172 6.585h22.09l-1.082-6.585zm-4.056-12.063c.074-3.985-2.489-7.265-5.725-7.326-3.236-.06-5.92 3.121-5.994 7.106-.075 3.985 2.488 7.265 5.724 7.326 3.236.06 5.92-3.121 5.995-7.106z" fill="#C3DFF6"/><path d="M130.016 148.043H95.934v34.823h34.082v-34.823z" fill="#fff"/><path d="M122.801 171.86c-.09-1.173-1.352-1.534-1.352-1.534l-3.877-1.263-1.623-.631a9.779 9.779 0 01-3.066 1.263c-.451-.091-1.803-.361-3.065-1.263l-1.623.631-3.877 1.263s-1.263.361-1.353 1.534l-1.172 6.586h22.09l-1.082-6.586zm-4.006-12.115c.075-3.985-2.488-7.265-5.724-7.326-3.236-.06-5.92 3.121-5.995 7.106-.074 3.986 2.489 7.265 5.725 7.326 3.236.061 5.92-3.121 5.994-7.106z" fill="#C3DFF6"/><path d="M200.885 62.519c0 .721-.631 1.353-1.352 1.353H137.77c-.721 0-1.352-.632-1.352-1.353 0-.722.631-1.353 1.352-1.353h61.763c.721.09 1.352.631 1.352 1.353zm0 8.3c0 .721-.631 1.353-1.352 1.353H137.77c-.721 0-1.352-.632-1.352-1.353 0-.722.631-1.354 1.352-1.354h61.763c.721.09 1.352.632 1.352 1.354zm0 8.299c0 .722-.631 1.354-1.352 1.354H137.77c-.721 0-1.352-.632-1.352-1.354 0-.721.631-1.353 1.352-1.353h61.763c.721.09 1.352.632 1.352 1.353zm0 8.39c0 .722-.631 1.354-1.352 1.354H137.77c-.721 0-1.352-.632-1.352-1.353 0-.722.631-1.354 1.352-1.354h61.763c.721 0 1.352.542 1.352 1.353zm0 20.299c0 .722-.631 1.353-1.352 1.353H137.77c-.721 0-1.352-.631-1.352-1.353s.631-1.353 1.352-1.353h61.763c.721 0 1.352.631 1.352 1.353zm0 8.3c0 .721-.631 1.353-1.352 1.353H137.77c-.721 0-1.352-.632-1.352-1.353 0-.722.631-1.354 1.352-1.354h61.763c.721 0 1.352.632 1.352 1.354zm0 8.299c0 .722-.631 1.354-1.352 1.354H137.77c-.721 0-1.352-.632-1.352-1.354 0-.721.631-1.353 1.352-1.353h61.763c.721 0 1.352.632 1.352 1.353zm0 8.3c0 .722-.631 1.353-1.352 1.353H137.77c-.721 0-1.352-.631-1.352-1.353 0-.721.631-1.353 1.352-1.353h61.763c.721 0 1.352.632 1.352 1.353zm0 20.299c0 .721-.631 1.353-1.352 1.353H137.77c-.721 0-1.352-.632-1.352-1.353 0-.722.631-1.354 1.352-1.354h61.763c.721 0 1.352.632 1.352 1.354zm0 8.299c0 .722-.631 1.354-1.352 1.354H137.77c-.721 0-1.352-.632-1.352-1.354 0-.721.631-1.353 1.352-1.353h61.763c.721.09 1.352.632 1.352 1.353zm0 8.3c0 .722-.631 1.353-1.352 1.353H137.77c-.721 0-1.352-.631-1.352-1.353s.631-1.353 1.352-1.353h61.763c.721.09 1.352.631 1.352 1.353zm0 8.3c0 .722-.631 1.353-1.352 1.353H137.77c-.721 0-1.352-.631-1.352-1.353s.631-1.353 1.352-1.353h61.763c.721.09 1.352.631 1.352 1.353z" fill="#B2DBF6"/><path d="M95.666 55.482c-23.172-12.63-52.115-4.15-64.828 18.946-11.722 21.47-5.32 47.904 14.156 61.797l-5.861 10.826-5.5-2.977-30.836 56.384 20.918 11.457 30.836-56.474-5.5-2.977 5.86-10.826c22.09 8.841 47.878 0 59.599-21.381 12.803-23.095 4.328-52.145-18.844-64.775zm9.287 59.542c-9.738 17.773-32.009 24.358-49.77 14.615-17.763-9.743-24.345-32.026-14.607-49.799 9.737-17.772 32.008-24.358 49.77-14.614 17.853 9.653 24.344 31.936 14.607 49.798z" fill="url(#paint2_linear_103_1201)"/><path d="M45.352 150.208l-10.008-5.503 8.114-14.885 10.009 5.413-8.115 14.975z" fill="url(#paint3_linear_103_1201)"/><path opacity=".5" d="M102.159 110.835c9.726-17.79 3.197-40.101-14.583-49.833S47.497 57.803 37.77 75.593c-9.726 17.79-3.197 40.102 14.583 49.833 17.78 9.732 40.079 3.199 49.805-14.591z" fill="#D8EDFC"/><path opacity=".5" d="M63.835 57.016c-10.639 1.804-20.377 8.3-25.967 18.584-9.738 17.773-3.156 40.056 14.607 49.799 7.573 4.15 16.049 5.323 23.983 3.97-4.688-24.088-8.385-48.265-12.623-72.353z" fill="#D8EDFC"/><path d="M92.867 51.333c-23.173-12.63-52.115-4.15-64.828 18.945-12.623 23.185-4.148 52.144 18.934 64.864 23.172 12.63 52.115 4.15 64.828-18.945 12.713-23.185 4.238-52.234-18.934-64.864zm-40.484 74.066C34.62 115.656 28.039 93.373 37.776 75.6c9.738-17.772 32.009-24.358 49.77-14.614 17.763 9.743 24.345 32.026 14.607 49.798-9.737 17.863-32.008 24.358-49.77 14.615z" fill="url(#paint4_linear_103_1201)"/><path opacity=".3" d="M92.87 51.333c-23.172-12.63-52.114-4.15-64.827 18.945-12.623 23.185-4.148 52.144 18.934 64.864 23.172 12.63 52.115 4.15 64.828-18.945 12.713-23.185 4.238-52.234-18.935-64.864zM49.592 130.54C28.944 119.264 21.37 93.373 32.64 72.804c11.27-20.66 37.148-28.238 57.705-16.87 20.647 11.276 28.221 37.168 16.861 57.737-11.18 20.569-37.058 28.147-57.615 16.87z" fill="#007CB3"/><path d="M20.918 207.765L0 196.308l30.836-56.475 21.008 11.458-30.926 56.474z" fill="url(#paint5_linear_103_1201)"/><path d="M92.418 111.776c-1.352 1.805-2.795 3.429-4.418 4.782m-5.5-49.889c14.877 8.12 20.287 26.704 12.172 41.589" stroke="#fff" stroke-width="3" stroke-miterlimit="10"/><path d="M319.002 59.362H164.461V260h154.541V59.362z" fill="url(#paint6_linear_103_1201)"/><path d="M312.51 52.866H157.969v200.639H312.51V52.866z" fill="#12232B"/><path d="M213.331 93.012h-40.483v41.499h40.483v-41.5z" fill="#fff"/><path d="M204.764 121.339c-.09-1.353-1.533-1.804-1.533-1.804l-4.598-1.533-1.894-.722c-1.442.992-3.155 1.353-3.606 1.443-.541-.09-2.164-.451-3.607-1.443l-1.983.722-4.599 1.533s-1.442.451-1.533 1.804l-1.442 7.849h26.328l-1.533-7.849zm-4.779-14.344c-.09 4.691-3.246 8.48-7.123 8.39-3.877-.09-6.853-3.969-6.762-8.66.09-4.692 3.246-8.48 7.123-8.39 3.877 0 6.852 3.879 6.762 8.66z" fill="#C3DFF6"/><path d="M297.635 98.876a1.52 1.52 0 01-1.533 1.534h-73.483a1.52 1.52 0 01-1.533-1.534 1.52 1.52 0 011.533-1.534h73.483c.812 0 1.533.722 1.533 1.534zm0 9.924a1.52 1.52 0 01-1.533 1.533h-73.483a1.52 1.52 0 01-1.533-1.533 1.52 1.52 0 011.533-1.534h73.483a1.52 1.52 0 011.533 1.534zm0 9.923a1.52 1.52 0 01-1.533 1.534h-73.483a1.52 1.52 0 01-1.533-1.534 1.52 1.52 0 011.533-1.533h73.483c.812-.09 1.533.631 1.533 1.533zm0 9.834a1.52 1.52 0 01-1.533 1.533h-73.483a1.52 1.52 0 01-1.533-1.533 1.52 1.52 0 011.533-1.534h73.483c.812 0 1.533.722 1.533 1.534zm-.001 19.396c0 .902-.722 1.534-1.533 1.534H173.568a1.52 1.52 0 01-1.533-1.534 1.52 1.52 0 011.533-1.534h122.443c.901-.09 1.623.632 1.623 1.534zm0 9.834a1.52 1.52 0 01-1.533 1.533H173.568a1.52 1.52 0 01-1.533-1.533 1.52 1.52 0 011.533-1.534h122.443c.901 0 1.623.722 1.623 1.534zm0 9.923c0 .902-.722 1.534-1.533 1.534H173.568a1.52 1.52 0 01-1.533-1.534 1.52 1.52 0 011.533-1.533h122.443c.901-.091 1.623.631 1.623 1.533zm0 9.833a1.52 1.52 0 01-1.533 1.534H173.568a1.52 1.52 0 01-1.533-1.534 1.52 1.52 0 011.533-1.533h122.443c.901 0 1.623.721 1.623 1.533zm0 13.713c0 .902-.722 1.534-1.533 1.534H173.568a1.52 1.52 0 01-1.533-1.534 1.52 1.52 0 011.533-1.534h122.443c.901-.09 1.623.632 1.623 1.534zm0 9.833c0 .902-.722 1.534-1.533 1.534H173.568a1.52 1.52 0 01-1.533-1.534 1.52 1.52 0 011.533-1.533h122.443c.901 0 1.623.721 1.623 1.533zm0 9.924c0 .902-.722 1.534-1.533 1.534H173.568a1.52 1.52 0 01-1.533-1.534 1.52 1.52 0 011.533-1.534h122.443c.901 0 1.623.632 1.623 1.534zm0 9.924a1.52 1.52 0 01-1.533 1.533H173.568a1.52 1.52 0 01-1.533-1.533 1.52 1.52 0 011.533-1.534h122.443c.901-.09 1.623.632 1.623 1.534zM273.557 76.503a1.52 1.52 0 01-1.533 1.533h-73.483a1.52 1.52 0 01-1.533-1.533 1.52 1.52 0 011.533-1.534h73.483c.812-.09 1.533.632 1.533 1.534z" fill="#B2DBF6"/><defs><linearGradient id="paint0_linear_103_1201" x1="72.292" y1="120.239" x2="224.485" y2="120.239" gradientUnits="userSpaceOnUse"><stop stop-color="#CAD400"/><stop offset="1" stop-color="#51AE32"/></linearGradient><linearGradient id="paint1_linear_103_1201" x1="112.022" y1="21.081" x2="184.753" y2="21.081" gradientUnits="userSpaceOnUse"><stop stop-color="#47AC34"/><stop offset="1" stop-color="#077534"/></linearGradient><linearGradient id="paint2_linear_103_1201" x1="2.79" y1="130.766" x2="120.524" y2="130.766" gradientUnits="userSpaceOnUse"><stop stop-color="#47AC34"/><stop offset="1" stop-color="#077534"/></linearGradient><linearGradient id="paint3_linear_103_1201" x1="35.316" y1="139.983" x2="53.502" y2="139.983" gradientUnits="userSpaceOnUse"><stop stop-color="#CAD400"/><stop offset="1" stop-color="#51AE32"/></linearGradient><linearGradient id="paint4_linear_103_1201" x1="22.232" y1="93.203" x2="117.732" y2="93.203" gradientUnits="userSpaceOnUse"><stop stop-color="#CAD400"/><stop offset="1" stop-color="#51AE32"/></linearGradient><linearGradient id="paint5_linear_103_1201" x1="0" y1="173.823" x2="51.818" y2="173.823" gradientUnits="userSpaceOnUse"><stop stop-color="#47AC34"/><stop offset="1" stop-color="#077534"/></linearGradient><linearGradient id="paint6_linear_103_1201" x1="164.477" y1="159.705" x2="319.016" y2="159.705" gradientUnits="userSpaceOnUse"><stop stop-color="#47AC34"/><stop offset="1" stop-color="#077534"/></linearGradient></defs></svg>