<svg width="271" height="246" fill="none" xmlns="http://www.w3.org/2000/svg"><path d="M144.345 168.125l40.429-41.886L71.084 16.503 30.657 58.365l113.689 109.76z" fill="url(#paint0_linear_103_1949)"/><path d="M60.367 75.811l30.51-31.602-19.138-18.462-30.485 31.602L60.367 75.81z" fill="url(#paint1_linear_103_1949)"/><path d="M82.77 97.42l30.485-31.602-19.137-18.463-30.485 31.602L82.77 97.42z" fill="url(#paint2_linear_103_1949)"/><path d="M105.149 119.028l30.485-31.602-19.137-18.463-30.485 31.602 19.137 18.463z" fill="url(#paint3_linear_103_1949)"/><path d="M127.528 140.636l30.485-31.602L138.9 90.572l-30.509 31.602 19.137 18.462z" fill="url(#paint4_linear_103_1949)"/><path opacity=".3" d="M30.656 58.365l21.485-22.262c1.379 6.195 3.968 12.655 8.661 18.366 8.952 10.84 19.21 11.228 34.743 20.81 16.21 9.993 20.735 19.261 33.171 32.473 9.072 9.655 22.452 21.463 42.267 32.715l-26.638 27.658L30.656 58.365z" fill="url(#paint5_linear_103_1949)"/><path d="M164.111 166.673l15.194-56.187-152.497-41.28-15.218 56.21 152.521 41.257z" fill="url(#paint6_linear_103_1949)"/><path d="M46.041 126.336L57.51 83.942 31.84 77.02l-11.468 42.37 25.67 6.945z" fill="url(#paint7_linear_103_1949)"/><path d="M76.069 134.466l11.468-42.394-25.67-6.945-11.469 42.394 25.67 6.945z" fill="url(#paint8_linear_103_1949)"/><path d="M106.092 142.596l11.468-42.394-25.67-6.945-11.468 42.394 25.67 6.945z" fill="url(#paint9_linear_103_1949)"/><path d="M136.119 150.702l11.468-42.37-25.646-6.944-11.468 42.394 25.646 6.92z" fill="url(#paint10_linear_103_1949)"/><path opacity=".3" d="M11.59 125.416l10.016-36.998c6.34 8.154 12.727 11.833 17.831 13.647 14.348 5.106 22.937-2.927 41.784.484 17.662 3.194 25.017 12.946 36.945 20.157 11.347 6.848 28.525 12.413 55.308 9.34l-9.388 34.651L11.59 125.416z" fill="url(#paint11_linear_103_1949)"/><path d="M176.885 160.018l-13.767-56.549L9.605 140.902l13.791 56.55 153.489-37.434z" fill="url(#paint12_linear_103_1949)"/><path d="M54 181.651l-10.404-42.636-25.815 6.291 10.404 42.661L54 181.651z" fill="url(#paint13_linear_103_1949)"/><path d="M84.219 174.295l-10.38-42.66L48 137.926l10.404 42.66 25.815-6.291z" fill="url(#paint14_linear_103_1949)"/><path d="M114.462 166.915l-10.404-42.661-25.84 6.316 10.404 42.636 25.84-6.291z" fill="url(#paint15_linear_103_1949)"/><path d="M144.684 159.559l-10.404-42.661-25.815 6.292 10.403 42.66 25.816-6.291z" fill="url(#paint16_linear_103_1949)"/><path opacity=".3" d="M23.398 197.452l-8.855-36.296c12.363 7.089 21.702 7.622 28.138 6.63 15.073-2.275 18.823-13.406 37.041-19.31 17.082-5.541 28.162-.411 42.074.315 12.339.629 28.598-2.13 48.703-14.93l6.387 26.157-153.488 37.434z" fill="url(#paint17_linear_103_1949)"/><path d="M158.256 140.806a6.195 6.195 0 10-.001-12.39 6.195 6.195 0 00.001 12.39z" fill="url(#paint18_linear_103_1949)"/><path d="M0 209.768l268.314-2.298v6.775c0 1.839-1.161 3.388-2.758 3.678l-75.873 13.333c-.895.169-1.815.194-2.734.121L2.928 216.181C1.282 216.036 0 214.487 0 212.6v-2.832z" fill="#12232B"/><path d="M97.355 198.904l168.174 12.389c3 .218 5.468-2.13 5.468-5.251V80.796c0-3.122-2.444-5.663-5.468-5.663H97.355c-2.468 0-4.476 2.3-4.476 5.106v113.22c0 2.831 2.008 5.275 4.476 5.445z" fill="#26274F"/><path d="M94.695 198.904l168.174 12.389c3 .218 5.468-2.13 5.468-5.251V80.796c0-3.122-2.443-5.663-5.468-5.663H94.695c-2.468 0-4.476 2.3-4.476 5.106v113.22c-.024 2.831 1.984 5.275 4.476 5.445z" fill="url(#paint19_linear_103_1949)"/><path d="M99.92 190.943l156.634 10.743c2.444.17 4.428-1.766 4.428-4.307V87.716c0-2.54-1.984-4.622-4.428-4.646l-156.633-.677c-2.057 0-3.702 1.863-3.702 4.186v99.863c0 2.347 1.67 4.356 3.702 4.501z" fill="url(#paint20_linear_103_1949)"/><path d="M172.844 78.545c0 1.162.871 2.105 1.935 2.105 1.065 0 1.936-.943 1.936-2.105 0-1.161-.871-2.105-1.936-2.105-1.088 0-1.935.944-1.935 2.105z" fill="#fff"/><path opacity=".48" d="M262.845 211.293L95.517 198.976l-.847-.072c-1.137-.073-2.177-.654-2.951-1.501 12.048-.653 19.525-4.936 24.339-9.34 9.678-8.856 8.008-17.616 18.46-23.447 13.041-7.284 23.275 1.936 33.171-7.139 6-5.517 3.048-9.63 10.428-17.857 8.177-9.123 13.5-6.05 21.702-14.277 10.379-10.381 5.177-18.463 14.129-25.915 10.839-9.05 22.549-.678 32.88-9.34 4.452-3.751 6.896-9.171 8.178-14.955h7.863c3 0 5.468 2.541 5.468 5.663v125.246c-.024 3.121-2.468 5.469-5.492 5.251z" fill="#fff"/><path d="M87.995 198.226l180.319 13.043-78.631 13.816c-.895.17-1.815.194-2.734.121L0 209.768l85.115-11.445a12.748 12.748 0 012.88-.097z" fill="url(#paint21_linear_103_1949)"/><path d="M241.992 211.365l-150.125-11.01-46.453 6.195 148.819 11.784 47.759-6.969zm-168.176-46.12c0 13.865 11.3 25.819 25.429 26.714l157.48 9.994c-16.646-1.065-29.952-14.083-29.952-29.11V0L73.816 5.856v159.389z" fill="#12232B"/><path d="M146.352 44.766c0 15.655 13.282 28.335 29.952 28.31 16.936-.024 30.896-13.139 30.896-29.303s-13.96-28.795-30.896-28.287c-16.646.533-29.952 13.624-29.952 29.28z" fill="url(#paint22_linear_103_1949)"/><path d="M83.71 44.064l54.995-.944v-9.558l-54.994 1.21v9.292zm0 7.67l54.995-.701v-4.791l-54.994.847v4.645zm0 7.671l54.995-.484V54.13l-54.994.629v4.646zm0 41.087l118.335 1.646v-4.767L83.711 96.04v4.452z" fill="#D8DEE8"/><path d="M211.698 102.259l-5.346-.073v-4.767l5.346.073v4.767z" fill="url(#paint23_linear_103_1949)"/><path d="M83.71 107.848l118.335 2.13v-4.767l-118.334-1.815v4.452z" fill="#D8DEE8"/><path d="M211.698 110.147l-5.346-.097v-4.767l5.346.097v4.767z" fill="url(#paint24_linear_103_1949)"/><path d="M83.71 115.228l118.335 2.59v-4.743l-118.334-2.323v4.476z" fill="#D8DEE8"/><path d="M211.698 118.035l-5.346-.121v-4.767l5.346.097v4.791z" fill="url(#paint25_linear_103_1949)"/><path d="M83.71 122.585l118.335 3.073v-4.743l-118.334-2.783v4.453z" fill="#D8DEE8"/><path d="M211.698 125.9l-5.346-.121v-4.767l5.346.121v4.767z" fill="url(#paint26_linear_103_1949)"/><path d="M83.71 137.321l127.989 4.355v-4.791l-127.988-4.041v4.477zm0 7.356l127.989 4.864v-4.767l-127.988-4.549v4.452zm0 7.356l127.989 5.396v-4.767l-127.988-5.081v4.452zm0 7.381l127.989 5.904v-4.767l-127.988-5.614v4.477z" fill="#D8DEE8"/><path d="M158.375 61.099l13.283-37.651 9.847-.194 13.573 37.845h-8.807l-2.782-8.977-13.839.072-2.734 8.905h-8.541zm23.057-15.68c-2.71-8.639-4.355-14.059-4.911-16.237a49.44 49.44 0 01-.678 2.541c-.314 1.065-1.742 5.662-4.282 13.793l9.871-.097z" fill="#fff"/><path d="M13.184 233.651l40.985 3.775c1.162.097 2.202-.75 2.299-1.911.097-1.162-.75-2.202-1.912-2.299l-40.985-3.775c-1.16-.097-2.201.75-2.298 1.912-.121 1.161.75 2.177 1.911 2.298zM2.176 228.4l8.903.823.484-5.154-8.903-.823c-.194-.024-.339.121-.363.291l-.412 4.476a.352.352 0 00.29.387z" fill="#D8DEE8"/><path d="M168.074 242.217l3.823.363a.755.755 0 00.847-.702.755.755 0 00-.702-.847l-3.823-.363-.145 1.549z" fill="#26274F"/><path d="M170.351 241.637c-.073.798-.678 1.427-1.476 1.5l-16.234 1.815.895-9.825 15.629 4.767a1.636 1.636 0 011.186 1.743z" fill="#D8DEE8"/><path d="M169.384 240.862c-.024.218-.581.363-1.379.315l-15.896-1.912.242-2.686 15.727 3.727c.774.096 1.306.338 1.306.556z" fill="#fff"/><path d="M10.377 231.643l142.649 13.333c2.71.242 3.629-9.583.895-9.824l-142.65-13.333a2.934 2.934 0 00-3.193 2.661l-.363 3.969a2.935 2.935 0 002.662 3.194z" fill="url(#paint27_linear_103_1949)"/><path d="M41.977 228.812l112.116 10.526.218-2.299-112.14-10.526-.194 2.299z" fill="#fff"/><path d="M40.5 234.474l1.306.121.92-9.872-1.307-.121-.919 9.872z" fill="url(#paint28_linear_103_1949)"/><path d="M10.574 231.692l1.301.12.908-9.856-1.3-.12-.909 9.856z" fill="#fff"/><path opacity=".3" d="M11.272 221.819l68.349 6.485c7.79 7.162 13.234 8.324 16.984 7.646 2.613-.46 6-2.081 11.178-1.307 5.008.75 5.274 2.759 9.363 2.904 6.048.194 8.129-4.162 12.653-2.807 2.42.726 2.033 2.057 5.396 4.09 1.258.75 6.435 3.895 12.387 2.443 3.46-.846 5.928-2.952 7.549-4.863 1.016 2.686 0 8.808-2.153 8.614L10.376 231.643a2.935 2.935 0 01-2.66-3.194l.362-3.969a2.934 2.934 0 013.194-2.661z" fill="url(#paint29_linear_103_1949)"/><defs><linearGradient id="paint0_linear_103_1949" x1="106.848" y1="68.454" x2="108.895" y2="124.645" gradientUnits="userSpaceOnUse"><stop offset=".004" stop-color="#fff"/><stop offset="1" stop-color="#F5F7FA"/></linearGradient><linearGradient id="paint1_linear_103_1949" x1="48.94" y1="26.104" x2="123.697" y2="133.809" gradientUnits="userSpaceOnUse"><stop stop-color="#FCC345"/><stop offset=".996" stop-color="#EE7058"/></linearGradient><linearGradient id="paint2_linear_103_1949" x1="47.838" y1="13.868" x2="122.595" y2="121.573" gradientUnits="userSpaceOnUse"><stop stop-color="#FCC345"/><stop offset=".996" stop-color="#EE7058"/></linearGradient><linearGradient id="paint3_linear_103_1949" x1="52.684" y1="10.204" x2="127.441" y2="117.909" gradientUnits="userSpaceOnUse"><stop stop-color="#FCC345"/><stop offset=".996" stop-color="#EE7058"/></linearGradient><linearGradient id="paint4_linear_103_1949" x1="62.723" y1="14.024" x2="137.48" y2="121.729" gradientUnits="userSpaceOnUse"><stop stop-color="#FCC345"/><stop offset=".996" stop-color="#EE7058"/></linearGradient><linearGradient id="paint5_linear_103_1949" x1="29.66" y1="57.663" x2="108.858" y2="108.974" gradientUnits="userSpaceOnUse"><stop stop-color="#FCC345"/><stop offset=".996" stop-color="#EE7058"/></linearGradient><linearGradient id="paint6_linear_103_1949" x1="28.509" y1="84.879" x2="111.789" y2="126.002" gradientUnits="userSpaceOnUse"><stop offset=".004" stop-color="#fff"/><stop offset="1" stop-color="#F5F7FA"/></linearGradient><linearGradient id="paint7_linear_103_1949" x1="17.364" y1="91.293" x2="116.583" y2="139.021" gradientUnits="userSpaceOnUse"><stop offset=".004" stop-color="#CC90BF"/><stop offset="1" stop-color="#7C6FB1"/></linearGradient><linearGradient id="paint8_linear_103_1949" x1="19.836" y1="86.158" x2="119.055" y2="133.887" gradientUnits="userSpaceOnUse"><stop offset=".004" stop-color="#CC90BF"/><stop offset="1" stop-color="#7C6FB1"/></linearGradient><linearGradient id="paint9_linear_103_1949" x1="22.304" y1="81.023" x2="121.523" y2="128.752" gradientUnits="userSpaceOnUse"><stop offset=".004" stop-color="#CC90BF"/><stop offset="1" stop-color="#7C6FB1"/></linearGradient><linearGradient id="paint10_linear_103_1949" x1="6.596" y1="67.141" x2="105.815" y2="114.87" gradientUnits="userSpaceOnUse"><stop offset=".004" stop-color="#CC90BF"/><stop offset="1" stop-color="#7C6FB1"/></linearGradient><linearGradient id="paint11_linear_103_1949" x1="23.666" y1="94.69" x2="106.945" y2="135.812" gradientUnits="userSpaceOnUse"><stop offset=".004" stop-color="#CC90BF"/><stop offset="1" stop-color="#7C6FB1"/></linearGradient><linearGradient id="paint12_linear_103_1949" x1="86.119" y1="130.489" x2="104.119" y2="180.871" gradientUnits="userSpaceOnUse"><stop offset=".004" stop-color="#fff"/><stop offset="1" stop-color="#F5F7FA"/></linearGradient><linearGradient id="paint13_linear_103_1949" x1="31.518" y1="163.724" x2="141.451" y2="157.67" gradientUnits="userSpaceOnUse"><stop stop-color="#F28E86"/><stop offset="1" stop-color="#E874AA"/></linearGradient><linearGradient id="paint14_linear_103_1949" x1="24.47" y1="158.405" x2="134.403" y2="152.351" gradientUnits="userSpaceOnUse"><stop stop-color="#F28E86"/><stop offset="1" stop-color="#E874AA"/></linearGradient><linearGradient id="paint15_linear_103_1949" x1="20.219" y1="152.932" x2="130.152" y2="146.879" gradientUnits="userSpaceOnUse"><stop stop-color="#F28E86"/><stop offset="1" stop-color="#E874AA"/></linearGradient><linearGradient id="paint16_linear_103_1949" x1="13.235" y1="147.611" x2="123.168" y2="141.557" gradientUnits="userSpaceOnUse"><stop stop-color="#F28E86"/><stop offset="1" stop-color="#E874AA"/></linearGradient><linearGradient id="paint17_linear_103_1949" x1="15.153" y1="131.153" x2="86.701" y2="161.329" gradientUnits="userSpaceOnUse"><stop stop-color="#F28E86"/><stop offset="1" stop-color="#E874AA"/></linearGradient><linearGradient id="paint18_linear_103_1949" x1="162.548" y1="130.16" x2="153.95" y2="139.067" gradientUnits="userSpaceOnUse"><stop offset=".004" stop-color="#CC90BF"/><stop offset="1" stop-color="#7C6FB1"/></linearGradient><linearGradient id="paint19_linear_103_1949" x1="268.311" y1="143.22" x2="90.203" y2="143.22" gradientUnits="userSpaceOnUse"><stop stop-color="#47AC34"/><stop offset="1" stop-color="#077534"/></linearGradient><linearGradient id="paint20_linear_103_1949" x1="260.995" y1="142.049" x2="96.226" y2="142.049" gradientUnits="userSpaceOnUse"><stop stop-color="#9080BA"/><stop offset=".996" stop-color="#5961A9"/></linearGradient><linearGradient id="paint21_linear_103_1949" x1="268.313" y1="211.712" x2="0" y2="211.712" gradientUnits="userSpaceOnUse"><stop stop-color="#47AC34"/><stop offset="1" stop-color="#077534"/></linearGradient><linearGradient id="paint22_linear_103_1949" x1="162.454" y1="5.699" x2="205.409" y2="121.255" gradientUnits="userSpaceOnUse"><stop stop-color="#CAD400"/><stop offset="1" stop-color="#51AE32"/></linearGradient><linearGradient id="paint23_linear_103_1949" x1="210.566" y1="95.662" x2="200.946" y2="121.72" gradientUnits="userSpaceOnUse"><stop stop-color="#F28E86"/><stop offset="1" stop-color="#E874AA"/></linearGradient><linearGradient id="paint24_linear_103_1949" x1="213.136" y1="96.569" x2="203.547" y2="122.542" gradientUnits="userSpaceOnUse"><stop stop-color="#F28E86"/><stop offset="1" stop-color="#E874AA"/></linearGradient><linearGradient id="paint25_linear_103_1949" x1="210.556" y1="111.43" x2="200.999" y2="137.318" gradientUnits="userSpaceOnUse"><stop stop-color="#F28E86"/><stop offset="1" stop-color="#E874AA"/></linearGradient><linearGradient id="paint26_linear_103_1949" x1="213.109" y1="112.382" x2="203.583" y2="138.186" gradientUnits="userSpaceOnUse"><stop stop-color="#F28E86"/><stop offset="1" stop-color="#E874AA"/></linearGradient><linearGradient id="paint27_linear_103_1949" x1="89.536" y1="211.882" x2="77.067" y2="245.591" gradientUnits="userSpaceOnUse"><stop stop-color="#FCC345"/><stop offset=".996" stop-color="#EE7058"/></linearGradient><linearGradient id="paint28_linear_103_1949" x1="42.259" y1="229.655" x2="40.953" y2="229.534" gradientUnits="userSpaceOnUse"><stop stop-color="#9080BA"/><stop offset=".996" stop-color="#5961A9"/></linearGradient><linearGradient id="paint29_linear_103_1949" x1="89.575" y1="211.777" x2="77.075" y2="245.568" gradientUnits="userSpaceOnUse"><stop offset=".004" stop-color="#EE7058"/><stop offset="1" stop-color="#FCC345"/></linearGradient></defs></svg>