<svg width="586" height="534" fill="none" xmlns="http://www.w3.org/2000/svg"><g opacity=".5" filter="url(#filter0_d_268_4)"><path d="M538.944 220.299c-1.302 33.516 9.033 64.89 14.775 98.942 7.272 41.703-1.532 90.677-45.549 106.363-17.225 6.122-34.449 10.331-51.673 16.452-10.297 3.826-20.746 8.035-31.311 12.358-73.949 30.379-154.024 67.491-229.619 29.384a159.843 159.843 0 01-26.985-18.671c-8.306-7.116-15.808-15.113-22.392-24.066-6.583-8.952-12.172-18.785-16.688-29.651-6.469-13.391-7.235-27.93-11.828-42.087-11.1-35.582-38.276-60.451-61.625-89.529-20.669-26.017-34.066-58.921-20.669-89.912 21.435-51.651 63.922-89.146 102.581-129.32 5.358-5.738 11.865-10.33 19.138-14.156 7.655-4.59 15.693-7.27 24.114-9.947 12.248-3.444 24.114-5.357 36.745-4.974 39.808 2.295 79.615 5.356 119.078 1.569 9.684-.919 19.33-2.22 29.014-3.368 9.683-1.186 19.367-2.257 29.128-3.137 70.428-6.504 139.709 45.53 151.306 115.47 1.57 9.221 2.067 18.518 1.34 27.777a104.219 104.219 0 01-6.009 27.547c-1.187 7.384-2.297 14.998-2.871 22.956z" fill="#120E0E"/><path d="M537.946 220.227l-.001.017v.017c-.655 16.87 1.619 33.179 4.763 49.497 1.269 6.585 2.674 13.148 4.087 19.75 2.101 9.815 4.22 19.716 5.937 29.899l.001.005c3.616 20.737 3.223 43.224-3.499 62.437-6.712 19.182-19.723 35.088-41.4 42.813-8.584 3.051-17.173 5.627-25.788 8.21l-.014.004c-8.604 2.581-17.235 5.169-25.87 8.238l-.007.002-.007.003c-10.312 3.832-20.774 8.046-31.34 12.37h-.001c-4.006 1.646-8.027 3.31-12.063 4.98-33.266 13.768-67.535 27.95-101.96 35.342-38.565 8.28-77.226 8.013-114.752-10.898a158.941 158.941 0 01-26.8-18.545c-8.25-7.069-15.7-15.01-22.236-23.899-6.536-8.888-12.085-18.651-16.571-29.443l-.011-.026-.012-.025c-3.181-6.587-4.97-13.475-6.541-20.539a651.597 651.597 0 01-.951-4.372c-1.212-5.643-2.445-11.379-4.283-17.044-5.6-17.949-15.247-33.168-26.382-47.513-5.567-7.173-11.515-14.137-17.52-21.113l-1.62-1.881c-5.475-6.357-10.974-12.742-16.274-19.343-20.588-25.916-33.708-58.414-20.533-88.891l.003-.006.003-.007c18.01-43.4 50.939-76.752 84.067-110.305 6.127-6.207 12.262-12.42 18.31-18.705l.006-.005.005-.006c5.264-5.638 11.673-10.166 18.873-13.954l.024-.013.024-.014c7.539-4.522 15.469-7.17 23.887-9.847 12.166-3.42 23.919-5.31 36.414-4.933 4.007.231 8.015.47 12.024.709 35.781 2.133 71.625 4.27 107.194.856 6.895-.654 13.779-1.502 20.654-2.35 2.795-.344 5.589-.688 8.381-1.02h.004c9.676-1.185 19.349-2.255 29.097-3.134h.002c69.92-6.457 138.718 45.229 150.228 114.637v.005c1.557 9.145 2.049 18.359 1.329 27.53a103.198 103.198 0 01-5.952 27.284l-.033.089-.015.095c-1.188 7.391-2.303 15.04-2.881 23.042z" stroke="#97FF95" stroke-width="2"/></g><g filter="url(#filter1_d_268_4)"><path d="M521.149 236.885c-1.133 29.132 7.865 56.402 12.864 85.999 6.333 36.249-1.333 78.816-39.66 92.451-14.998 5.321-29.995 8.979-44.993 14.3-8.965 3.326-18.064 6.984-27.262 10.742-64.39 26.405-134.112 58.663-199.935 25.54a139.255 139.255 0 01-23.497-16.228c-7.232-6.186-13.764-13.136-19.497-20.918-5.732-7.782-10.598-16.329-14.531-25.774-5.632-11.639-6.299-24.276-10.298-36.581-9.665-30.928-33.328-52.544-53.658-77.819-17.997-22.613-29.662-51.213-17.997-78.151 18.663-44.895 55.658-77.486 89.319-112.404 4.666-4.989 10.332-8.98 16.664-12.305 6.666-3.99 13.664-6.319 20.997-8.646 10.665-2.993 20.996-4.656 31.995-4.324 34.661 1.996 69.322 4.656 103.683 1.364 8.432-.798 16.831-1.929 25.263-2.927 8.432-1.03 16.864-1.962 25.363-2.727 61.323-5.653 121.647 39.575 131.745 100.366 1.367 8.015 1.8 16.096 1.167 24.144a90.395 90.395 0 01-5.233 23.944c-1.033 6.419-1.999 13.037-2.499 19.954z" fill="#120E0E"/><path d="M520.151 236.813l-.001.016v.017c-.571 14.678 1.411 28.866 4.15 43.053 1.106 5.73 2.329 11.437 3.56 17.175 1.829 8.528 3.673 17.127 5.167 25.977l.001.005c3.146 18.009 2.803 37.531-3.041 54.203-5.834 16.643-17.137 30.435-35.969 37.134-7.471 2.651-14.946 4.889-22.448 7.134l-.011.004c-7.492 2.242-15.011 4.493-22.533 7.162l-.007.002-.007.003c-8.981 3.331-18.092 6.994-27.292 10.753l-.002.001c-3.488 1.43-6.989 2.877-10.504 4.329-28.966 11.967-58.793 24.289-88.756 30.711-33.561 7.194-67.191 6.959-99.83-9.46a138.202 138.202 0 01-23.312-16.103c-7.176-6.138-13.656-13.033-19.341-20.751-5.685-7.717-10.511-16.194-14.413-25.565l-.011-.026-.012-.025c-2.764-5.711-4.319-11.686-5.686-17.823-.28-1.258-.553-2.524-.827-3.796-1.056-4.906-2.131-9.9-3.733-14.831C150.41 350.49 142 337.247 132.3 324.773c-4.85-6.237-10.031-12.293-15.259-18.356l-1.411-1.635c-4.767-5.526-9.553-11.073-14.167-16.809-17.916-22.513-29.303-50.707-17.86-77.129l.002-.007.003-.007c15.671-37.697 44.322-66.665 73.167-95.83 5.337-5.396 10.68-10.799 15.949-16.264l.005-.006.005-.005c4.572-4.887 10.139-8.815 16.399-12.102l.025-.014.024-.014c6.549-3.92 13.439-6.219 20.769-8.546 10.583-2.969 20.802-4.61 31.665-4.283 3.488.201 6.977.409 10.467.617 31.154 1.854 62.374 3.712 93.354.743 6.007-.568 12.004-1.306 17.991-2.043 2.433-.299 4.865-.598 7.295-.886h.004c8.425-1.03 16.846-1.96 25.331-2.724h.002c60.818-5.607 120.658 39.275 130.668 99.534l.001.004c1.353 7.94 1.781 15.938 1.155 23.898a89.438 89.438 0 01-5.175 23.679l-.033.09-.015.094c-1.034 6.426-2.006 13.079-2.51 20.041z" stroke="#97FF95" stroke-width="2"/></g><defs><filter id="filter0_d_268_4" x="0" y="0" width="586" height="534" filterUnits="userSpaceOnUse" color-interpolation-filters="sRGB"><feFlood flood-opacity="0" result="BackgroundImageFix"/><feColorMatrix in="SourceAlpha" values="0 0 0 0 0 0 0 0 0 0 0 0 0 0 0 0 0 0 127 0" result="hardAlpha"/><feOffset dy="4"/><feGaussianBlur stdDeviation="15"/><feComposite in2="hardAlpha" operator="out"/><feColorMatrix values="0 0 0 0 0.23316 0 0 0 0 0.708333 0 0 0 0 0.594292 0 0 0 1 0"/><feBlend in2="BackgroundImageFix" result="effect1_dropShadow_268_4"/><feBlend in="SourceGraphic" in2="effect1_dropShadow_268_4" result="shape"/></filter><filter id="filter1_d_268_4" x="48" y="42" width="518" height="472" filterUnits="userSpaceOnUse" color-interpolation-filters="sRGB"><feFlood flood-opacity="0" result="BackgroundImageFix"/><feColorMatrix in="SourceAlpha" values="0 0 0 0 0 0 0 0 0 0 0 0 0 0 0 0 0 0 127 0" result="hardAlpha"/><feOffset dy="4"/><feGaussianBlur stdDeviation="15"/><feComposite in2="hardAlpha" operator="out"/><feColorMatrix values="0 0 0 0 0.23316 0 0 0 0 0.708333 0 0 0 0 0.594292 0 0 0 1 0"/><feBlend in2="BackgroundImageFix" result="effect1_dropShadow_268_4"/><feBlend in="SourceGraphic" in2="effect1_dropShadow_268_4" result="shape"/></filter></defs></svg>