<svg width="107" height="37" fill="none" xmlns="http://www.w3.org/2000/svg"><path d="M35.955 31.855c-.086.9-.562 1.587-1.254 2.144-2.164 1.415-4.543 1.5-7.01 1.458-7.052-.043-14.105-.129-21.157.043-1.255.042-2.337-.686-3.548-.558-.952-.814-2.12-1.415-2.466-2.744.216-.814.432-1.543 1.557-1.329 3.764.643 7.615.172 11.38.3.865.043 1.73.086 2.552.258 1.904 1.415 3.505-.129 5.236-.558 4.326.258 8.61.643 12.893-.257.779-.086 2.164-.472 1.817 1.243z" fill="#9700CF"/><path d="M2.12 3.345C3.157 1.8 4.584.987 6.445.9c.26-.172.476-.172.735-.043 4.544 0 9.043-.043 13.586-.086C23.45.73 26.09.858 28.73.944h1.125c2.682-.172 4.023 1.8 5.58 3.472-1.124 1.244-1.99-.171-3.028-.3-4.24-.386-8.48-1.2-12.547.73-.995.256-2.034.256-2.986-.172-.606-.515-1.298-.858-2.12-.9-3.288-.044-6.62-.044-9.908 0-.476 0-.822.257-1.168.471-.736.043-1.515.257-1.558-.9z" fill="#E057FE"/><path d="M2.986 34.942c.087-.386.26-1.115.693-.772 1.514 1.286 3.158.557 4.759.6 7.14.086 14.278-.085 21.417.129 1.817.043 3.159-1.243 4.89-.9-1.212 1.5-2.726 2.486-4.673 2.615-7.875.472-15.75.557-23.668-.043-1.298-.128-2.466-.686-3.418-1.63z" fill="#9203CB"/><path d="M16.312 31.77H3.332c-.952 0-2.077-1.33-2.77.386-.042-1.158-.691-2.23-.475-3.387.173-.13.39-.215.606-.172 3.634.086 7.312.129 10.946 0 .822-.343 1.731.043 2.51-.343.52.129.909-.472 1.428-.3.735 1.157 1.384 2.4.735 3.816zm19.644.085c-.087-1.2-1.341-.771-1.644-.686-4.543 1.244-9.086.686-13.673.172-.778-1.243-.346-2.444.217-3.601.432-.643 1.168.471 1.6-.3.65 1.286 1.775.728 2.77.728 3.677.73 7.355.858 11.206-.043.13.558.216 1.287-.087 2.058.087.6.13 1.2-.389 1.672z" fill="#9A02D0"/><path d="M46.254 26.11v-2.144c0-3.558 0-3.558 3.894-3.258 2.682.214 3.937 1.715 3.59 4.244-.259 1.844-1.557 3.001-3.85 2.873-1.73-.086-2.077.514-1.947 2.015.043.557.476 1.5-.779 1.586-1.428.043-.865-1.029-.908-1.672-.044-1.2 0-2.4 0-3.644z" fill="#050505"/><path d="M54.82 15.478c.172.557.042.771-.433.814-.866.129-1.471-.171-1.558-1.029-.216-1.758-1.255-1.972-2.812-1.972-1.342 0-2.164.3-2.38 1.715-.13.9-.692 1.543-1.644 1.158-1.169-.472-.13-1.244.043-1.715.865-2.616 1.86-5.23 2.856-7.803.476-1.244 1.947-1.63 2.38-.643 1.297 3.172 2.422 6.388 3.547 9.475z" fill="#030303"/><path d="M57.978 15.606c-.086.343-.086.472-.13.6-.389.815.866 2.573-.951 2.444-1.558-.086-.693-1.715-.78-2.572-.172-2.058-.042-4.116-.042-6.174 0-1.072.043-2.272 1.6-1.115.52.386.736.043 1.082-.128 1.601-.6 2.986-.386 4.024 1.029 1.082 1.457 1.038 4.073-.13 5.402-1.168 1.372-2.64 1.586-4.197.686-.13-.086-.26-.086-.476-.172z" fill="#060606"/><path d="M68.794 24.524V21.65c0-.557.13-.943.822-.943.65 0 .909.257.909.858v8.96c0 .472-.216 1.072-.65.772-1.297-.9-2.465.171-3.72.128-1.385-.085-2.337-.814-2.726-2.057-.562-1.673-.606-3.387.65-4.802.951-1.072 2.206-1.287 3.504-.73.346.172.606.387 1.211.687z" fill="#050505"/><path d="M66.632 15.477c-.39.815-.217 1.63-.217 2.4 0 .644-.26.858-.908.858-.606 0-.693-.386-.693-.814V9.346c0-.6.39-1.2.823-.815 1.081.815 1.903.086 2.855-.085 1.471-.258 2.596.386 3.245 1.629.866 1.672.866 3.473-.303 5.059-.865 1.115-2.033 1.543-3.461 1.029-.476-.257-.865-.472-1.341-.686z" fill="#060606"/><path d="M80.867 16.335c-2.423.043-3.894-1.286-4.154-3.516-.26-2.23.996-4.116 3.03-4.459 1.903-.343 3.547.73 4.11 2.616.346 1.2.216 1.929-1.298 1.8a18.236 18.236 0 00-2.164 0c-.606.043-1.341-.3-1.774.343-.13.172.087.686.26.944.476.685 1.211.986 2.034.814.26-.043.605-.129.778-.343.606-.557 1.515-1.2 1.904-.429.39.772-.606 1.458-1.428 1.801-.519.257-1.082.343-1.298.429z" fill="#070707"/><path d="M2.12 3.344c.39.771 1.126.514 1.775.557 2.38.257 4.802.343 7.182.129.952-.086 1.644.257 1.774 1.329-.692 1.8-2.293 2.315-3.98 2.744-1.775-.215-3.592-.172-5.366-.172-1.384 0-2.552-.428-3.028-1.843.13-1.158.735-2.015 1.644-2.744z" fill="#DC53FD"/><path d="M61.96 27.826c-.13 2.443-1.601 3.772-4.024 3.644-2.207-.129-3.462-1.672-3.375-4.073.086-2.401 1.6-3.902 3.937-3.773 2.25.086 3.548 1.672 3.462 4.202z" fill="#040404"/><path d="M86.62 28.21v1.715c.043 1.158-.086 2.187-1.557 1.03-.693-.515-.823.214-1.212.3-1.168.257-2.293.428-3.245-.472-.692-.643-.822-1.544-.476-2.358.476-1.158 1.514-1.415 2.64-1.458.302 0 .605 0 .865-.086.519-.171 1.47.215 1.298-.857-.13-.858-.779-1.158-1.601-1.072-.346.043-.736.129-.995.343-.563.472-1.341 1.115-1.774.343-.433-.772.519-1.329 1.211-1.715 2.423-1.2 4.76.172 4.803 2.787.043.514.043 1.029.043 1.5z" fill="#030303"/><path d="M102.544 29.668c.476.729 1.254.686 1.903.429.347-.129.693-.643.693-.986.043-.686-.52-.386-.909-.429-.346-.043-.649-.386-.952-.386-1.687 0-2.855-1.114-2.769-2.444.13-1.414 1.558-2.272 3.202-2.272 1.514 0 2.639.515 3.158 2.058-.692.3-1.298.429-1.774-.172-.605-.771-1.384-.686-2.163-.428-.346.128-.606.471-.476.857.303.944 1.255.815 1.947 1.072.39.172.822.215 1.255.343.822.257 1.298.815 1.341 1.715.043.986-.476 1.586-1.298 2.058-1.904 1.029-4.024.343-5.235-1.715.779-.6 1.514-.557 2.077.3z" fill="#050505"/><path d="M32.883 3.901c.952-.386 1.558 1.072 2.553.429.13.3.303.557.433.857-.13 1.972-1.298 2.616-3.115 2.744-2.856.215-5.539-.3-8.091-1.543-.693-.172-1.385-.386-1.472-1.244.174-.643.693-.943 1.255-.9 2.856.172 5.625-.257 8.437-.343z" fill="#DC53FD"/><path d="M94.366 25.639c-1.169.557-1.601-.258-2.25-.558-.693-.343-1.688-.471-2.034.43-.39.985.606 1.071 1.255 1.285.13.043.26.129.39.129 1.254.3 2.639.386 2.768 2.1.087 1.073-.562 1.802-1.47 2.102-1.472.471-2.986.557-4.24-.558-.39-.343-.823-.9-.477-1.243.346-.429 1.039-.386 1.514.128.217.215.39.472.65.558.865.3 1.903.471 2.25-.472.432-1.114-.736-1.072-1.428-1.329-1.298-.429-2.986-.471-2.986-2.486.043-1.287.952-1.887 2.077-2.101 1.687-.258 3.245 0 3.98 2.015z" fill="#060606"/><path d="M36.389 30.14c-.044-.557-.044-1.115-.087-2.1-.39 1.028-.779 1.286-1.601 1.243-2.899-.086-5.798-.086-8.653.128-1.082.086-.433-.9-.952-1.029.39-1.329 1.298-2.058 2.682-2.23.563.387 1.169.387 1.86.215 2.164-.557 4.414.129 6.577-.214.52.129.303.643.52.943 0 .986.26 2.058-.346 3.044z" fill="#9E10D5"/><path d="M75.588 31.47c-1.947.085-3.158-.858-3.634-2.66-.476-1.843-.13-3.6 1.644-4.672 1.47-.9 3.028-.73 4.37.385.476.386 1.125 1.03.649 1.587-.476.557-1.125.214-1.601-.343-.909-1.072-2.034-1.158-2.899-.043-.995 1.243-.952 2.744.13 3.901.865.9 1.99.858 2.769-.214.476-.643 1.125-.943 1.6-.472.52.558-.129 1.158-.518 1.63-.606.729-1.515.9-2.51.9z" fill="#040404"/><path d="M24.705 6.002c.39-.429.822-.257 1.125 0 2.293 2.015 5.106 1.158 7.745 1.33 1.557.128 1.514-1.459 2.336-2.144 1.082 2.186.952 4.501.822 6.816-1.298-.514-.778-1.371-.519-2.186-2.25.6-4.63-.129-6.966.257-1.817-1.029-3.418-2.315-4.543-4.073z" fill="#D54EFC"/><path d="M29.076 9.904c.39-.343.606-.9 1.385-.6.736.257 1.558.171 2.337.171 1.817.086 4.11-.557 3.894 2.53v3.044c-.217.085-.39.085-.52-.086-.26-.986-.778-1.63-1.947-1.5-1.211.128-2.38-.558-3.634-.387-.995-.814-1.601-1.8-1.515-3.172z" fill="#CE47F6"/><path d="M98.302 31.426c-1.168-.043-1.86-.557-1.86-1.8v-3.388c0-.428.216-1.029-.476-1.243-1.385-.429-1.038-.9 0-1.33.433-.17.476-.428.476-.814 0-.514-.043-.986.735-.986.78 0 .996.343.952 1.03-.043.514.217.642.736.77 1.038.215.909.773.13 1.287-1.212.772-1.385 4.373-.13 5.102.39.257.735.386.649.858-.087.728-.736.428-1.212.514z" fill="#070707"/><path d="M.52 6.088c1.038 1.115 2.336 1.329 3.85 1.329 1.601-.043 3.245-.386 4.803.386-.043 1.415-.779 2.315-2.034 2.83-2.076-.815-4.283-.3-6.36-.772-.346-.172-.52-.472-.692-.772-.217-1.072 0-2.058.432-3.001z" fill="#D54EFC"/><path d="M73.511 10.89V6.602c0-.471-.13-1.029.693-1.029.735 0 1.038.257 1.038.986v8.79c0 .6-.216.9-.865.943-.909.042-.866-.515-.866-1.115V10.89z" fill="#0D0D0D"/><path d="M36.388 15.049h.347v12.004a6.568 6.568 0 01-.347-.815c-.692-.686-.562-1.586-.605-2.443-.044-.815 0-1.587 0-2.401 0-.472.043-.986-.044-1.5-.26-1.158-.778-1.844-2.12-1.158-.562.3-1.168.6-1.774.043-.432-.686-.432-1.501-.519-2.273.13-.9.779-1.157 1.514-1.157 1.169.043 2.337-.386 3.548-.3z" fill="#BE37EA"/><path d="M.086 13.806v-.9c.39-.387-.13-1.158.606-1.373.952.472 1.903.858 2.985.943.909.086 1.817.3 2.337 1.244.216.814.302 1.586-.39 2.23-.39 0-.822 0-1.168.3-1.298.3-2.596.428-3.894-.13-.65-.642-.043-1.586-.476-2.315z" fill="#C53EF1"/><path d="M29.898.9l-.433.43c-.649-.386-1.384-.215-2.077-.215H9.13c-.693 0-1.428.129-2.12-.171C6.835.9 6.662.9 6.49.858 7.745.129 9.173.643 10.47.386A189.195 189.195 0 0126.827.43c.995.257 2.12-.3 3.072.472z" fill="#E568FE"/><path d="M.043 21.952v-1.33c.173-.342.346-.642.736-.814 1.6-.3 3.245-.429 4.802.129.692.471.952 1.072.606 1.886-.736.729-1.644.343-2.423.257-1.6-.171-2.466.343-2.466 2.058-.13.429-.303.9-.909.858-.476-.944.173-2.058-.346-3.044z" fill="#B32FE2"/><path d="M26.826.429H10.428c.822-.686 1.817-.343 2.682-.343a525.17 525.17 0 0111.64 0c.692 0 1.47-.257 2.076.343z" fill="#FEFEF4"/><path d="M.043 21.951c.78.9.217 1.972.39 2.959.519.471.562 1.114.562 1.757 0 .772.043 1.544-.606 2.144H0c.087-2.315.087-4.587.043-6.86z" fill="#9A00D9"/><path d="M.475 20.194c-.13.129-.26.257-.39.429v-6.817c.65.6.26 1.415.39 2.1.822.987.563 2.144.52 3.302-.087.386-.303.686-.52.986z" fill="#B41AE9"/><path d="M.475 11.618c0 .472.087.944-.39 1.287V9.089c.13.128.26.257.39.429.52.686.65 1.414 0 2.1z" fill="#D038F8"/><path d="M102.544 29.669c-.606-.643-1.342-.643-2.077-.3.822-.815 1.557-1.115 2.077.3z" fill="#F4F4F4"/><path d="M21.287 27.525c-.216 1.286-.39 2.53-.605 3.816-1.558 1.672-2.943 1.8-4.37.471-.606-1.243-.26-2.744-1.125-3.901-.952-1.072-.563-2.401-.65-3.602.13-3.13.303-3.344 2.986-4.33a3.064 3.064 0 011.082-.043c1.038.258 2.12.343 2.899 1.2.778 1.03.778 2.23.692 3.43-.26.944-.173 2.059-.909 2.959z" fill="#FDFBFD"/><path d="M6.101 21.908c-.173-.557-.303-1.157-.476-1.715-1.168-1.329-1.384-2.7-.346-4.201.433-.686.346-1.415.433-2.187 0-1.415.303-2.658 1.6-3.516.606-.857 1.255-1.714 1.861-2.572 1.125-.729 2.293-1.415 3.418-2.144 1.212-1.2 2.683-1.543 4.327-1.243h2.986c1.21.043 2.552-.343 3.46.9.433.258.91.472 1.342.73 1.644 1.114 3.159 2.4 4.413 3.944.52 1.029 1.082 2.057 1.601 3.044.822.643 1.125 1.543.866 2.443-.346 1.244.173 2.401.043 3.559.173.815-.087 1.63-.346 2.4-.39.987-.909 1.93-1.385 2.873-.649.772-.865 1.973-2.163 2.058-.866.686-1.73 1.33-2.596 2.015-.303.129-.65.258-.952.43-1.601.9-1.904.256-1.514-1.244 1.081-1.2 2.51-2.058 3.504-3.302.952-.814 1.688-1.757 2.12-2.958.303-.729.52-1.5.563-2.315.043-1.072 0-2.1 0-3.173.043-1.071-.433-1.972-.822-2.915-.822-1.586-2.077-2.83-3.289-4.073-4.023-2.873-8.134-2.787-12.287-.343-1.99.943-3.072 2.658-3.895 4.588-.389.686-.605 1.414-.692 2.229-.26 1.158-.52 2.315-.13 3.516.13.557.217 1.157.39 1.715.173.557.303 1.071.562 1.586.563.986 1.212 1.93 2.077 2.7.779.816 1.73 1.416 2.683 2.016.562.343 1.384.643.822 1.586 0 .686-.26 1.115-.995.73-.52-.258-.996-.43-1.601-.301-1.601-.257-2.25-1.844-3.592-2.444-.562-.686-.951-1.5-1.47-2.23-.303-.642-.693-1.328-.52-2.186z" fill="#FDFCFA"/><path d="M16.917 4.373a163.97 163.97 0 01-4.327 1.243c-.13-.986-.562-1.071-1.6-1.029-2.38.086-4.89.944-7.097-.686-.26-.643-.043-.857.65-.857 3.72.043 7.441.043 11.119 0 .995 0 1.255.514 1.255 1.329zm6.447.901c-1.169-.3-2.293-.6-3.462-.9.822-.987 1.904-1.373 3.245-1.33 2.596.086 5.193.043 7.789 0 .822 0 1.6-.043 2.033.858-2.553 1.329-5.279.857-7.961.814-.779 0-1.255 0-1.644.558zM6.967.943c6.88 0 13.759-.042 20.638-.042.606 0 1.298-.172 1.817.428H9.218c-.736 0-1.601.3-2.25-.386z" fill="#E454FE"/><path d="M8.438 26.153c1.557.343 2.163 1.8 3.288 2.701.043.258.26.73-.043.686-3.462-.514-6.966-.343-10.428-.085-.432.042-.605-.3-.778-.6V26.71c2.596-1.158 5.278-.858 7.96-.558z" fill="#9E10D5"/><path d="M14.321 28.34c-.865-1.63-3.072-1.716-3.98-3.345-.13-1.072.778-1.115 1.47-1.372.736-.043 1.602.215 2.12-.6.91-.257.953.472 1.169 1.029.216 1.286.216 2.53.087 3.816 0 .729-.347.729-.866.471z" fill="#A51BDB"/><path d="M26.48 24.524c-.953 1.372-2.078 2.572-3.808 3-.476.344-.952 1.33-1.385 0 .13-.985.26-2.014.346-3 .346-.386.52-1.03 1.255-.986.649.343 1.255-.13 1.904 0 .605.214 1.255.428 1.687.986z" fill="#A419DA"/><path d="M48.028 24.353c-.044-1.158-.346-2.273 1.47-2.101 1.472.129 2.553.386 2.51 2.1-.043 1.801-1.298 1.844-2.682 1.93-1.99.214-1.125-1.2-1.298-1.93z" fill="#FDFDFD"/><path d="M50.147 7.374c.476 1.33.736 2.1.995 2.873.174.557.823 1.243.044 1.629-.563.257-1.515.257-2.077 0-.736-.386-.087-1.072.087-1.63.26-.771.519-1.5.951-2.872z" fill="#E4E4E4"/><path d="M61.873 12.22c-.043 1.414-.519 2.529-1.99 2.572-1.558.043-1.99-1.158-1.99-2.487 0-1.286.389-2.486 1.947-2.486 1.6-.043 1.903 1.157 2.033 2.4z" fill="#F9F9F9"/><path d="M68.795 27.74c-.087 1.243-.52 2.357-2.034 2.357-1.6 0-1.947-1.243-1.947-2.53 0-1.285.39-2.529 1.948-2.529 1.6-.043 2.033 1.2 2.033 2.701zm1.688-15.65c0 1.501-.52 2.702-1.947 2.745-1.558.085-2.077-1.158-2.077-2.487 0-1.244.346-2.53 1.947-2.573 1.558 0 1.99 1.158 2.077 2.316z" fill="#F8F8F8"/><path d="M80.174 11.662c-.562-.386-1.6.471-1.558-.686.044-.9.91-1.33 1.688-1.33.909 0 1.947.515 1.774 1.458-.173 1.072-1.341.043-1.904.558z" fill="#DEDEDE"/><path d="M60.315 27.525c-.13 1.372-.39 2.658-2.163 2.572-1.601-.086-1.86-1.286-1.904-2.572 0-1.415.39-2.616 2.12-2.573 1.644.043 1.817 1.372 1.947 2.573z" fill="#FAFAFA"/><path d="M85.02 28.554c-.302 1.329-1.124 1.715-2.25 1.629-.691-.043-1.34-.429-1.167-1.158.346-1.243 1.514-.986 2.466-1.072.562-.042 1.081 0 .952.6z" fill="#EAEAEA"/><path d="M27.691 26.325c.952-.515.996-1.672 1.774-2.273 2.207-1.843 4.543-1.029 6.88-.428v2.572c-.52-.086 0 1.029-1.125.729-1.99-.6-4.154-.643-6.23.128-.823.343-1.169.086-1.299-.728z" fill="#A519DB"/><path d="M31.24 19.336c.086-2.144.086-4.288-.52-6.388.26-.43.65-1.072 1.126-.643.822.771 1.73.557 2.639.557 1.428.043 2.293.514 1.947 2.143-.649.987-1.687.815-2.683.9-.735.044-1.86-.514-2.033.901.303.772.13 1.586.13 2.358-.173.258-.39.3-.606.172z" fill="#C63EF1"/><path d="M7.313 10.333c-.52 1.157-1.038 2.358-1.6 3.515-.823-.772-1.861-1.029-2.943-.9-1.168.128-1.817-.386-2.336-1.33V9.476c2.293.257 4.759-.643 6.88.858z" fill="#CE47F6"/><path d="M31.24 19.336h.346c.173-.129.173-.386.432-.429.26-.128.52-.214.78-.343 2.768-1.286 3.504-.771 3.547 2.487-1.73 1.672-3.634 1.286-5.581.429.173-.686.303-1.415.476-2.144z" fill="#B42FE3"/><path d="M30.763 21.48c1.86-.172 3.764.385 5.581-.43v2.573c-2.293.215-4.63-.428-6.88.429.434-.857.866-1.715 1.299-2.572z" fill="#AD25E3"/><path d="M32.062 18.907l-.433.43c0-.858.043-1.673.043-2.53.65.6.26 1.415.39 2.1z" fill="#B32DE4"/><path d="M5.28 16.035c.042 1.415-.044 2.83.345 4.201H.477v-.857c.216-1.115.692-2.187 2.033-1.844 1.514.343 1.774-.686 2.293-1.586.217-.386.346-.172.476.086z" fill="#B530E4"/><path d="M4.76 15.906c0 1.372.433 3.044-2.077 2.058-1.168-.471-1.73.558-2.25 1.372v-3.43H4.76z" fill="#BE36EA"/><path d="M8.438 26.153c-2.596.9-5.322.343-7.961.515v-1.715c.346-.172.389-.515.432-.815 2.034-1.886 4.067-1.029 6.1-.043.736.472 1.126 1.244 1.429 2.058z" fill="#A519DB"/><path d="M7.01 24.052c-1.342.43-2.51-.728-3.851-.428-.736.171-1.558.043-2.25.471-.433-2.23.649-2.915 2.726-2.572.822.129 1.644.3 2.51.429.432.6.778 1.286.864 2.1z" fill="#AE25E3"/><path d="M20.984 21.137c-.822-.3-1.644-.558-2.466-.858.13-.428-.044-.814.043-1.243.562-.729 1.384-1.03 2.206-1.286 1.731.257 3.073-.986 4.76-1.03.735 2.23.043 3.945-2.164 5.146-.995.3-1.644-.43-2.38-.73zM15.1 24.052c-.389-.343-.605-.943-1.254-.857-1.212-1.158-2.553-2.187-2.38-4.116.822-2.187 2.64-1.158 4.154-1.244.563.043.909.343 1.211.772.347.557.952.986 1.082 1.672-2.077.472-3.072 1.672-2.812 3.773z" fill="#B531E4"/><path d="M20.984 21.137l2.467.386c.432.857.13 1.543-.563 2.143-.433.3-.822.558-1.255.858-.086-1.158.087-2.401-.649-3.387z" fill="#AD28E1"/><path d="M17.869 20.28c-.606-.344-1.125-.73-1.385-1.415.909-.6 1.558-.215 2.164.471.216.129.605.258.649.386.043.472-.476.386-.78.515-.215.043-.432.043-.648.043z" fill="#B41AE9"/><path d="M12.114 8.103c4.37-2.873 9.216-2.701 13.067.428.519 1.93-1.039 1.458-1.99 1.715-.953 0-1.818-.386-2.683-.686-2.25-.814-4.327.086-6.447.558-.822-.515-2.812.043-1.947-2.015z" fill="#D54EFC"/><path d="M12.116 8.104c-.433 1.586 1.644.685 1.774 1.757-.78 1.5-1.99 2.616-3.418 3.516-.866.171-1.688.257-2.38-.472.735-2.1 2.033-3.73 4.024-4.801z" fill="#CF4AF6"/><path d="M23.32 10.076c.346-.815 2.077-.043 1.86-1.544 1.342 1.115 2.51 2.444 3.332 3.988-.476 1.757-1.687.257-2.51.557-1.167-.772-2.335-1.544-2.682-3.001z" fill="#CD47F3"/><path d="M26.48 24.523c-.78 0-1.472-.085-1.818-.9.26-1.672.952-3.172 2.207-4.373.952.214 1.038 1.072 1.038 1.8 0 .772.65.13.779.472-.303 1.287-1.038 2.316-2.207 3.002z" fill="#AF27E3"/><path d="M12.289 24.01c-.736.17-1.471.342-1.904 1.028-.995-.686-1.558-1.629-1.99-2.7.086-.344 0-.772.346-1.03.605-.3 1.038-.9 1.817-.686.909.944 1.558 2.015 1.73 3.387z" fill="#AE26E3"/><path d="M26.047 12.905c.649-1.071 1.773.644 2.466-.385.26 1.029 1.125 1.843.908 3-.302.258-.086.73-.476.944-.778-.257-1.644-.172-2.336-.643-.39-.943-1.038-1.8-.562-2.916z" fill="#C640F1"/><path d="M28.686 21.522c-2.033.472-.908-1.672-1.774-2.143-.649-.686-.562-1.287.087-1.93.736-.343 1.385-.257 1.947.3.39.472.086 1.115.433 1.587 0 .814-.26 1.5-.693 2.186z" fill="#B530E3"/><path d="M8.091 12.862c.91 0 1.774.043 2.683.043.346 1.158-.216 2.144-.822 3.044-.26.129-.563.172-.865.172-.952.214-1.471-.172-1.688-1.072-.043-.815.217-1.5.692-2.187z" fill="#C642F1"/><path d="M10.298 20.665c-.39.557-.866.986-1.644.857-.433-.128-.433-.728-.952-.771-.52-.472-.39-1.115-.433-1.715-.043-1.2.865-.858 1.514-.9.347.085.65.214.952.428.606.6 1.082 1.2.563 2.1z" fill="#B532E4"/><path d="M9.087 18.479c-.649.043-1.341-.172-1.774.514-.562-1.329-.39-2.615.087-3.901.476.557.951.986 1.687.428.562.987.909 1.973 0 2.959z" fill="#BF34EA"/><path d="M29.38 19.336c-.477-.343-.347-.814-.39-1.286-.346-.557-.52-1.158 0-1.715 0-.343.086-.643.433-.858.173 1.287.216 2.573-.044 3.86z" fill="#B21DE7"/><path d="M7.744 20.75c.952-.514.779.3.952.772-.087.257-.216.558-.303.815-.562-.429-.649-.986-.649-1.587z" fill="#A519DB"/><path d="M10.297 20.666c-.216-.6-.433-1.158-.649-1.758-.52-.944-.476-1.93-.043-2.873l1.168-3.087c.779-1.243 1.86-2.272 3.115-3.087 3.202-1.715 6.36-1.5 9.433.257l2.725 2.83c.347.986.65 1.972.996 2.958.432.515.822 1.072.173 1.715-.346.558-.303 1.158-.303 1.758-.692 1.458-1.168 3.001-2.25 4.245-.606 0-1.125 1.543-1.774.043.173-.73.39-1.415.562-2.144 1.688-1.243 2.12-2.873 1.731-4.845-.303-.171-.433-.428-.52-.729-.345-1.543-1.297-2.658-2.509-3.601-2.639-1.8-5.062-1.8-7.918.086-1.081.857-1.73 1.972-2.12 3.301-.432 1.029-.173 2.144-.432 3.173-.087 1.8 1.73 2.7 2.163 4.287.173 1.63-.995.643-1.558.772-.692-1.072-1.34-2.187-1.99-3.301z" fill="#FCF9FA"/><path d="M18.648 19.336c-.735-.171-1.428-.3-2.163-.471l-.866-.858c-.778-.686-.951-1.543-.778-2.487.432-1.157.995-2.143 2.25-2.53 1.081-.256 2.163-.3 3.201.13 1.298.986 1.601 2.315 1.385 3.858-.087.515-.433.815-.866 1.115-.735.428-1.427.814-2.163 1.243z" fill="#FDFBFD"/><path d="M20.813 18.093c.13-.3.302-.6.432-.9.39-2.187 1.212-2.487 3.851-1.287.043.257.043.515.087.772-.996 1.844-2.856 1.029-4.37 1.415z" fill="#BF36EA"/><path d="M15.274 15.52c.13.815.217 1.672.346 2.487-.216.343-.519.557-.865.428-.995-.342-1.947-.728-2.466.644 0 0-.39-.129-.563-.215-.605-1.157-.519-2.272.044-3.43 1.125.258 2.336-.557 3.504.086z" fill="#BF38EA"/><path d="M27.216 17.622c-.043-.558-.13-1.158-.173-1.715.865-.772 1.428-.172 1.99.471v1.715c-.649-.171-1.211-.343-1.817-.471z" fill="#BF34EA"/><path d="M9.605 16.035c0 .943.043 1.93.043 2.872-.173-.128-.389-.257-.562-.385V15.52c.173.128.346.3.52.514z" fill="#B523E9"/><path d="M20.293 13.377c-1.125.043-2.206.043-3.331.086-.606-.172-1.255.043-1.86 0-.736-.043-1.602-.086-1.212-1.286 2.725-2.401 6.446-2.444 8.653-.086-.216 1.157-.649 1.415-2.25 1.286z" fill="#CE47F6"/><path d="M20.293 13.377c.865-.257 1.73-.472 2.25-1.33 1.428.901 2.466 2.102 2.596 3.86-.563 0-1.125.085-1.688-.043-1.211-.3-1.903.128-2.163 1.286.303-1.415-.476-2.53-.995-3.773zm-6.448-1.201c.26.814.692 1.2 1.514.729.736-.386 1.169 0 1.558.557-.952.386-1.125 1.372-1.687 2.058-1.169-.172-2.38 1.5-3.548 0 .173-1.5 1.081-2.487 2.163-3.344z" fill="#C63FF1"/></svg>