<svg width="23" height="24" fill="none" xmlns="http://www.w3.org/2000/svg"><path d="M.99 1.682c.532.331 1.041.684 1.545 1.045.505.358.997.729 1.488 1.103.976.75 1.923 1.53 2.857 2.323a95.123 95.123 0 015.375 4.985 93.82 93.82 0 014.987 5.372c.793.934 1.573 1.88 2.322 2.858.374.49.744.983 1.103 1.488.36.503.712 1.014 1.043 1.547a28.189 28.189 0 01-1.547-1.043 53.96 53.96 0 01-1.488-1.103 75.08 75.08 0 01-2.858-2.322 94.274 94.274 0 01-5.372-4.987A95.098 95.098 0 015.46 7.572a76.098 76.098 0 01-2.323-2.857 53 53 0 01-1.103-1.488A29.376 29.376 0 01.989 1.682z" fill="#fff"/><path d="M21.71 1.682c-.33.532-.684 1.042-1.044 1.546-.359.505-.73.997-1.104 1.487a74.95 74.95 0 01-2.323 2.858 95.06 95.06 0 01-4.985 5.374 93.796 93.796 0 01-5.372 4.988 74.02 74.02 0 01-2.858 2.322c-.49.374-.983.744-1.488 1.103-.503.36-1.014.712-1.547 1.043a28.25 28.25 0 011.043-1.547 54 54 0 011.103-1.488c.75-.976 1.53-1.924 2.322-2.858a94.219 94.219 0 014.988-5.372 95.08 95.08 0 015.374-4.985 76.033 76.033 0 012.858-2.323c.49-.374.982-.744 1.487-1.104.504-.36 1.014-.712 1.546-1.044z" fill="#fff"/></svg>