<svg width="35" height="18" fill="none" xmlns="http://www.w3.org/2000/svg"><path d="M0 1.28c.61-.143 1.22-.254 1.832-.355.61-.103 1.22-.19 1.832-.272 1.22-.16 2.44-.278 3.662-.377A95.118 95.118 0 0114.65 0c2.442 0 4.884.081 7.326.272 1.22.1 2.442.218 3.663.379.61.082 1.22.169 1.831.272.61.102 1.221.213 1.832.357-.61.143-1.22.255-1.832.356-.61.103-1.22.19-1.831.272a75.89 75.89 0 01-3.663.38c-2.442.19-4.884.271-7.326.271a95.118 95.118 0 01-7.325-.275 76.896 76.896 0 01-3.663-.378c-.61-.082-1.22-.168-1.832-.271A29.46 29.46 0 010 1.28zm0 15.44c.61-.142 1.22-.253 1.832-.355.61-.103 1.22-.189 1.832-.27a74.472 74.472 0 013.662-.379 95.084 95.084 0 017.326-.275c2.442 0 4.883.08 7.326.272 1.22.1 2.442.217 3.662.379.61.082 1.221.169 1.832.272.61.101 1.22.213 1.832.356-.61.144-1.22.255-1.832.357-.61.103-1.22.19-1.832.272-1.22.16-2.442.279-3.662.379-2.443.19-4.884.272-7.326.272a95.084 95.084 0 01-7.326-.276c-1.22-.1-2.442-.218-3.662-.378a55.411 55.411 0 01-1.832-.27A29.367 29.367 0 010 16.72zm4.697-7.677c.61-.143 1.22-.254 1.832-.355.61-.103 1.22-.19 1.832-.271 1.22-.16 2.442-.278 3.663-.378a95.117 95.117 0 017.325-.276c2.442 0 4.884.081 7.326.272 1.22.1 2.442.218 3.663.38.61.081 1.22.168 1.831.271.61.102 1.221.213 1.832.357-.61.143-1.22.255-1.831.356-.61.104-1.221.19-1.832.273-1.221.16-2.443.278-3.663.378-2.442.19-4.884.272-7.326.272a95.082 95.082 0 01-7.325-.275 77.03 77.03 0 01-3.663-.378 54.52 54.52 0 01-1.832-.271 29.366 29.366 0 01-1.832-.355z" fill="#fff"/></svg>