<svg width="30" height="3" fill="none" xmlns="http://www.w3.org/2000/svg"><path d="M0 1.28c.61-.143 1.22-.254 1.832-.355.61-.103 1.22-.19 1.832-.272 1.22-.16 2.44-.278 3.662-.377A95.118 95.118 0 0114.65 0c2.442 0 4.884.081 7.326.272 1.22.1 2.442.218 3.663.379.61.082 1.22.169 1.831.272.61.102 1.221.213 1.832.357-.61.143-1.22.255-1.832.356-.61.103-1.22.19-1.831.272a75.89 75.89 0 01-3.663.38c-2.442.19-4.884.271-7.326.271a95.118 95.118 0 01-7.325-.275 76.896 76.896 0 01-3.663-.378c-.61-.082-1.22-.168-1.832-.271A29.46 29.46 0 010 1.28z" fill="#fff"/></svg>