<svg width="141" height="256" fill="none" xmlns="http://www.w3.org/2000/svg"><path d="M71.043 255.135c-7.612-9.061-15.224-17.036-21.386-25.373-18.849-25.01-30.448-53.645-34.435-84.818-1.087-9.062-1.087-18.486-.725-27.548 0-3.262 3.262-6.162 5.437-9.061 2.537-2.9 5.075-5.8 6.887-9.425 2.9-6.524 8.7-9.061 15.586-9.061 7.612 0 14.5 2.9 17.761 9.786 2.9 5.8 4.712 12.687 5.8 19.211 3.262 18.124 2.175 36.247 2.175 55.821-3.263-3.987-5.437-6.525-7.975-9.787-1.087-1.812-2.537-2.175-4.35-.725-3.624 2.175-6.161 11.599-3.986 15.224.362.725 1.45 1.087 2.174 1.45 11.6 4.349 22.836 4.349 34.435 0 1.087-.363 2.175-2.175 2.537-3.262.363-4.35.363-8.7-3.262-12.324-1.812-1.813-3.624-2.175-5.437.362-2.175 2.9-4.712 5.8-6.887 8.699-.362-.362-.725-.362-.725-.725-.362-19.935-.725-39.871 2.9-59.445.725-4.349 2.537-9.062 4.712-13.049 4.35-8.7 14.861-12.686 24.286-9.786 5.437 1.812 8.699 5.074 10.874 10.511.725 1.45 1.45 3.262 2.9 4.35 6.524 5.437 8.699 11.961 8.699 20.298-.725 37.697-12.324 71.407-34.435 101.854-7.612 8.7-15.586 17.037-23.56 26.823zM113.089 98.91c-6.162-9.786-21.748-10.149-28.273 0-2.537 3.988-4.35 8.7-5.437 13.412-3.987 18.123-3.262 36.609-3.262 54.733 0 0 .363.362.363.725 2.9-2.537 4.712-5.437 4.35-9.787-.363-11.236-.726-22.836 0-34.072.362-5.8 1.812-11.599 3.986-16.674 3.263-7.612 9.425-11.236 17.761-10.511 3.625 0 6.887 1.45 10.512 2.174zm-85.18 1.088c2.174-1.088 3.624-1.813 5.437-2.175 9.786-3.625 19.573 0 23.56 9.424 1.813 4.35 3.262 9.424 3.625 14.137a666.29 666.29 0 010 38.059c0 4.35 2.537 6.525 5.437 8.699a962.47 962.47 0 00-2.175-45.671c-.362-7.612-2.175-15.224-6.162-21.748-6.524-11.237-22.473-11.962-29.723-.725zm23.56 102.942h39.51c-1.45-6.525-11.6-10.15-19.936-9.787-7.612.362-14.862 1.812-19.574 9.787zm39.147 5.799h-38.06c9.062 14.136 28.636 14.136 38.06 0zm-33.347-93.155c-5.437-.725-10.15-1.087-15.224-1.812-5.075-1.088-9.787-2.175-14.862-3.625 6.525 12.324 21.024 14.861 30.086 5.437zm27.547.363c7.612 9.424 24.286 6.162 28.998-5.438-9.424 1.813-19.21 3.625-28.998 5.438z" fill="#97FF95"/><path d="M14.136 94.198c-1.088-1.812-2.175-3.625-3.625-5.075C4.349 82.6 2.899 74.987 4.349 66.288 8.336 44.177 17.76 25.69 35.884 12.28 61.619-6.57 96.416-1.857 117.802 22.429c13.774 15.586 20.299 34.072 20.661 54.733 0 1.45-.725 3.262-1.45 4.712-2.9 4.35-5.799 8.7-9.062 13.411 3.625 2.175 6.887 4.713 10.512 6.887 1.812 1.088 2.537 2.538 2.537 4.712-1.45 24.286-2.174 48.934-3.262 73.22v.725c.363 6.162-.362 11.599-6.887 14.861.725 1.087 1.45 1.812 1.813 2.537 4.712 5.437 4.712 15.224-.363 20.661-.725.725-2.537 1.812-3.262 1.087-6.887-3.262-13.774-6.887-21.023-10.511 11.236-21.024 18.486-42.772 21.023-66.332 2.537-23.561.362-46.397-7.612-68.87 3.987-.725 7.612-1.087 11.237-1.812.724 0 1.449-1.088 2.174-1.813-.725-.362-1.812-1.087-2.537-1.087-2.537.362-5.075.362-7.249 1.087-3.625 1.088-6.162.363-6.887-3.624 0-.725-.725-1.813-1.088-2.9 4.35-1.45 8.337-2.9 12.324-4.35 1.088-.362 1.813-1.45 2.538-2.174-1.088 0-2.538-.725-3.625-.363-2.9.725-6.162 1.812-8.699 2.9-3.263 1.45-5.075 1.087-6.162-2.537-.363-.725-.725-1.45-1.45-2.538 4.349-2.537 8.699-4.712 12.686-7.25 1.088-.724 1.813-1.812 2.537-2.899-1.449 0-2.899-.363-3.987.362-4.349 2.175-8.337 4.35-13.049 6.887-1.45-2.174-2.899-4.35-4.712-6.887 4.35-2.9 8.337-5.8 12.324-9.061 1.088-.725 1.45-2.175 1.813-3.263-1.088.363-2.538 0-3.625.725-4.35 2.9-8.337 5.8-12.687 9.062-1.812-1.812-3.262-3.625-5.074-5.437 3.625-3.987 7.249-7.974 10.874-11.599.725-.725.725-2.175.725-3.262.362 0-1.088 0-1.812.725-3.625 3.624-7.25 7.612-10.875 11.236-2.174-1.812-3.987-3.262-6.162-5.437 2.538-3.987 5.437-7.974 7.975-11.961.725-1.088.362-2.538.362-3.625-1.087.725-2.175 1.087-2.9 1.812-2.537 3.625-5.074 7.612-7.974 11.962-2.175-1.087-3.987-2.537-6.162-3.625 1.45-3.987 2.537-7.612 3.625-11.236.362-1.45 0-3.263 0-5.075-1.088 1.45-2.175 2.537-2.9 3.987-1.45 3.625-2.537 6.887-3.987 10.874-2.537-1.087-4.712-1.812-7.25-2.537V9.017c0-1.45-1.087-3.262-1.45-4.712-.362 1.45-1.45 2.9-1.45 4.35-.362 1.45 0 3.262 0 4.712 0 2.9-.724 5.437-.724 5.437l-6.162 3.262s-2.538-8.336-4.35-12.324c-.362-1.087-1.45-1.812-2.175-2.537-.362 1.087-.725 2.537-.362 3.625.362 2.175 1.45 4.35 2.175 6.524 1.087 3.262 1.087 6.162 1.087 6.162l-5.437 3.987s-4.35-6.887-7.974-11.599c-.725-.725-1.813-1.45-2.9-1.812 0 1.087-.363 2.537.362 3.625 2.538 3.987 5.075 7.611 7.975 11.961-1.813 1.813-3.988 3.262-6.162 5.437-3.625-3.624-6.887-7.612-10.512-11.236-.725-1.088-2.175-1.45-3.262-1.813.362 1.088.362 2.538 1.087 3.625 3.262 3.625 6.887 7.25 10.512 11.237-1.45 1.812-2.9 3.624-4.712 5.8-4.35-3.263-8.337-6.163-12.687-9.063-1.087-.725-2.537-.725-3.624-.725.724 1.088 1.087 2.538 1.812 3.263 3.987 2.9 7.974 5.8 12.324 8.699-1.45 2.175-2.9 4.35-4.712 6.887-3.625-1.812-6.887-3.625-10.512-5.8-.725-.362-1.45-1.087-2.537-1.087-1.45-.363-2.537-.363-3.987-.363.725 1.088 1.45 2.175 2.537 2.9 3.987 2.538 8.337 4.712 12.324 6.887v1.088c-2.9 5.8-2.9 5.8-9.062 3.624-2.537-.725-5.075-1.812-7.612-2.537-.725-.362-1.812.363-2.537.725.725.725 1.087 2.175 1.812 2.175 4.35 1.812 8.337 2.9 12.687 4.712V65.2c-3.262 7.25-1.45 6.525-9.062 5.075-1.812-.363-3.625-.725-5.8-.725-.724 0-1.812.725-2.537 1.087.725.725 1.45 1.45 2.175 1.813 1.812.362 3.987.725 5.8.725l5.437 1.087c-1.813 6.887-3.625 13.412-5.438 19.936z" fill="#97FF95"/><path d="M22.473 75.712l3.987-7.974c7.25-13.774 15.587-27.186 27.91-37.697 10.875-9.425 17.037-10.15 29.36-2.538 14.5 8.7 23.924 22.111 31.173 36.972 1.813 3.988 3.262 7.975 4.712 11.237-9.061 1.087-17.761 1.45-26.46 3.262-9.062 1.813-16.311 7.25-22.11 14.862-5.8-7.612-13.05-13.05-22.111-14.862-8.7-1.812-17.4-2.175-26.46-3.262zm-8.699 18.486c-.725 7.974-1.813 16.311-2.175 24.286-1.45 30.447 5.437 59.082 19.211 86.268.725 1.087 1.45 2.537 2.175 4.349-7.25 3.625-14.136 7.25-21.386 10.874-.725 0-2.537-1.087-3.625-1.812-4.712-5.437-4.712-15.224 0-20.661.363-.362.725-1.087 1.088-1.45 0-.362 0-.725-.363-.725-5.437-3.624-5.8-8.699-6.162-14.861-.362-24.285-1.45-48.209-2.537-72.132 0-3.624.362-6.162 3.987-7.974 3.625-1.812 6.887-3.987 9.787-6.162.362 0 0 0 0 0z" fill="#97FF95"/></svg>