<svg width="1920" height="472" fill="none" xmlns="http://www.w3.org/2000/svg"><g opacity=".5" filter="url(#filter0_d_561_3)"><path d="M1738.6 110c80 18 156-18 196 0v386H-5.399c-8-134-19.2-404.8 0-416 24-14 176-52 296-52s102 62 324 52 288-52 340-52c51.999 0 81.999 38 163.999 42s144-44 290-42 250 64 330 82z" fill="#000"/><path d="M1738.6 110c80 18 156-18 196 0v386H-5.399c-8-134-19.2-404.8 0-416 24-14 176-52 296-52s102 62 324 52 288-52 340-52c51.999 0 81.999 38 163.999 42s144-44 290-42 250 64 330 82z" stroke="#97FF95" stroke-width="2"/></g><g filter="url(#filter1_d_561_3)"><path d="M180 140c-80 18-156-18-196 0v386h1940c8-134 19.2-404.8 0-416-24-14-176-52-296-52s-102 62-324 52-288-52-340-52-82 38-164 42-144-44-290-42-250 64-330 82z" fill="#000"/><path d="M180 140c-80 18-156-18-196 0v386h1940c8-134 19.2-404.8 0-416-24-14-176-52-296-52s-102 62-324 52-288-52-340-52-82 38-164 42-144-44-290-42-250 64-330 82z" stroke="#97FF95" stroke-width="2"/></g><defs><filter id="filter0_d_561_3" x="-47" y=".939" width="2012.6" height="530.061" filterUnits="userSpaceOnUse" color-interpolation-filters="sRGB"><feFlood flood-opacity="0" result="BackgroundImageFix"/><feColorMatrix in="SourceAlpha" values="0 0 0 0 0 0 0 0 0 0 0 0 0 0 0 0 0 0 127 0" result="hardAlpha"/><feOffset dy="4"/><feGaussianBlur stdDeviation="15"/><feComposite in2="hardAlpha" operator="out"/><feColorMatrix values="0 0 0 0 0.23316 0 0 0 0 0.708333 0 0 0 0 0.594292 0 0 0 1 0"/><feBlend in2="BackgroundImageFix" result="effect1_dropShadow_561_3"/><feBlend in="SourceGraphic" in2="effect1_dropShadow_561_3" result="shape"/></filter><filter id="filter1_d_561_3" x="-47" y="30.939" width="2012.6" height="530.061" filterUnits="userSpaceOnUse" color-interpolation-filters="sRGB"><feFlood flood-opacity="0" result="BackgroundImageFix"/><feColorMatrix in="SourceAlpha" values="0 0 0 0 0 0 0 0 0 0 0 0 0 0 0 0 0 0 127 0" result="hardAlpha"/><feOffset dy="4"/><feGaussianBlur stdDeviation="15"/><feComposite in2="hardAlpha" operator="out"/><feColorMatrix values="0 0 0 0 0.23316 0 0 0 0 0.708333 0 0 0 0 0.594292 0 0 0 1 0"/><feBlend in2="BackgroundImageFix" result="effect1_dropShadow_561_3"/><feBlend in="SourceGraphic" in2="effect1_dropShadow_561_3" result="shape"/></filter></defs></svg>