<svg viewBox="0 0 74 132" fill="none" xmlns="http://www.w3.org/2000/svg"><path d="M36.852 131.982c-3.948-4.7-7.897-8.837-11.093-13.161-9.777-12.974-15.794-27.828-17.862-43.998-.564-4.7-.564-9.59-.376-14.29 0-1.692 1.692-3.196 2.82-4.7 1.316-1.505 2.632-3.009 3.573-4.89 1.504-3.384 4.512-4.7 8.085-4.7 3.948 0 7.52 1.504 9.213 5.077 1.504 3.008 2.444 6.58 3.008 9.965 1.692 9.401 1.128 18.803 1.128 28.956-1.692-2.068-2.82-3.385-4.136-5.077-.564-.94-1.316-1.128-2.257-.376-1.88 1.128-3.196 6.017-2.068 7.897.188.376.752.564 1.128.752 6.017 2.257 11.846 2.257 17.863 0 .564-.188 1.128-1.128 1.316-1.692.188-2.256.188-4.513-1.692-6.393-.94-.94-1.88-1.128-2.82.188-1.129 1.504-2.445 3.009-3.573 4.513-.188-.188-.376-.188-.376-.376-.188-10.342-.376-20.683 1.504-30.836.376-2.257 1.316-4.7 2.444-6.77 2.257-4.512 7.71-6.58 12.598-5.076 2.82.94 4.512 2.633 5.64 5.453.377.752.753 1.692 1.505 2.256 3.384 2.82 4.512 6.205 4.512 10.53-.376 19.554-6.393 37.04-17.862 52.834-3.948 4.513-8.085 8.838-12.221 13.914zm21.811-81.038c-3.196-5.077-11.281-5.265-14.666 0-1.316 2.068-2.256 4.512-2.82 6.957-2.068 9.4-1.692 18.99-1.692 28.391 0 0 .188.188.188.376 1.504-1.316 2.444-2.82 2.256-5.076-.188-5.829-.376-11.846 0-17.675.188-3.008.94-6.016 2.068-8.649 1.693-3.948 4.889-5.828 9.214-5.452 1.88 0 3.572.752 5.452 1.128zm-44.185.564c1.128-.564 1.88-.94 2.82-1.128 5.077-1.88 10.153 0 12.222 4.888.94 2.257 1.692 4.889 1.88 7.333.188 6.581.188 13.162 0 19.743 0 2.256 1.316 3.384 2.82 4.512a499.205 499.205 0 00-1.128-23.69c-.188-3.95-1.128-7.898-3.196-11.282-3.385-5.829-11.658-6.205-15.418-.376zm12.221 53.399h20.495c-.752-3.385-6.017-5.265-10.342-5.077-3.948.188-7.708.94-10.153 5.077zm20.307 3.008H27.263c4.7 7.333 14.854 7.333 19.743 0zM29.707 59.593c-2.82-.376-5.264-.564-7.896-.94-2.633-.564-5.077-1.128-7.71-1.88 3.385 6.392 10.906 7.708 15.606 2.82zm14.29.188c3.949 4.889 12.598 3.196 15.042-2.82-4.888.94-9.965 1.88-15.042 2.82z" fill="#97FF95"/><path d="M7.333 48.5c-.564-.94-1.128-1.88-1.88-2.633-3.197-3.384-3.949-7.333-3.197-11.845 2.068-11.47 6.957-21.06 16.358-28.016 13.35-9.777 31.4-7.333 42.494 5.265 7.145 8.085 10.53 17.674 10.717 28.391 0 .752-.376 1.693-.752 2.445a464.864 464.864 0 01-4.7 6.956c1.88 1.129 3.572 2.445 5.452 3.573.94.564 1.316 1.316 1.316 2.444-.752 12.598-1.128 25.384-1.692 37.981v.376c.188 3.197-.188 6.017-3.572 7.709.376.564.752.94.94 1.316 2.444 2.821 2.444 7.898-.188 10.718-.376.376-1.316.94-1.692.564-3.573-1.692-7.145-3.573-10.906-5.453 5.829-10.905 9.59-22.187 10.906-34.408 1.316-12.222.188-24.067-3.949-35.725 2.068-.376 3.949-.564 5.829-.94.376 0 .752-.564 1.128-.94-.376-.188-.94-.564-1.316-.564-1.316.188-2.633.188-3.76.564-1.881.564-3.197.188-3.573-1.88 0-.376-.376-.94-.564-1.505 2.256-.752 4.324-1.504 6.393-2.256.564-.188.94-.752 1.316-1.128-.564 0-1.316-.376-1.88-.188-1.505.376-3.197.94-4.513 1.504-1.692.752-2.632.564-3.197-1.316-.188-.376-.376-.752-.752-1.316 2.257-1.316 4.513-2.445 6.581-3.76.564-.377.94-.94 1.316-1.505-.752 0-1.504-.188-2.068.188-2.256 1.128-4.324 2.256-6.769 3.573-.752-1.128-1.504-2.257-2.444-3.573a79.9 79.9 0 006.393-4.7c.564-.377.752-1.129.94-1.693-.564.188-1.316 0-1.88.376-2.257 1.505-4.325 3.009-6.581 4.701-.94-.94-1.692-1.88-2.633-2.82 1.88-2.069 3.761-4.137 5.641-6.017.376-.376.376-1.128.376-1.692.188 0-.564 0-.94.376-1.88 1.88-3.76 3.948-5.64 5.828-1.129-.94-2.069-1.692-3.197-2.82 1.316-2.068 2.82-4.136 4.136-6.205.377-.564.189-1.316.189-1.88-.564.376-1.129.564-1.505.94-1.316 1.88-2.632 3.949-4.136 6.205-1.128-.564-2.068-1.316-3.197-1.88.753-2.069 1.317-3.949 1.88-5.83.189-.751 0-1.691 0-2.631-.563.752-1.127 1.316-1.504 2.068-.752 1.88-1.316 3.572-2.068 5.64-1.316-.564-2.444-.94-3.76-1.316V4.314c0-.752-.564-1.692-.752-2.445-.188.753-.752 1.505-.752 2.257-.189.752 0 1.692 0 2.444 0 1.504-.377 2.82-.377 2.82l-3.196 1.693s-1.316-4.325-2.256-6.393c-.188-.564-.752-.94-1.128-1.316-.188.564-.377 1.316-.188 1.88.188 1.128.752 2.256 1.128 3.384.564 1.693.564 3.197.564 3.197l-2.82 2.068s-2.257-3.572-4.137-6.017a4.094 4.094 0 00-1.504-.94c0 .564-.188 1.316.188 1.88 1.316 2.069 2.632 3.949 4.136 6.205-.94.94-2.068 1.692-3.196 2.82-1.88-1.88-3.573-3.948-5.453-5.828-.376-.564-1.128-.752-1.692-.94.188.564.188 1.316.564 1.88 1.692 1.88 3.572 3.76 5.453 5.829-.752.94-1.505 1.88-2.445 3.008-2.256-1.692-4.324-3.196-6.58-4.7-.565-.377-1.317-.377-1.88-.377.375.564.563 1.317.94 1.693 2.068 1.504 4.136 3.008 6.392 4.512a127.215 127.215 0 01-2.444 3.573 78.514 78.514 0 01-5.453-3.009c-.376-.188-.752-.564-1.316-.564-.752-.188-1.316-.188-2.068-.188.376.564.752 1.128 1.316 1.504 2.068 1.317 4.325 2.445 6.393 3.573v.564c-1.504 3.008-1.504 3.008-4.7 1.88-1.317-.376-2.633-.94-3.95-1.316-.375-.188-.94.188-1.316.376.377.376.565 1.128.94 1.128 2.257.94 4.325 1.504 6.581 2.444v.565c-1.692 3.76-.752 3.384-4.7 2.632-.94-.188-1.88-.376-3.009-.376-.376 0-.94.376-1.316.564.376.376.752.752 1.128.94.94.188 2.069.376 3.009.376l2.82.564c-.94 3.573-1.88 6.957-2.82 10.341z" fill="#97FF95"/><path d="M11.657 38.91l2.069-4.136c3.76-7.145 8.085-14.102 14.477-19.555 5.641-4.888 8.838-5.264 15.23-1.316 7.521 4.513 12.41 11.47 16.17 19.178.94 2.069 1.693 4.137 2.445 5.83-4.7.563-9.213.751-13.726 1.691-4.7.94-8.461 3.761-11.47 7.71-3.008-3.949-6.768-6.77-11.469-7.71-4.513-.94-9.025-1.128-13.726-1.692zM7.145 48.5c-.376 4.136-.94 8.46-1.128 12.597-.752 15.794 2.82 30.648 9.965 44.75.376.564.752 1.316 1.128 2.256-3.76 1.881-7.333 3.761-11.093 5.641-.376 0-1.316-.564-1.88-.94-2.445-2.82-2.445-7.897 0-10.718.188-.188.376-.564.564-.752 0-.188 0-.376-.188-.376-2.82-1.88-3.009-4.512-3.197-7.709C1.128 80.652.564 68.242 0 55.833c0-1.88.188-3.197 2.068-4.137 1.88-.94 3.573-2.068 5.077-3.197.188 0 0 0 0 0z" fill="#97FF95"/></svg>