<svg width="352" height="136" fill="none" xmlns="http://www.w3.org/2000/svg"><path d="M165.3 12.8c-1.6 6.7-4.4 15.2-6.3 19.9h.1c.5.1 1.1.3 1.6.4.9.2 1.8.4 2.6.6.2 0 .3.1.5.1.1 0 .2.1.3.1.3.1.7.2 1 .3.2.1.3.1.5.2.3.1.6.2.9.4.7-1 1.3-2 1.9-3 .2-.3.4-.7.6-1 0-.1.1-.1.1-.2.4-.6.7-1.3 1.1-2 .2-.4.4-.7.6-1.1.2-.4.3-.7.5-1.1.1-.3.2-.5.4-.8.1-.2.2-.5.3-.7.2-.5.4-.9.6-1.4.1-.3.2-.5.3-.8 0-.1.1-.2.1-.3.1-.2.2-.5.3-.8l.3-.9.3-.9c0-.1 0-.1.1-.2.1-.3.2-.6.3-.8.1-.2.1-.3.1-.5.1-.3.1-.5.2-.8v-.1c.1-.3.1-.5.2-.8-3.1-1.4-6.3-2.7-9.5-3.8zm-37.1 19l-.6-1.5c-.3-.8-.6-1.6-.9-2.5-.1-.3-.2-.6-.3-1-.4-1.1-.7-2.2-1.1-3.4-.1-.4-.3-.9-.4-1.3-.4-1.2-.7-2.3-1.1-3.5-.1-.2-.1-.4-.2-.6-.1-.5-.3-.9-.4-1.4-.4-1.4-.7-2.7-1-3.9-3.3 1.1-6.5 2.4-9.7 3.9.1.1.2.1.3.1 1.6 6.4 4.5 12.7 8.2 18.1.3-.1.5-.2.8-.3.7-.2 1.3-.4 2-.6.3-.1.6-.1.9-.2.6-.2 1.2-.3 1.8-.4.6-.1 1.2-.3 1.9-.5h.1c0-.4-.2-.7-.3-1zm31.5 90.8c-2.3-1-4.5-1.8-6.9-2.2-1.1-.3-2.3-.5-3.4-.6-5.1-.7-10.1-.4-15.2.9-.7.2-1.4.4-2.2.6-2.7.9-7.7 1.7-6.5 5.8.4.8.8 1.6 1.3 2.4.8 1.2 2.1 2.2 3.2 3 1.7 1.1 3.8.7 5.8.3.9-.2 1.8-.4 2.5-.6 4.6-.7 9.5-.8 14 .6.2.1.5.2.7.2 2.9 1 5.5.1 7.5-2.3.7-.8 1.4-1.8 2-2.8.4-.4.6-1 .8-1.6.2-.6.5-1.3.9-1.7-.8 0-1.7-.3-2.4-.9-.6-.3-1.3-.8-2.1-1.1zm8.8-51.1c-.5-.9-1.1-1.7-1.8-2.3-4.8-4.5-13.3-2.5-19.3-4-.6-.1-1.2-.1-1.8-.2-1.3-.1-2.6-.2-3.9-.2h-2.6c-2.6.3-5.5.6-8.2 1.1-.9.2-1.8.4-2.7.7-2 .6-4.1 1.4-5.9 2.6-.6.4-1.2.8-1.7 1.3-1.6 1.6-2.6 3.5-2.9 5.5-.1.7-.1 1.3-.1 2 .6 3.7 2.3 6.1 4.5 7.6.8.5 1.6.9 2.5 1.3 4.7 1.7 10 1.2 14.9 0 1-.2 1.9-.4 2.8-.7.9-.1 1.8-.1 2.6-.2s1.7-.2 2.5-.3c.9-.1 1.7-.1 2.6-.2 4.3 0 8.7-.6 12.7-2 .8-.3 1.5-.7 2.2-1.2 1.4-.9 2.7-2.1 3.8-3.8.5-.7.8-1.5.9-2.4.1-.9 0-1.8-.4-2.8-.2-.6-.4-1.2-.7-1.8z" fill="url(#paint0_linear_150_938)"/><path d="M181.101 53c-.7.5-.7 2.2-1 1.9-.8-.5-1.6-1-2.4-1.4-1.7-.8-3.5-1.3-5.4-1.5-.9-.1-1.8-.2-2.8-.2-7.5.6-19.2 2.8-20.3 11.7-.3 1.1.6 2.5 1.4 3.3 1.7 1.4 3.6 2.5 5 3.9.7.4 1 1.1 1.1 1.9.6 7.3-8 9.2-12.6 11.9l-2.4-.9c-.8-.3-1.6-.7-2.3-1.1-3.5-1.8-8.5-4.3-8.5-8.6 0-.8.1-1.5.3-2.3 3.3-2.8 10.8-5.9 7-11.5-2-2.9-4.7-4.9-7.8-6.2-.8-.3-1.5-.6-2.3-.8-6.6-1.9-13.8-1.3-20.5 1.5-.3.3-1.4-1.9-1.7-3.2-.3-.7-.5-1.5-.7-2.3-.6-2.3-.6-4.7.6-6.5.1-.2.2-.3.3-.5h.2c.2 0 .3.1.5.1 3 .6 6 1.1 9.1 1.6 1 .2 2.1.3 3.1.5s2 .3 3.1.4c1.1.1 2.1.2 3.2.5 2.6 0 5.7.9 8.4 1 .9.1 1.7.2 2.6.3 2.6.3 5.1.5 7.6.8 4.2-.4 8.6-.8 13-1.3.9-.1 1.8-.2 2.6-.3 1.8-.3 3.7-.3 5.5-.8.8-.1 1.6-.3 2.4-.4 1.6-.2 3.2-.5 4.7-.6 1-.2 2.1-.3 3.1-.5 2.1-.3 4.1-.7 6.1-1.1.1 0 .2 0 .3-.1 1.6 1.9 1.5 4.6.9 7.2-.2.6-.4 1.3-.6 1.9-.2.5-.5 1.1-.8 1.7z" fill="url(#paint1_linear_150_938)"/><path d="M156.5 76.3c-3.3 3.8-8 6.1-12.3 8.2l-2.4-.9c-.8-.3-1.6-.7-2.3-1.1-3.5-1.8-8.5-4.3-8.5-8.6 0-.8.1-1.5.3-2.3.3 0 .8 0 1.2.1.7.1 1.3.1 2 .1 2 .1 4.1.2 6.1.2h.2c.1.1.1.2.2.3.2.8.4 1.6.6 2.3 0-.6.1-1.2.1-1.8 0-.2 0-.4.1-.5.1-.1.3-.2.5-.2 2.1-.3 4.2-.4 6.3-.5.7 0 1.4-.1 2.1-.1 1.9.2 4.5-1 5.6.1.4.4.5 1 .5 2 0 .9-.1 1.8-.3 2.7z" fill="url(#paint2_linear_150_938)"/><path d="M156.501 76.3c-2.2.5-3.6 2.2-5.5 3 1.7-2.2 6.4-3.1 5-6.3-.2-.6-.6-1.1-1-1.5-1.7-1.8-4.7-2.7-5.4-5-.6-1.7-2.2-5 .3-6.1-3.1 4.7 3.1 8.1 6.4 10.3.6.6 0 1.9.5 2.8 0 .9-.1 1.9-.3 2.8z" fill="#FFE88A"/><path d="M138.001 66.1c-1.9 2.4-4.5 4-7.2 5.2-1.4.6-2.8 1.1-4.2 1.5-2.8.7-5.3 2.1-8.2 1.9-1 0-1.9-.2-2.8-.5-2.8-.8-5.2-2.6-6.6-5.3-.5-.7-1-1.5-1.3-2.2-1.1-2.4-1.6-5-1.1-7.5 1.9-9.2 13.9-8.6 21.7-6.1.8.3 1.7.6 2.5 1 3.2 1.5 6.1 3.7 8.3 6.8.6 1.1.3 2.2.1 3.2-.3.7-.6 1.4-1.2 2z" fill="url(#paint3_linear_150_938)"/><path d="M113.1 64.5c3.4 5.7 12.3 4.6 17.3 1.5.8-.5 1.6-1 2.3-1.5.7-.5 1.4-1.1 2-1.8-.9.2-1.8.4-2.8.6l-3 .6c-5.9 1.1-12.8.8-17-3.9-.6.8-.3 1.7.3 2.6.2.5.5 1.2.9 1.9zm25.6-1.4c.6-3.8-3.3-6-5.8-7.1-.6-.3-1.7-1.4-2.2 0-.5-.6-1.1-1-1.7-1.4-3.3-2.2-7.2-2.4-10.8-1.6-.3.3-.3.8 0 1.1-1.7-2.8-5.8-.6-8.1.3-1.1.8-1.9 1.9-3.1 2.8 4.7-6.9 14.4-5.8 21.3-3.7.9.3 1.8.7 2.7 1.1 3.5 1.7 6.4 4.1 8.1 7.6 0 .2-.2.6-.4.9z" fill="#FF8A4F"/><path d="M127.401 64.9c.7-.1 1.3-.3 2-.6.7-.2 1.3-.5 2-.7 1.3-.4 2.6-.8 4-.7-.6-.6-1.2-1.1-1.9-1.6s-1.4-1-2.2-1.5c-5.6-3.9-14.5-5.8-19.5.3-.3.6.3 1.4.6 1.7 4.4 2.5 9.4.8 13.9 2.1.5.2.6.6 1.1 1z" fill="url(#paint4_linear_150_938)"/><path d="M115.3 58c-1 .5-2.6-.4-3.2 1-1.1 2.8 1.7 4.7 3.3 6.7 1.1 1.1 2.8 1.7 4.2 1.9 1.1 0 1.9.6 3.1.3 2.5-.3 4.7-1.1 6.8-2 .9-.4 1.8-1 2.6-1.5.8-.6 1.6-1.2 2.2-1.8-.7-.6-1.5-1.2-2.3-1.7-.8-.5-1.7-.9-2.5-1.3-3.5-1.1-7.4-2.3-11.4-1.9-1 .1-1.9.2-2.8.3z" fill="url(#paint5_linear_150_938)"/><path d="M178.5 94.7c-.8 1.6-2.2 3.3-2.2 4.9-.1 1.9-.1 4-.2 6.1 0 1 0 2.1-.1 3.1.2 3.1-.3 6.1-1.5 8.9-.3.9-.8 1.8-1.3 2.6s-1.2 1.6-1.9 2.3c-.7.5-1.4 1-2.2 1.3-.8.3-1.8.5-2.8.5-5.1.5-9-3.7-13.6-4-1.1-.3-2.3-.5-3.4-.6-5.1-.7-10.1-.4-15.2.9-.7.2-1.4.4-2.2.6-5.3 3.9-13.6 4.6-17.7-.8-.6-.8-1.1-1.7-1.4-2.7-2.5-4.4-.6-9.2 0-13.9.3-2.2-1.1-3.9-2.4-5.5-.5-.9-1-1.8-1.4-2.7-3-7.5-.9-16.2 7.6-19.3.6-.2 1.1-.4 1.8-.5.8 0 1.9-.3 2.8.3 6.7 3.9 12.5 8.3 20.4 8.5.8.1 1.6.2 2.3.2 6.5-.1 12.6-2 17.9-6.2 1.4-.8 3.1-1.7 4.9-1.4.9 0 1.7 0 2.6.2 4.3.8 8.4 3.5 10.3 7.3.8 1.9 1.1 3.9.8 5.8-.3.8-.3 1.9-1.1 2.6-.3.4-.6 1-.8 1.5z" fill="url(#paint6_linear_150_938)"/><path d="M168.1 112.4c1.2-4.7-2.7-8.8-7.4-8.3-1.9.3-3.6.8-5.3 2.2-1.9 1.7-2.2 4.2-2.8 6.4-.3.8-.3 1.7 0 2.5 1.4 3.3 3.6 7.2 7.2 7.8 5.9 1.1 5.9-6.7 8.3-10.6zm-40.099.8c-.4-.5-.6-1.1-.7-1.8-.2-2.1 1.2-4.6.3-6.3-1.4-2.5-5.3-.6-6.4 1.9-.3.7-.4 1.5-.5 2.2-.3 3.8 1.6 7.6 3 11.1.6.8 1.1 2.2 1.9 1.7.7-.3 1.1-.9 1.4-1.5 1.2-2.3.1-5 1-7.3zm9.7-9.5c-3.1 2.9-3.4 7-3.8 10.8v1.9c0 .6-.1 1.2-.1 1.9l2 .3s0-.6.1-1.7c0-.5 0-1.1.1-1.8-.3-3.8.5-7.7 1.7-11.4z" fill="#002E1C"/><path d="M175.9 107.5c.3.8.4 1.7.5 2.5.1 1.7-.1 3.4-.6 5-.3.8-.6 1.6-1 2.3-4.8 8.5-14.8 5.7-22 3.1-1.1-.3-2.3-.5-3.4-.6-.1 0-.2-.1-.4-.1-3.3-1.2-6.6-2.5-10.1-2.5-1.1 0-2.2.1-3.2.4-5.8 2.1-13.3 7.5-19.2 3.6-.8-.6-1.6-1.3-2.4-2.3-1.9-2.8-3.1-6.4-1.7-9.4-.3 2.8 1.7 5.6 4.4 5.6.8 0 1.9-.3 2.2-1.1.3-.8 0-1.7 0-2.5 1.1 3.1 4.7 5 8.1 3.9.6-.3 1.1-.6 1.1-1.1-.3-.6-.8-1.1-.6-1.9.1 1 .4 1.7.9 2.1.5.4 1.2.5 2 .5s1.6-.1 2.4-.2c1.9-.4 4.4.1 5-2.4-.6 1.4.6 1.9 1.7 1.6.5 0 1-.2 1.5-.2.7-.1 1.1 0 1.8.1 1.1.2 2.4.1 3.5.2h.3c.1 0 .2-.1.3-.2.7-.7 1.1-1.6 1.8-2.3h.3c-.3.8-.6 2.2-.6 2.2 6.9 2.2 15.3 3.9 22.2.8 0 .6-.6 1.1-.6 1.4 1.7 1.9 3.9.3 4.7-1.4.8-2.2 1.1-4.4 1.1-6.6-.1-.7-.2-1.4-.4-2.1-.3-1.4-.6-2.8-.4-4.3 0 .8 0 1.7.1 2.5s.2 1.6.4 2.4c.1.1.2.6.3 1zM118.401 85c1.4-.1 2.9 0 4.3.2s2.9.3 4.3.3 2.8-.2 4-.9c-.3.6-1.4 1.1-1.1 1.1 4.2 1.7 8.3 3.1 12.9 3.7.9.1 1.8.1 2.7 0 .8 0 3 .3 2.2-1.4v.8c6.7-1.4 14.4.3 20.3-4.1.5-.5.9-1 1.2-1.7.3-.7.5-1.4.5-2.3 0 .6 0 .8.3 1.4.9.3 1.8.8 2.7 1.3 3.6 2.3 6 6.2 6 10.1 0 .8-.1 1.6-.3 2.4-.3.8-.7 1.6-1.2 2.2-.5.6-1 1.2-1.6 1.7-.8.4-1.6.8-2.4 1.1-7.2 2.6-14.9 2-22.3.3-.9-.2-1.8-.5-2.7-.8-4.1-1.7-8.3-3.6-13-3.3-5.6.6-11.4 1.9-16.8 1.2-.8-.1-1.6-.1-2.5-.3-1.6-.3-3.2-.8-4.7-1.7-.7-.5-1.3-1-1.8-1.6-1-1.2-1.5-2.7-1.2-4.5.1-2.1 1.7-3.5 3.3-5.1.5-.5 1.1-1 1.6-1.6 1-1.1 1.8-2.2 2.1-3.9-.2.6-.5 1.2-.9 1.8-.3.6-.7 1.3-.9 1.9-.5 1.3-.6 2.4.7 2.9.8.3 1.4-1.6 2.2-2.1v1.3c.6-.1 1.3-.2 2.1-.4z" fill="#8AEDB8"/><path d="M148.401 89.1c.1 0 .1.3.1.3-1.2-.4-.9-1.5-1.2-2.4.7.6 1 1.2 1.1 2.1z" fill="url(#paint7_linear_150_938)"/><path d="M178.401 94.7c-.5 3.2-2 5.4-4 7-.7.5-1.5.9-2.3 1.3-7.8 1.9-15.6 3.6-23.5 4.4-.9 0-1.8.1-2.7.1-8.6.3-17.2-1.1-25.5-2.9-.9-.2-1.7-.5-2.6-.8-2.5-.9-4.8-2.1-6.8-3.8-.7-.7-1.2-1.5-1.6-2.3-2.8-5.3.2-10.2 3.5-14.7.5-.7 1.1-1.5 1.6-2.2-.3.4-.6 1-.8 1.5-.2.5-.4 1.2-.4 1.8 2 3 6.5 3.4 10.8 2.7.9-.1 1.7-.3 2.5-.6.8-.2 1.6-.5 2.3-.8.7-.3 1.4-.6 2-1 .1.8.4 1.5.9 2.1 2.7 2.6 6.6 2.6 10.2 2.9.9.1 1.7.1 2.4.2 1 0 1.9-.1 2.9-.2 6.6-.1 13-3.1 19.4-4.2.8-.1 1.6-.1 2.4 0 .8.1 1.5.3 2.4.5.9.2 1.8.6 2.6 1 2.4 1.2 4.1 3.2 4.5 6.2 0 .6-.1 1.2-.2 1.8z" fill="url(#paint8_linear_150_938)"/><path d="M152.5 132.7c-1.7 2.2-4.7 2.9-7.5 2.9-2 0-3.9-.3-5.9-.8-1.3-.3-2.3-.9-3.2-1.9.1-1.4.3-2.9.6-4.3.1-.6.2-1.2.4-1.9.2-.9.4-1.7.6-2.6 5-1.2 9.1-1.6 13.7.7.3 2.2.8 4.7 1.2 7.1 0 .2.1.5.1.7v.1z" fill="url(#paint9_linear_150_938)"/><path d="M171.3 100.4c2.2 4.8-2.2 9.2-6.7 9.8-5.6.6-10.8-.6-16.2-1.4-.8-.1-1.6-.3-2.5-.3-2.2.6-6.1-.8-6.9 1.7 0-.3-.3-.8-.3-.8-6.7.3-18.3 4.2-20-5.6 0-.8.8-1.7 1.4-1.7 8.3-2.5 16.4-1.9 24.4-5 1.1-.3 2.5 0 3.6 0 .9 0 1.8.1 2.6.1 1.5.1 3.1.3 4.6.5.8.1 1.5.2 2.3.4 3.8.7 7.7 1.3 11.6 1.8.8.1 1.5.3 2.1.5z" fill="url(#paint10_linear_150_938)"/><path d="M173.2 98.2c0 .9-.1 1.8-.2 2.7-2.8 9.6-15.3 9-23.3 7.2-.8-.1-1.7.3-2.5.3-4.7-.4-9.4-.1-14.2.8-4.4.8-8.599 0-12.199-2.3a9.1 9.1 0 01-2.101-1.8c-.7-.7-1.3-1.4-1.8-2.3-1.4-2.2-1.9-4.4-1.7-6.9.3-1.1.6-1.9.9-3 .4-.8 1-1.5 1.6-2 .6-.5 1.301-.8 2.101-1.1.8-.2 1.6-.5 2.5-.3 7.9 2.1 14.799 4.4 22.699 3.9.9.2 1.8.3 2.7.2 6.3 0 12-3.1 18.6-2.8 3.1.3 6.901.8 7.801 4.4.3.8 0 1.4-.5 2-.2.4-.301.7-.401 1z" fill="url(#paint11_linear_150_938)"/><path d="M174.001 93.7c-2.1 2.6-6.3 5.3-8.8 1.2-.6-.6-.8-1.1-.8-1.9.3.3.8.3 1.1.6.7 1 .8 2.1.4 3.1-1.5 3.3-6.5 3.3-8.7.8-.4-.5-.7-1-1.1-1.6-.6-.8 0-1.7-.6-2.2.6.8.8 1.7.8 2.5-.1 1.3-.6 2.3-1.5 2.9-.4.3-.9.6-1.5.8-.6.2-1.2.3-1.8.4-.8.1-1.7.1-2.6.1-3.4.3-6.2-1.9-5.4-5.5-.6 1.7.3 4.2-.8 4.7-3.1.8-7.8 2.2-9.7-1.1-.8-1.4.3-3.1.6-4.4.3 5.3-6.4 6.7-10.3 4.4-2.2-1.1-1.1-4.4.3-6.4-.6 2.2-1.4 4.7-3.9 5-1 0-1.9-.4-2.6-1-.7-.6-1.3-1.4-1.6-2.4-.1-.8.1-1.6.4-2.2.5-.9 1.4-1.6 2.4-1.9 1-.3 2.2-.4 3.2-.1 8.3 2.2 17.2 3.6 25.7 4.1.8 0 1.6-.1 2.3-.2 3.1-.4 6.3-1.2 9.4-2 4.7-.8 9.7-1.1 14.2 1.2.5.2.8.6.9 1.1z" fill="url(#paint12_linear_150_938)"/><path d="M189.5 20.6c-1.1 6.6-3.9 12.8-6.9 18.8-.4.8-.8 1.6-1.2 2.3-.1.1-.1.3-.2.4-1.5.3-3.1.6-4.7.8-.8.1-1.6.3-2.4.4l-6 .9c-.7.1-1.3.2-2 .3-2.1.3-4.1.8-6.4.8-.7.1-1.5.2-2.2.3-3.7.4-7.4.8-11 1.2-.2 0-.4 0-.6.1-.7.1-1.4.1-2.1.2-1.5-.1-3-.3-4.6-.4-1.2-.1-2.4-.2-3.6-.4-.6-.1-1.2-.1-1.8-.2-3.7-.7-7.6-.4-11.2-1.4l-2.4-.3c-.8-.1-1.6-.2-2.3-.3-1-.1-2-.3-3-.5s-2-.3-3-.5c-1.9-.3-3.8-.7-5.7-1-1.9-3.8-3.8-7.6-5.4-11.5-1.2-3.1-2.2-6.3-2.8-9.7 0-.1-.1-.3-.1-.4 1.7-1.4 3.4-2.7 5.3-3.9 1.1-.7 2.2-1.3 3.4-1.8.6-.3 1.2-.6 1.8-.8.8.5 1.6 1 2.5 1.5l1.5.9c.1.1.2.1.3.1 1.6 6.4 4.5 12.7 8.2 18.1 2.4-1 4.8-1.4 7.3-2h.1c-1.4-3.4-3.2-8.8-4.8-14.1-.6-2-1.1-4-1.6-5.9-.4-1.9-.8-3.6-1-5.1-.1-.6 5.4-2.9 6-3.2.2-.1.5-.2.7-.3 2-.8 4-1.5 6.1-1.9.1 0 .2 0 .2-.1 5.5-1.3 11.3-1.4 16.9-.4.3 0 .6.1.9.2.4.1.8.2 1.2.2 2 .5 4 1.1 6 1.9.8.3 7.2 2.8 7.1 3.6-.2 1.5-.6 3.3-1 5.3-1.6 6.7-4.4 15.2-6.3 19.9h.1c2.5.7 5 1 7.4 2.1 3.6-5.2 6.4-11.2 8-17.3.1-.3.1-.5.2-.8 1.4-.8 2.9-1.7 4.3-2.5h.1c.1.1.3.1.4.2 1.3.6 2.5 1.2 3.7 1.8 2.6 1.3 4.7 2.8 6.6 4.4z" fill="url(#paint13_linear_150_938)"/><path d="M183.301 16.2l-5.3 19s-2.7 3.8-4.5 6.4c-.9 1.3-1.6 2.2-1.6 2.2-1.3.4-2.5.6-3.8.7-1.3.1-2.5.2-3.8.4l.8-2.2 5.5-10.3 5.7-11 3.2-6.9c1.3.4 2.6 1 3.8 1.7zM153.2 2.1L146.5 47c-.2 0-.4 0-.6.1L152 1.9c.5 0 .8.1 1.2.2zm-13.9 44.6c-1.2-.1-2.4-.2-3.6-.4-.6-.1-1.2-.1-1.8-.2-.6-.1-1.2-.1-1.8-.2 0 0-.5-1.2-1-2.5s-1-2.5-1-2.5l-1.7-16-.9-17.4.6-3.5c2-.8 4-1.5 6.1-1.9.1 0 .2 0 .2-.1l1.4 4.2 1.5 16.9 1.5 16 .5 7.6zm-21.4-2.6c-1-.1-2-.3-3-.5s-2-.3-3-.5l-3-6.8-4.7-13.8-.8-5.7c1.1-.7 2.2-1.3 3.4-1.8l2.4 4.9 4.3 12.6s2 5.1 3.3 8.6c.6 1.7 1.1 3 1.1 3z" fill="#002E1C"/><path d="M150.801 25.4c0-.1 0-.1 0 0 1.7-2.5 2.4-5.8.9-8.4-.9-1.7-2.5-2.8-3.9-4.1-.5-.5-1-1-1.5-1.4-.6-.4-1.3-.6-2-.5-.4.1-.7.3-1.1.6-1.9 1.3-3.6 2.8-5.3 4.3-1.1 1-2.1 2.2-2.6 3.5-.6 1.7-.4 3.5-.1 5.2.2 1.2.8 2.3 2 2.5 1.5-2.2 3.3-4.1 5.4-5.7.1-.1.3-.2.5-.2s.3.1.5.1c2.4 1.1 4.7 2.5 6.7 4.1l-.2-.2.7.2z" fill="#0F7B7D"/><path d="M168.1 36.6c-.7 0-1.4.2-2.1-.2-.4-.3-1.2-.7-1.7-.7-.7.1-.8.8-1.4 1.1-.2-.8-.3-1.6-1.1-2-.9-.4-2.1-.3-3.1-.3-.1 0-.3 0-.3-.1-.6-.8.8-3.3 1.1-4.2 1.3-4 2.9-7.9 3.8-12 .7-3.4.9-7 2-10.3-.8-.8-1.4-1.3-2.4-1.7l-1.9-.6c-.1 0-.3-.1-.4 0-.2.1-.2.3-.3.5-.5 1.7-.9 3.4-1.4 5.1l.3-5.1c0-.4 0-.8-.2-1.1-.2-.4-.6-.5-1-.7-4.2-1.5-8.6-1.7-12.9-2.1-.9-.1-2.4-.4-3.3-.1-.9.3-.7.2-.8 1.5-.1 1.4-.2 2.8 0 4.1-.7-1.6-1-3.7-1.3-5.5-.6.1-1.1.4-1.7.5-.6.1-1.2 0-1.8.1-1.5.2-3 .6-4.5 1-.2 0-.3.1-.5.2-.6.4-.6 1.2-.4 1.9-.3-.4-.6-.9-.9-1.3-1 .7-2.2 1.1-3.5 1.2.3 3.3.8 6.6 1.6 9.8-1-2.1-1.7-4.3-2-6.5-.1-.7.1-2.5-.7-2.7-.3-.1-2.6 1.1-2.6 1.2.1 3.7.5 7.4 1.2 11-.6-2-1.1-4-1.6-5.9-.4-1.9-.8-3.6-1-5.1-.1-.6 5.4-2.9 6-3.2 2.2-.9 4.5-1.7 6.8-2.2 5.5-1.3 11.5-1.5 17.1-.5 2.7.5 5.4 1.2 8 2.3.8.3 7.2 2.8 7.1 3.6-.2 1.5-.6 3.3-1 5.3-1.6 6.7-4.4 15.2-6.3 19.9h.1c2.5.7 5 1 7.4 2 0 .3.1.5.2.7.5.4 1 .7 1.4 1.1zm-39.099-3.3c-.8.6-1.6 1.2-2.6 1.6.1.5.3 1.1.5 1.6-.5-.3-.7-1-1.3-1.1-.2-.1-.4 0-.6 0-1.1.2-2.5.3-3.5.8-.1 0-.1.1-.1.1v.3c.3 1.5.7 2.9 1 4.4-.4-1.3-.9-2.7-1.6-3.8-.4-.6-.3-.4-.9-.1-.1.1-1.1.4-1 .5-.6-1.3-1.2-2.6-1.9-3.9-.4-.8-.8-1.7-1.4-2.5-.5-.7-1.1-1.3-1.6-2-.4-.6-.7-1.2-.9-1.9-.3-.9-.4-2-1.3-2.4-.1-.1-.3-.1-.4-.2-.1-.1 0-.2-.1-.3 0-.2-.1-.4-.1-.6-.8-2.6-1.7-5.1-2.7-7.6-.6.6-1.2 1.2-1.6 1.9.3-1 .6-2.1.9-3.1-.6.4-1.1.9-1.8 1.1-.5.2-1 .3-1.5.6-.7.4-1.9.7-2.1 1.7-.1.4 0 .8.1 1.1.4 1.8.8 3.7 1.6 5.4-1.1-1.9-2.1-3.9-2.9-5.9 0-.1-2.8 1.8-3 2 0-.1-.1-.3-.1-.4 3.1-2.7 6.7-4.9 10.5-6.5.8.5 1.6 1 2.5 1.5.1.3.2.7.3 1 1.8 6.3 4.3 12.4 7.4 18.3.1.2.2.4.4.5.2.1.3.1.5 0 1.8-.2 3.6-.5 5.3-1 .7-.2 1.4-.4 2.1-.7.4-.2.7-.3 1.1-.4.2 0 .9.1 1 0h-.2z" fill="#8AEDB8"/><path d="M129.2 33.4c-2.2.8-4.4 1.4-6.6 2.1-1.7.5-2.2.5-3.4 1-4.6-6.6-8.5-14.7-10.7-22.4 1.3.7 2.7 1.6 4 2.4.1.1.2.1.3.1 1.6 6.4 4.5 12.7 8.2 18.1 2.4-1 4.8-1.4 7.3-2 .4.3.7.5.9.7zm49.9-19.2c-.1.7-.3 1.4-.6 2.1-2.3 7.3-6.2 14-10.8 20.1-2.8-1.3-5.8-2.1-8.8-2.6 0-.4.1-.8.2-1.2 2.5.7 5 1 7.4 2.1 3.7-5.4 6.6-11.7 8.2-18.1 1.4-.7 3-1.7 4.4-2.4z" fill="#0F7B7D"/><path d="M188.201 21.7c.1-.5.1-1.1-.2-1.5-.2-.3-.5-.5-.8-.7-.1 0-.2-.1-.3 0-.1 0-.1.1-.2.2-.4.6-.9 1.2-1.3 1.8.1-.7.3-1.5.4-2.3.1-.3.1-.6 0-.9-.1-.3-.4-.5-.6-.6-1-.6-2-1.1-3-1.6-.5-.2-1.9-1.1-2.5-.7-.2.1-.3.3-.4.5l-.9 1.8c-.1.2-.3.3-.4.2.2-1 .5-2 .8-2.9-1.4.9-2.7 1.7-4.2 2.5.1-.3.1-.5.2-.8 1.4-.8 2.9-1.7 4.3-2.5h.1c3.8 1.6 7.3 3.8 10.4 6.5-1.1 6.6-3.9 12.8-6.9 18.8l2.1-5.4c.7-1.7 1.3-3.3 1.8-5 .7-2.5 1.1-4.9 1.6-7.4z" fill="#8AEDB8"/><path d="M100.301 28.8c.2.4.3.9.5 1.4-.2-.5-.3-1-.5-1.4zm51.099 6.7c-.3 1.2-.6 2.4-1 3.6.3-1.2.7-2.4 1-3.6z" fill="#0F7B7D"/><path d="M181.5 41.8c-.1.1-.1.3-.2.4-2 .4-4 .7-6.1 1.1-1 .2-2.1.3-3.1.5-1.5.2-3.1.4-4.7.6-.8.1-1.6.2-2.4.4-1.8.4-3.7.4-5.5.8-.9.1-1.8.2-2.6.3-4.4.5-8.7 1-13 1.3-2.5-.2-5.1-.5-7.7-.8-.9-.1-1.7-.2-2.6-.3-2.8-.1-5.6-.7-8.5-1-1.1-.1-2.1-.2-3.1-.4-1-.1-2.1-.3-3.2-.5s-2.1-.3-3.1-.5c-3.1-.5-6.2-1-9.2-1.6-1.9-3.8-3.8-7.6-5.4-11.5 0-.2-.1-.4-.1-.6 1.4 3.9 3.4 7.6 6.1 10.9 1 1.2 2.9 1 4.5 1.1-.4-1.6-.8-3.1-1.4-4.6.5 1.4 1.1 2.7 1.9 4 .2.3.4.6.7.8.3.1.6 0 .9 0 1.8-.2 3.1.5 4.8 1 .9.3 1.9.5 2.8.6 1 .1 1.9.2 2.9.2-.1-.4-.1-.8 0-1.3-.1 1 .8 1.6 2 1.9 2.2.5 4.4.5 6.6.4.3 0 .9.1 1-.3.1-.2-.4-.7-.4-.9-.1-.6 0-1.2 0-1.7.4 1.3.9 2.5 1.6 3.5 2 .3 4.5.5 6.5.6.2 0 .4 0 .6-.1.1-.1.2-.3.2-.4.4-1.3.8-2.7 1.2-4l-.3 4.2c1.2.3 2.5.5 3.7.6 1.4-2.3 2.6-4.8 3.5-7.4-.2.9-.5 1.7-.8 2.6-.4 1.2-.7 2.4-.8 3.7.9.1 1.8.4 2.7.4 1.2.1 2.6-.2 3.9-.4 2.6-.3 5.1-.8 7.6-1.4.2-.6.5-.8 1-1.3.1.2.1.4.1.7 0 .2.1.5.4.5 2.3-.5 4.8-.8 6.9-.8l1.5-1.5c1.4-1.6 2.6-3.4 3.8-5.2-1.1 2.3-2.1 4.5-3.3 6.7 2.7-.4 5.4-.8 8.1-1.3z" fill="#0F7B7D"/><path d="M151.3 24.1c-2.3-3.3-4.8-6.3-7.7-9-2.4 2.4-4.5 5.1-6.3 8.1-.9-.4-1.7-1-1.8-2-.1-.9.2-1.9.5-2.8 1.4-3.9 4.3-7.3 7.9-9.4.5-.3 1-.5 1.6-.5.7 0 1.3.4 1.8.9 2.3 1.9 3.8 4.5 5.3 7.1.5.9 1.1 1.9 1.2 3 .4 1.8-.8 3.8-2.5 4.6z" fill="#A15929"/><path d="M135.9 11.5c-3.2 3.6-5.8 7.8-7.6 12.3-.2.5-.4 1-.4 1.5 2.6 6.7 6.1 11.4 10.6 15.9 1.4 1.4 2.8 2.7 4.6 3.5 2.4-1.9 4.5-4 6.5-6.4 1.8-2.1 3.5-4.3 4.7-6.7 1.2-2.5 2-5.2 1.9-7.9l-4.2 5.7c-1.3 1.8-2.6 3.5-4.3 4.9-.4.4-.9.7-1.5.9-.7.2-1.6.1-2.3-.2-2.1-.8-3.7-2.5-5.1-4.3-1.9-2.6-3.4-5.4-4.5-8.5-.4-1.1-.7-2.2-.5-3.3.2-1 .7-1.9 1.2-2.8.5-1.4.8-3.1.9-4.6z" fill="#0F7B7D"/><path d="M158.4 19.2c.4 1.1.4 2-.1 3.1-3.4 7.7-8.4 14.2-14.5 19.9-5-4.8-9.8-11.2-12.9-16.4-.6-1.9-.9-3.9-1-5.9 0-.7 1.3-.7 1.9-.3.6.4.8 1.1 1.1 1.8 2.3 6 6.3 11.4 11.3 15.4 2.4-2.2 4.3-4.5 6.1-7.3 1.2-1.9 2.3-4 3.6-5.8 1-1.7 3-3.2 4.5-4.5z" fill="#A15929"/><path d="M158.6 19.7c-.1-.2-.2-.3-.3-.5-1.7-3-3.9-6.1-6.4-8.8-.3-.3-.6-.7-.9-1-2.2-2.3-4.7-4.4-7.2-5.9-1 .8-2 1.6-2.9 2.4-.1.1-.3.2-.4.4-1.6 1.5-3 3-4.4 4.6-2.2 2.7-4.2 5.5-6.2 8.7v.1s0 .1-.1.1c0 0 0 .1-.1.1-.1.1-.1.3 0 .6 0 .2.1.4.2.6.5 1.2 1.4 3 1.6 3.5.6 1.3 1.3 2.6 2.2 3.7.5-.4 1.1-.9 1.6-1.3.1-.1.2-.2.4-.3-.1.2-.2.3-.3.5-.4.7-.9 1.4-1.3 2.1-.1.1-.2.3-.1.4 0 .1.1.2.2.2 1.5 1.5 2.7 3.4 4.1 5 .1.1.2.3.3.4 1.6 1.8 3.3 3.4 5.2 4.8.2.1 2.2-1.6 3.4-2.8.4-.4.7-.7.8-.9.1-.1.2-.2.2-.3v-.8c0-.4-.1-.8-.2-1.2-.1-.3-.1-.6-.2-.9v-.3.2c.1.3.3.5.4.7l.2.2c.3.4.7.7.8 1.2.3-.5.9-.7 1.4-1.1.8-.6 1-1.3 1.5-2.1.5-.9 1.2-1.7 1.7-2.7.2-.3.3-.7.4-1.1.1-.4-.1-.8-.4-1 .5.1 1.2.1 1.5-.3.1-.1.2-.3.3-.5.1-.2.2-.4.2-.5v-.1c0-.1.1-.1.1-.2.4-.7.7-1.4 1.1-2.2.1-.2.4-.7.6-1.3.4-.8.8-1.7.8-2.1.2-.2.2-.3.2-.3zm-20.1 5.8c-.4-.8-.8-1.7-1.1-2.5-.1-.2-.2-.5-.2-.7-.1-.3-.2-.7-.3-1 .1-.1.1-.2.2-.4.5-.8.9-1.6 1.4-2.4 1.5-2.5 3.3-4.6 5.6-6.6 2.2 1.5 4.2 3.8 5.9 6.3.3.4.5.8.8 1.3.3.6.6 1.1.9 1.7v.1c-.2.7-.5 1.4-.8 2.1-.2.6-.5 1.2-.8 1.8l-.3.6c-.3.7-.7 1.3-1.1 1.9-1.2 1.9-2.8 3.6-4.5 5.1-2.3-1.8-4.3-4.5-5.7-7.3z" fill="url(#paint14_linear_150_938)"/><path d="M157.9 21.7c.1-.7.2-1.4 0-2-.3-.9-1-1.8-1.5-2.6-.4-.6-.8-1.3-1.2-2-.5-.8-1.4-1.4-2-2-.6.7-1.2 1.5-1.8 2.3.5-.9 1-1.8 1.4-2.8.1-.2.1-.3.1-.5s-.1-.3-.2-.5c-.5-.8-1.3-1.4-2.1-1.9-2.2-1.6-4.2-3.3-6.1-5.2-.1.9 0 2-.2 2.9-.1.8-.7 1.8-.6 2.6l-.3-5.7c-1.1 1-2.2 2-3.3 3.1-1.5 1.5-3.1 3.2-3.2 5.3-.1-.5-.4-.9-.8-1.2 0 0-4.2 5.6-4.5 6.1-.5.7-.9 1.8-1.7 2.1 3.9-6.3 7.9-11.5 13.9-16.2 6 3.7 11.3 10 14.8 16.2.2.3-.3 1.3-.8 2.3.1-.1.1-.2.1-.3z" fill="#FFE88A"/><path d="M151.7 21.8c0 .4-.2.8-.3 1.1-.7 1.7-1.3 3.2-2.3 4.8-1.3 2.1-2.8 4-4.4 6-.9-.5-2-1-2.7-1.7-.4-.4-.9-1-1.4-.1.7-1.5-.4-2.3-1.2-3.4-1.3-2-1.6-4.6-3.5-6.2.7-1.3 1.5-2.6 2.4-3.8-.6.9-1.1 1.8-1.6 2.7 1.2 4.3 3.9 8.8 7.2 11.5 3.6-2.9 6-6.8 7.5-11.5.2.2.3.4.3.6z" fill="#FFE88A"/><path d="M171.2 103.6c-3.8 8-13.8 5.2-20.9 4.8-1-.1-2-.2-2.9-.3-6.9-.5-13.8 1.5-20.8 1.5-3.3 0-7.2-2.2-7.2-6.1.3-.6.8-.8 1.4-.6 1.7.8 3.3 1.9 4.4 3.6-.6-.8-1.4-1.7-1.1-2.5.6-2.8 4.2-2.5 6.4-2.5 1.1.3 2.2.3 3.1.8 1.9 1.7.8 4.2 1.7 6.1-1.7-5.3 2.2-10.8 7.5-7.8 1.4.8.3 3.6 1.1 5.3.3-2.5-.3-6.4 3.7-6.3.9-.1 1.8 0 2.5.2 1 .3 1.9.8 2.6 1.6 1.7 1.8 1.7 4.6.9 6.8-.3-4.2 2.8-8.3 7.2-7.5 1.4.3 2.2.8 3.3 1.4.6.3.8.8.8 1.4-.3.8-.8 1.7-.8 2.8.3-3.3 4.2-4.7 6.8-2.9.1.1.3.2.3.2z" fill="url(#paint15_linear_150_938)"/><path d="M139.2 63.7c-.8-4.9-4.6-8-9.3-9.8-.9-.3-1.9-.6-2.9-.9-6.4-1.2-13.9-2-19.2 2.4-.6-1.4-1.7-2.8-2.1-4.2-.3-.8-.5-1.6-.7-2.4-.5-2.4-.5-4.9 1-6.7h.2c.2 0 .3.1.5.1-.1 1.7.1 3.5.5 5.2.1.6.3 1.1.5 1.7.2 2.7 2.9 4.6 4.9 2.4.3-.3-.8-1.7-.3-2.8 1.1 4.7 6.7 3.1 10.3 2.5.8 0 1.9-.3 2.7-1.2.5-.4.9-1 1.2-1.6-.3 1.1-1.1 2.2-.3 2.8.7.3 1.3.7 2 1 4.8 2.3 9.8 4.5 11.2 9.8.1.6 0 1.2-.2 1.7z" fill="#EBB0B0"/><path d="M156.5 76.3c-3.3 3.8-8 6.1-12.3 8.2l-2.4-.9c-.8-.3-1.6-.7-2.3-1.1-3.5-1.8-8.5-4.3-8.5-8.8 0-.8.1-1.6.4-2.4 3-2.3 7.2-4 8-8.1 0 3.6-3.3 6.4-5.7 8.6-.2.8-.2 1.7-.2 2.6-.8 2.4 1.2 5.5 3.7 4.7.8 0 .8-1.1 1.2-1.9.3-.7.6-1.4.9-2-.3.8-.6 1.7-.8 2.5-.7 1.5.1 3.1 1.4 3.7.7.4 1.5.6 2.3.8.8.2 1.5.3 2.1.5 2.3-.5 7.6-1.6 5.7-4.9 1.1 3.6 3.3-.6 5.2-.7.2-.3 1-.4 1.3-.8zm24.2-22.5c0 .5-.5 1.4-.8 1.1-.8-.5-1.5-.9-2.3-1.3-.9-.4-1.9-.7-2.9-1-1-.3-1.9-.4-2.9-.6-8.3-.8-19.7 2-22.8 10.6 0-3.1 2.2-6.1 5.3-7.5.6-.6.3-1.4 0-2.2.3.6.3 1.1.6 1.7 4.2-2.2 8.9-3.3 13.7-3.6.8-.1 1.5-.1 2.3-.2.8 0 1.5-.1 2.3-.1-.3-.8.3-1.4.7-1.9.5-.6.9-1.1.9-1.9-.5.7-.8 1.3-.9 1.9-.4 1.7.9 3.1 2.3 3.8.5.3 1.1.5 1.7.8.6.2 1.2.4 1.8.5.4 0 .7 0 1-.1z" fill="#EBB0B0"/><path d="M181.1 53c-.1-1.1.4-2.2.7-3.3.1-.7.2-1.5.2-2.2 0-1.5-.4-3-1.3-4.2-.9.1-1.7.5-2.6.7-.8.1-1.8-.1-2.6-.1-1.3 0-2.4.4-3.5.8s-2 .8-3 .8c-3.9.3-7.8.8-11.8 1.3-.8.1-1.6.2-2.4.2-1.6.1-3.2.1-4.8.1-.1 1.1.1 2.1.4 3.2.2 1 .5 2.1.4 3.2-.2-1-.5-2-.8-2.9-.3-1-.6-1.9-1-2.9-1.4.2-2.4.6-3.9.5-2.6-.2-4.9-.3-7.4-.4-.8 0-1.7-.1-2.5-.2-.4 1.3-1 2.9-1.2 4.3 0-1.7.8-4.2 0-4.2-3.9-1.4-9.4-3.3-13.6-1.4-.1-1.3-1.3-1.3-2.6-1.2-1.3.1-2.8.3-3.7-.4-.7-.2-1.4-.3-2.1-.5-2.1-.5-4.2-1-6.3-1.6.1-.2.2-.3.3-.5h.2c.2 0 .3.1.5.1 3 .6 6 1.1 9.1 1.6 1 .2 2.1.3 3.1.5s2 .3 3.1.4c1.1.1 2.1.2 3.2.5 2.6 0 5.7.9 8.4 1 .9.1 1.7.2 2.6.3 2.6.3 5.1.5 7.6.8 4.2-.4 8.6-.8 13-1.3.9-.1 1.8-.2 2.6-.3 1.8-.3 3.7-.3 5.5-.8.8-.1 1.6-.3 2.4-.4 1.6-.2 3.2-.5 4.7-.6 1-.2 2.1-.3 3.1-.5 2.1-.3 4.1-.7 6.1-1.1.1 0 .2 0 .3-.1 1.6 1.9 1.5 4.6.9 7.2-.2.6-.4 1.3-.6 1.9-.1.5-.4 1.1-.7 1.7zm-39.999 22c.1-.2.1-.4.2-.6-.1.2-.2.4-.2.6z" fill="#FFE88A"/><path d="M141.5 74.7V74c-.1.1-.1.3-.2.4 0 .1.1.2.2.3zm.101-1.7l.3-.6c-.2.1-.3.3-.3.6z" fill="#FFE88A"/><path d="M145.4 71.8c-1.1.1-2.1.5-3.2.3h-.3c-.1 0-.1.1-.1.2-.1.3-.3.6-.5.8 0-.1-.3-.9-.2-.9-.8 0-1.6-.1-2.4-.1-.6-.1-1.3-.1-1.9-.2-.6-.1-1.3-.1-1.9-.1-1.2-.4-2.6.1-3.7-.4.6.3 1.1.8 1.6.7.6.1 1.1.1 1.8.2 1.2 0 2.5.1 3.8.1.9 0 1.7 0 2.3.7.6.8.6 1.7 1 2.6.1-.7.1-1.4.3-2.1 0-.2.1-.4.3-.6.1-.1.2-.1.3-.1 2-.3 3.9-.5 6-.6.1.6.1 1.1 0 1.7.3-.7.6-1.5 1.3-1.8.4-.2.9-.3 1.4-.3.9.2 1.8 0 2.6.1.8 0 1.6.1 2.2.8-.3-.6-.3-1.4-.3-1.9-1.7 0-3.3.6-5.1.7-.6.1-1.2.1-1.8.1-1.2 0-2.4 0-3.5.1z" fill="#FFE88A"/><path d="M145.6 65c-1.2-2.7-1.1-5.9.3-8.5-.8 2.9-.7 5.5-.3 8.5z" fill="#EBB0B0"/><path d="M138 66.1c-1.9 2.4-4.5 4-7.2 5.2-1.4.6-2.8 1.1-4.2 1.5-2.5.7-4.8 2.1-7.6 1.9-.9 0-1.7-.1-2.5-.2-2.5-.5-4.7-1.8-6.2-4-.6-.7-1.2-1.5-1.7-2.3-2.1-3.3-3-7.3-2-10.8.3-1.1 1.4-1.7 2.2-2.5-2.8 3.3-3.6 9.2.3 11.4 1.1.6 2.2-.8 3.1-1.7-1.3.8-1.9 1.8-1.9 2.8-.1 1 .4 2.1 1.1 3 1.1 1.9 3.2 3.2 5.4 3.6.7.1 1.5.2 2.2.1 1.3-.2 3-.5 3.8-1.8.3-.8-.3-1.7.3-2.5.6.8 0 2.2.8 3.1.8.3 2.1.1 3.1-.4 1-.6 1.7-1.5 1.4-2.9.3.3.3.8.6.8 3.3-.6 6.7-2.2 8.9-5 .8-.8 1.1-1.9 1.7-3.1 0 .6 0 1.4-.2 1.8-.5.7-.8 1.4-1.4 2z" fill="url(#paint16_linear_150_938)"/><path d="M150.1 66.1c1.8 1.8 3.9 3.4 6.1 4.8.7.5 1.5.9 2.2 1.3 2.3 1.2 4.5 2.1 6.7 2.8.7.2 1.4.3 2.1.3 3.5.2 7.1-1.1 9.8-3.4.6-.5 1.2-1.1 1.7-1.7.5-.6 1-1.3 1.5-2s.9-1.5 1.2-2.4c1.8-3.8 1.1-7.8-1.4-10.6-.5-.6-1-1.1-1.7-1.5-1.9-1-3.8-1.7-5.8-2-1-.2-2-.2-3-.2-7.8.4-19.7 3.5-20.5 12.5.3.8.6 1.5 1.1 2.1z" fill="url(#paint17_linear_150_938)"/><path d="M175 64.8c-5.7 6.8-16 3.1-21.6-2.1 6.7 1.7 14.2 1.7 20.5-.8.9-.4 1.8-.9 2.6-1.4.3.8-.6 1.4-.5 2.3-.3.6-.6 1.3-1 2zm-25.6-1.7c-.7-3.8 3.7-5.7 6.5-7.4.6-.3 1.1 0 1.4.6 3.1-3.1 8.3-4.7 12.5-3.3v.8c.3-.6.8-1.1 1.4-1.3.6-.2 1.2-.2 1.9-.1 1.4.2 2.8.8 3.9 1.1.8.4 1.6.9 2.2 1.5.6.6 1.1 1.4 1.4 2.4-.4-.9-1-1.7-1.6-2.3-.6-.7-1.3-1.2-2-1.6-1.8-.9-3.7-1.5-5.6-1.7-.9-.1-1.9-.2-2.9-.1-7.2.5-16.4 3.6-19.8 10.5.4.2.6.6.7.9z" fill="#FF8A4F"/><path d="M160.301 64.7c-2.4-.9-4.9-1.7-7.7-1.4 5.6-4.7 13.3-8.3 20.5-6.3.6.4 1 .9 1.4 1.6.3.7.6 1.5.7 2.5.1 1-.8 1.5-2.3 1.7-3.8.5-7.7-.3-11.5 1-.6 0-.7.5-1.1.9z" fill="url(#paint18_linear_150_938)"/><path d="M172.601 57.8c.9.5 2-.1 2.6.5 1.5 1.5 1 3.5.2 5.3-.3.6-.6 1.1-1 1.6-5.8 5.6-15.3 2.5-20.6-2.5 4.4-3.6 10-6.4 15.9-5.4.9.1 1.9.3 2.9.5z" fill="url(#paint19_linear_150_938)"/><path d="M150.1 66.1c1.8 1.8 3.9 3.4 6.1 4.7.7.5 1.5.9 2.2 1.3 2.3 1.1 4.5 1.9 6.7 2.9.7.1 1.4.1 2.1.1 3.6.1 7.3-.5 9.8-3 .6-.5 1.2-1 1.7-1.6.5-.6 1-1.2 1.5-1.9s.9-1.5 1.2-2.3c1.5-3.8 1.2-8.5-1.8-11.3 1.9 3.3 3.9 10.6-1.4 11.7-.8.3-1.4-.8-2-1.4.6.4 1 1 1.3 1.8.3.8.4 1.5.4 2.3-.1.7-.4 1.4-.8 2-2.3 3.7-7.3 5.6-10.6 2.6-.7-.4-1-1-1.1-1.7-.1-.7-.1-1.5-.3-2.2 0 .7 0 1.4-.1 2.1-.1.7-.2 1.4-.5 2.1-.5-.3-1-.5-1.6-.8-1.6-.8-3.2-1.8-3.2-3.6-4.4 1.1-9.4-3.1-10.8-7.2 0 .6 0 1.1.1 1.8.3.3.6 1 1.1 1.6z" fill="url(#paint20_linear_150_938)"/><path d="M176.4 112.5c-.2.7-.3 1.4-.6 2-1 3.4-2.7 6.8-5.9 8.7-.7.4-1.4.8-2.1 1-.7.2-1.5.3-2.3.3-4.5-.5-8.1-3.8-12.7-4.2-1.1-.3-2.3-.5-3.4-.6-5.1-.7-10.1-.4-15.2.9-.7.2-1.4.4-2.2.6-5.8 4.2-15 3.8-18.9-2.3-.6-.9-1-1.9-1.3-3-1.1-3.9.6-7.5 1.1-11.1-1.4 3.9-1.7 10.6 3.6 11.1 1.1 0 2.2-.8 2.8-1.7.8-1.4.8-3.3-.3-4.7.5 6.6 8 7.2 13.4 5.8.8-.2 1.5-.4 2.2-.7 1.4-.1 2.5-.4 3.9-.6.6-.1 1.2-.1 1.8-.1 2.4-.1 4.8-.1 7.1.1.5-1.2.9-1.9 1.6-2.9 0 .1.3-.2.3-.2-.3 1.1-.3 2.5-.6 3.6 7.5.6 16.7 5.3 22.8-1.4 0 .8-.8 1.4-1.1 2.2-.6 1.7.8 2.8 2.2 2.2 1.1-.6 1.7-1.9 2.5-2.9.5-.5 1-1.3 1.3-2.1z" fill="#0F7B7D"/><path d="M174 93.7c-1.9.9-6.6-1.6-6 2.3.3.6-.6.6 0 .8-3.1.3-1.4-2.8-3.6-3.9 1.4 0 1.4 1.7.8 2.5 0-1.1.3-2.8-1.4-3.1-.6 0-1.1.8-1.4 1.4-.6-1.7-1.9-1.1-3.1-.8-1.1 0-2.2 1.4-1.9 2.8.1.7.4 1.3.8 1.7.3.5.8.9 1.2 1.3-1.1-.4-2.3-1.3-2.8-2.3-.5-1-.4-2.1-1.1-3v.8c-.6-.3-1.4-.8-1.9-.8-.6.3-1.4.3-1.4 1.7 0-.8-.6-1.4-1.4-1.7-1.3-.1-1.9.6-2.3 1.6-.3 1-.2 2.3 0 3.1-.8-1.1-.3-3.1-1.7-3.3-3.3-.8-1.7 3.1-1.1 4.7-2.5-.8-1.9-3.1-2.2-5 0 .6 0 1.1-.3 1.7 0-.6.3-1.7 0-1.9-1.9-1.4-4.4-1.1-6.4 0-1.7 1.1-2.2 2.8-2.8 4.4-.3.6-.8-.3-1.1-.8-.6-1.7 1.1-2.2.6-4.2 0 .3-.3.6-.3.8.3-1.1-.6-1.7-1.1-1.9-1.4-.3-3.1-.3-3.9 1.1-.3.6-.3 1.1-.3 1.7.3-.6.6-1.1.3-1.7-.3-.6-.8-.8-1.4-1.1-2.8-.6-4.2 2.5-4.2 5 0-1.9.8-3.9.8-5.8-.3.6-.8 1.1-.6 1.7.3-.6.6-1.1 0-1.7-1.1-.8-2.2-1.4-3.8-.3-.6.3-1.3.8-1.8 1.3s-1 1-1.4 1.5c-.3-.6-.3-1.1-.6-1.7.3-1.1 1-2.5 1.8-3 .9-.5 1.9-.7 2.9-.6 8.3.8 5.5 2.6 24.6 4.1.9.1 2.1.1 2.9.1 8.3 0 16-5.8 25.6-.8.6.4.9.8 1 1.3zm-2.799 9.9c-3.8 8-13.8 5.2-20.9 4.8-1-.1-2-.2-2.9-.3-2.7.1-5.2-.2-8 .4-7.5 1.1-16.1 4.2-20.3-3.6 2.5 1.9 3.6 2.5 6.7 3.6-.6-.8-.8-1.7-1.1-2.5l.6.6c-.6-.8-1.7-1.9-1.1-2.2 2.5-2.5 2.8 2.8 4.2 4.2.6-1.1.3-2.5.8-3.9-.3.6-.3 1.1-.3 1.7.6 2.5 2.8 3.6 5 3.1.6 0 .8-.6 1.1-.8v-1.1c.3.3.3.8.3 1.1.6-2.5-1.7-6.1 1.7-7.5 0 2.2-1.7 6.7 1.7 6.7.3 0 .6-.8.6-1.4 0 .6.3 1.1.8 1.1 1.4-.8 2.2-.3 3.9-.3 0-.6-.3-.8-.3-1.4l.3.3c.6-1.9-.6-5.8 2.2-6.1-.6 2.2-1.1 4.7.3 6.7.5.7 1.7 1.3 2.8 1.4 1-.2 2.4-.8 2.4-2.2-.3 1.1 0 2.2.8 2.8.6 0 .8-.8 1.1-1.4v1.1c1.1-2.2.3-5 2.5-6.9-.3 2.8-2.5 8.1 2.5 6.9.3-.3.6-.6.8-1.1 0 .3 0 .8.3.8 1.7.6 4.2-.3 4.2-2.5 0 .3.3.6.3.8 1.1-1.4 1.4-4.2 3.9-3.9-.6 1.4-2.5 3.3-.8 4.4.3.3.3-1.7 1.1-1.4.8 0 .8 1.1 0 1.7 1.4-1.1 2.2-2.2 2.7-3.8-.1 0 .1.1.1.1z" fill="#CFA1A1"/><path d="M152.4 131.9c0 .2 0 .3-.1.5-.7-2.1-1.9-3.8-1.8-6.1v-.4l-.3-.3c-.6-.3-1.3-.6-1.7-.1-.2.3-.2.7-.2 1.1 0 1.1.1 2.2.1 3.3-.3-1.3-.7-2.7-1-4-.1-.2-.1-.5-.3-.7-.3-.3-.8-.3-1.2-.2-1.2.1-2.5.1-3.7.2-1.1.1-1.2.4-1.6 1.4-.5-.5-.4-1.2-1.3-1.3-.6-.1-.9.1-1.2.5-.9 1.1-1.3 3.4-1.6 4.8 0-.6.1-1.3.1-1.9.3-1.5.6-3 1-4.4 5-1.2 9.1-1.6 13.7.7.2 2.1.7 4.5 1.1 6.9z" fill="#FFE88A"/><path d="M152.5 132.7c-1.7 2.2-4.7 2.9-7.5 2.9-2 0-3.9-.3-5.9-.8-1.3-.3-2.3-.9-3.2-1.9.1-1.4.3-2.9.6-4.3.1-.6.2-1.2.4-1.9.1.5-.1 1.4-.1 1.6-.1 1 0 2 .2 3 .1.4.2.9.5 1.2.3.3.6.4 1 .5 1.7.6 3.5.9 5.3.9.1 0 .2 0 .3-.1.1-.1.1-.2.2-.4.1-1.1.3-2.2.5-3.3 0 1.2.2 2.4.5 3.5 0 .1.1.3.2.3.1.1.3.1.4.1 2.3-.1 4.9-.3 6.3-2.1l.5.5c-.2.2-.2.3-.2.3z" fill="#EBB0B0"/><path d="M5.36 17.57h.406v1.22h.407v-.813H7.8c.542 0 .813.814.813 2.44l1.22.407c0-.813.272-1.22.814-1.22l.407.407v.407L9.02 31.4l6.101-.407h4.068l.406-2.034-.406-.407h.813l-.407-2.847V25.3h.814l-.407-.407v-.814h.813v-.813h-.813v-.407h.813l-.406-.407v-2.847l.406.407h.407v-1.627l-.407-.407v-.406h1.22L20.003 31.4c.542 0 1.356-4.474 2.44-13.423l1.627-.406c.271 2.169.678 3.253 1.22 3.253h.407c0-.813.271-1.22.814-1.22h.406c-1.355 9.38-3.389 20.361-6.1 32.946h-.407l-.407-.407.407-.406v-3.254h-.407l-1.22 4.067h-1.22c-.543 0-.814-.813-.814-2.44h-.407v1.627h-.406c-.543 0-.814-.407-.814-1.22 0-1.963.814-6.572 2.44-13.83h-.406l-5.288.407-3.66-.407c-.814 6.508-1.627 10.847-2.44 13.016H4.545c-.542 0-.814-1.085-.814-3.254h-.406l-.407 2.847-.814-.813v-1.22l.407-.407v-.407l-.407-.407H1.7l-.407.407H.885L.48 44.822c1.084-9.156 2.304-15.799 3.66-19.93h.407l-.407-.407v-1.22l1.22-4.474h-.406l.406-1.22zm.406 1.628v2.847h.407v-2.848h-.407zM5.36 22.45l-.406 3.254v.814h.406l.407-3.254v-.814H5.36zm-.813 4.474v1.627h.407v-1.627h-.407zm-.407 2.034l-.407 2.034v.407h.407l.407-1.627v-.814H4.14zm-.813 4.068v1.627h.406v-1.627h-.406zm15.456 4.067l-.407 2.44v.407h.407l.407-2.034v-.813h-.407zm-.814 3.254v1.627h.407v-1.627h-.407zm2.847 4.474l-.406 2.034v1.22h.406l.407-2.847v-.407h-.407zM.885 46.856h.407v2.033H.885v-2.033zm32.898-28.998l.814 1.22-.407 2.034.407.406h.406l.407-2.033h.814l.406 1.22c-2.169 7.816-3.254 13.917-3.254 18.303.272 2.983.814 4.474 1.627 4.474l9.355-10.575.407-2.034V19.485l.814-.814c.542 0 .813.543.813 1.627h.407c0-1.084.678-1.627 2.034-1.627l.813 1.627-.407 2.034c.543 0 .814-.678.814-2.034h.813l.407.407h.407L49.646 49.99l-.407 1.627c-1.084 0-1.627.542-1.627 1.627h-1.627l.407-4.068h-.813v2.44l-1.22 1.221v-.407l.406-4.067c-.813 0-1.22-.542-1.22-1.627h-.407l-6.914 3.254-3.254-.814v.407c-2.808 0-4.706-4.067-5.695-12.202 1.085-12.202 2.17-18.303 3.254-18.303v-.407h.407v1.627h-.813v.814l.406.406v.407h-.406l.406 1.22-1.22 2.034h.407l.407-.407-1.22 7.322v1.627h.406c.861-10.576 2.353-15.863 4.474-15.863zm-4.88 16.27l-.407.406v3.254h.406l.407-3.66h-.407zM41.51 37.38l-2.847 3.254h.407l2.847-3.254h-.407zm-11.794 6.51v.813l.407 1.22h.406v-.813l-.406-1.22h-.407zm2.847 2.034v.406c0 .941 1.22 1.755 3.66 2.44h.814v-.406c-1.563-.016-3.054-.83-4.474-2.44zM58.187 17.57c.543 0 .814.813.814 2.44h.814l1.22-.813.406.406-2.033 22.778c1.722-.814 6.332-1.763 13.829-2.848h.407v.407c-9.491 1.547-14.236 2.768-14.236 3.66l4.474-1.22v.407l7.728-1.627v.407l.407-.407h.406l.407.407 2.034-.407h1.627l2.847.407v.407c0 .813-2.034 1.491-6.101 2.033v.407l.407-.407h.406l2.847.407.407-.407v1.22l-13.422 3.255-8.542 3.254h-1.22l-1.627-2.034h-.407v-.407c0-.686.543-1.093 1.627-1.22v-1.22l-1.22-1.627 1.627-18.303h.407v1.627L54.12 31.4h.814l-.814 5.287.407.407-.407 1.627v2.034h.407l1.627-21.558c.542 0 .813-.406.813-1.22l.407-.406h.813zm28.353.382c-.064.814.446 1.22 1.53 1.22l.743 1.628-.431.406h.407c-1.946 5.742-3.135 12.386-3.565 19.93l-.144 2.44.407.408-.024.406-.43.407h.406l-.43.407.239 2.847-.048.813c-1.452 1.755-2.21 3.11-2.273 4.068H81.3l-1.962-.814.574-2.847-1.555-1.627.742-6.1.406-7.322.886-1.22.095-1.627-.383-.407.024-.407h.814l.024-.407-.383-.406 1.65-7.728h-.406l.43-.407.12-2.44-.382-.407.024-.407 4.522-.407zm-4.499 7.322l-.143 2.847h.407l.143-2.847h-.406zm-.622 4.067l-.143 2.44h.407l.143-2.44h-.407zm-.622 3.66l-.12 2.441h.407l.12-2.44h-.407zm-.071 16.27l-.12 2.034.837-.814.096-1.22h-.813zM202.867 16.16l.383.407v.406l.406-.406h2.034c.542 0 .797.678.766 2.033h.406c.032-.813.319-1.22.862-1.22.542 0 .797.407.765 1.22l2.871-.406 4.355.813 1.627-.407c2.073 0 3.668 1.085 4.785 3.254l-.431 2.847.383.407v.407l-.885 2.44h-.407l.024-.813h-.407c-2.105 5.104-5.072 8.63-8.9 10.575l-6.604 2.847-.215 6.915.335 2.033c-.542 0-1.268 1.356-2.177 4.068l-.407.407h-.407l-3.206-1.627.527-3.254-1.173-1.627 1.005-5.695-.407-.406 1.484-7.728-.407-.407.431-.407h.813l-.048 1.627h.407l.072-2.034-.359-1.22h.813l.048-2.033-.789-.814-.048 1.627h-.407c.064-1.723-.702-3.078-2.297-4.067l-.335-2.44.072-1.628c3.557-1.451 5.344-2.4 5.359-2.847l.024-.407-.789-.813-.407.407-.383-1.627.431-.407h.407zm3.541 15.863h.813c3.493-1.468 6.556-3.908 9.188-7.322h-1.221c-5.439.367-8.174 1.18-8.206 2.44l-.574 4.882zm10.36-5.695c-.862 1.532-4.331 3.836-10.408 6.915l-.407.407v.406h.814c4.003-1.228 7.472-3.804 10.407-7.728h-.406zm-16.533 8.542l-.024.407.383.406-.407.407-.048.814h.814l.095-2.034h-.813zm44.55-17.06l1.962 1.365c-.575 2.408-1.611 3.564-3.111 3.469l-10.623.478-.048.814 2.01.143 2.464-.239.383.455.407.024 2.871-.24.814.072-.024.407-9.451.98-.742 5.265.407.023 11.054-.885.359.43-.024.408-.814-.072v.407l2.8.622-.024.406c-.591 1.516-4.483 2.744-11.676 3.685l-4.091.143.382.407-1.962 5.168h-.406l.239-3.66-.407-.024-.789 5.646c8.118-1.084 13.853-1.515 17.202-1.292l1.986.55-.024.814-.813-.048.359.43-.072 1.22c-.782 1.022-2.441 1.452-4.977 1.293l-.024.407 3.254.215-.072.813-18.925 2.776-.407-.024c-1.308-.287-1.961-.71-1.961-1.268v-.072l.071-1.22 1.125-4.403-.383-.43.813.024-.143 2.034.407.047c.159-1.355.478-2.01.957-1.962l-.383-.454.287-4.044-.814-.071-.55 2.01.455-.383.407.023-.168 2.44-.407-.047.072-1.196-.407-.024-.048.813-.406-.024.048-.813 1.292-6.867-.407-.024.933-1.962-.383-.43.024-.407.885-6.867.383.43.407.025.048-.814-.263-2.057.646-3.637.071-1.22.407.048.383.43.431-.383.406.048.383.407.431-.383 1.22.096 14.284-.263zm-20.361 17.778l-.192 2.847.407.024.192-2.823-.407-.048zm13.422.526h.407l-.048.407-7.369.741-.383-.454.024-.383 3.685-.167-.024.406 3.708-.55zm27.252-18.423c3.19 0 6.173.95 8.948 2.847l-.407.407v.407l1.627 2.44h-.813l-.407-.407h-.407l1.22 8.949h.407c0-1.356.271-2.034.814-2.034v1.627c0 1.531-1.356 5.056-4.068 10.575h.407c-1.914 2.632-4.761 5.073-8.542 7.322l-2.033.406h-.407c-6.444 0-10.511-2.576-12.202-7.728l-1.627-2.44.407-.407-.407-2.847v-.814c0-2.249 2.169-6.18 6.508-11.795v.407c-1.994 2.68-3.621 5.662-4.881 8.948v.407h.407c.989-3.972 4.649-8.988 10.982-15.05l-2.848 1.627h-.406c0-1.244 2.576-2.193 7.728-2.847zm-2.034 6.915l-.407-.407v.407l.407.407-2.847 2.44c-2.249 0-4.418 3.796-6.508 11.389 0 2.169 1.22 4.067 3.661 5.694h.406c2.967 0 6.357-3.118 10.169-9.355 1.356-2.967 2.034-5.136 2.034-6.508v-3.254c0-.75-1.356-1.292-4.068-1.627h-.407l-.406.407h-.407v-.407l-1.627.814zm11.795 1.22h.814v2.034h-.814v-2.034zM254.116 30.3l-1.22 2.44h.406l1.22-2.44h-.406zm15.863 2.44l-1.627 4.068h1.22l1.22-2.847-.407-1.22h-.406zm2.847 1.628l-.407 1.22v.813h.407l.406-1.627v-.407h-.406zm-23.998 1.626v3.254h.407v-3.254h-.407zm19.117 1.22l-1.627 2.034h.407l1.627-2.033h-.407zm-13.016 8.949v.407l2.034 1.22v-.407l-2.034-1.22zm26.749-30.003l.383.407v.406l.407-.406h2.033c.543 0 .798.678.766 2.033h.407c.032-.813.319-1.22.861-1.22s.798.407.766 1.22l2.871-.406 4.354.813 1.627-.407c2.074 0 3.669 1.085 4.785 3.254l-.43 2.847.383.407v.407l-.886 2.44h-.406l.024-.813h-.407c-2.106 5.104-5.072 8.63-8.901 10.575l-6.603 2.847-.215 6.915.335 2.033c-.543 0-1.269 1.356-2.178 4.068l-.406.407h-.407l-3.206-1.627.526-3.254-1.172-1.627 1.005-5.695-.407-.406 1.483-7.728-.406-.407.43-.407h.814l-.048 1.627h.407l.071-2.034-.359-1.22h.814l.048-2.033-.79-.814-.048 1.627h-.406c.063-1.723-.702-3.078-2.297-4.067l-.335-2.44.072-1.628c3.557-1.451 5.343-2.4 5.359-2.847l.024-.407-.79-.813-.406.407-.383-1.627.43-.407h.407zm3.541 15.863h.814c3.493-1.468 6.555-3.908 9.187-7.322H294c-5.439.367-8.175 1.18-8.207 2.44l-.574 4.882zm10.36-5.695c-.861 1.532-4.33 3.836-10.408 6.915l-.406.407v.406h.813c4.004-1.228 7.473-3.804 10.408-7.728h-.407zm-16.533 8.542l-.024.407.383.406-.406.407-.048.814h.813l.096-2.034h-.814zm28.305-17.298c.542 0 .813.813.813 2.44h.814l1.22-.813.406.406-2.033 22.778c1.722-.814 6.332-1.763 13.829-2.848h.407v.407c-9.491 1.547-14.236 2.768-14.236 3.66l4.474-1.22v.407l7.728-1.627v.407l.407-.407h.406l.407.407 2.034-.407h1.627l2.847.407v.407c0 .813-2.034 1.491-6.101 2.033v.407l.407-.407h.406l2.848.407.406-.407v1.22l-13.422 3.255-8.542 3.254h-1.22l-1.627-2.034h-.406v-.407c0-.686.542-1.093 1.626-1.22v-1.22l-1.22-1.627 1.627-18.303h.407v1.627l-.407 2.847h.814l-.814 5.287.407.407-.407 1.627v2.034h.407l1.627-21.558c.542 0 .813-.406.813-1.22l.407-.406h.814zm41.654.239l1.962 1.364c-.574 2.408-1.611 3.564-3.11 3.469l-10.623.478-.048.814 2.01.143 2.464-.239.383.455.407.024 2.871-.24.813.072-.024.407-9.45.98-.742 5.265.407.023 11.053-.885.359.43-.024.408-.813-.072v.407l2.799.622-.024.406c-.59 1.516-4.482 2.744-11.675 3.685l-4.092.143.383.407-1.962 5.168h-.407l.24-3.66-.407-.024-.79 5.646c8.119-1.084 13.853-1.515 17.203-1.292l1.986.55-.024.814-.814-.048.359.43-.071 1.22c-.782 1.022-2.441 1.452-4.977 1.293l-.024.407 3.254.215-.072.813-18.925 2.776-.407-.024c-1.308-.287-1.962-.71-1.962-1.268v-.072l.072-1.22 1.125-4.403-.383-.43.813.024-.143 2.034.406.047c.16-1.355.479-2.01.957-1.962l-.382-.454.287-4.044-.814-.071-.55 2.01.454-.383.407.023-.167 2.44-.407-.047.072-1.196-.407-.024-.048.813-.407-.024.048-.813 1.292-6.867-.406-.024.933-1.962-.383-.43.024-.407.885-6.867.383.43.407.025.047-.814-.263-2.057.646-3.637.072-1.22.407.048.383.43.43-.383.407.048.383.407.43-.383 1.221.096 14.283-.263zm-20.36 17.777l-.192 2.847.407.024.191-2.823-.406-.048zm13.422.526h.407l-.048.407-7.369.741-.383-.454.024-.383 3.684-.167-.024.406 3.709-.55z" fill="#71FF87"/><defs><linearGradient id="paint0_linear_150_938" x1="145.14" y1="-3.413" x2="137.345" y2="102.968" gradientUnits="userSpaceOnUse"><stop stop-color="#802E2E"/><stop offset="1" stop-color="#4C0F37"/></linearGradient><linearGradient id="paint1_linear_150_938" x1="143.859" y1="49.842" x2="143.859" y2="78.818" gradientUnits="userSpaceOnUse"><stop stop-color="#FFCB2E"/><stop offset="1" stop-color="#CC6F2D"/></linearGradient><linearGradient id="paint2_linear_150_938" x1="143.587" y1="67.873" x2="144.354" y2="83.821" gradientUnits="userSpaceOnUse"><stop stop-color="#FFCB2E"/><stop offset="1" stop-color="#CC6F2D"/></linearGradient><linearGradient id="paint3_linear_150_938" x1="123.165" y1="47.088" x2="121.937" y2="102.33" gradientUnits="userSpaceOnUse"><stop offset=".006" stop-color="#F24A20"/><stop offset=".994" stop-color="#8A0B2B"/></linearGradient><linearGradient id="paint4_linear_150_938" x1="121.549" y1="82.195" x2="123.703" y2="60.436" gradientUnits="userSpaceOnUse"><stop offset=".006" stop-color="#F24A20"/><stop offset=".994" stop-color="#8A0B2B"/></linearGradient><linearGradient id="paint5_linear_150_938" x1="125.045" y1="105.873" x2="123.283" y2="66.359" gradientUnits="userSpaceOnUse"><stop stop-color="#802E2E"/><stop offset="1" stop-color="#4C0F37"/></linearGradient><linearGradient id="paint6_linear_150_938" x1="144.194" y1="87.505" x2="144.194" y2="144.504" gradientUnits="userSpaceOnUse"><stop offset=".006" stop-color="#71FF87"/><stop offset=".994" stop-color="#067C91"/></linearGradient><linearGradient id="paint7_linear_150_938" x1="147.992" y1="90.221" x2="147.992" y2="87.461" gradientUnits="userSpaceOnUse"><stop offset=".006" stop-color="#19BD91"/><stop offset=".994" stop-color="#067C91"/></linearGradient><linearGradient id="paint8_linear_150_938" x1="143.496" y1="116.356" x2="143.496" y2="85.569" gradientUnits="userSpaceOnUse"><stop offset=".006" stop-color="#19BD91"/><stop offset=".994" stop-color="#067C91"/></linearGradient><linearGradient id="paint9_linear_150_938" x1="144.072" y1="111.426" x2="144.302" y2="143.057" gradientUnits="userSpaceOnUse"><stop stop-color="#FFCB2E"/><stop offset="1" stop-color="#CC6F2D"/></linearGradient><linearGradient id="paint10_linear_150_938" x1="145.181" y1="121.255" x2="145.241" y2="112.027" gradientUnits="userSpaceOnUse"><stop offset=".006" stop-color="#19BD91"/><stop offset=".994" stop-color="#067C91"/></linearGradient><linearGradient id="paint11_linear_150_938" x1="144.606" y1="112.091" x2="144.606" y2="91.88" gradientUnits="userSpaceOnUse"><stop stop-color="#802E2E"/><stop offset="1" stop-color="#4C0F37"/></linearGradient><linearGradient id="paint12_linear_150_938" x1="115.403" y1="94.755" x2="173.959" y2="94.755" gradientUnits="userSpaceOnUse"><stop stop-color="#FFA769"/><stop offset=".406" stop-color="#FFC793"/><stop offset=".972" stop-color="#FFF1C9"/></linearGradient><linearGradient id="paint13_linear_150_938" x1="144.459" y1="5.211" x2="141.708" y2="68.95" gradientUnits="userSpaceOnUse"><stop offset=".006" stop-color="#71FF87"/><stop offset=".994" stop-color="#067C91"/></linearGradient><linearGradient id="paint14_linear_150_938" x1="145.014" y1="4.817" x2="142.033" y2="60.309" gradientUnits="userSpaceOnUse"><stop stop-color="#FFCB2E"/><stop offset="1" stop-color="#CC6F2D"/></linearGradient><linearGradient id="paint15_linear_150_938" x1="119.307" y1="104.651" x2="171.161" y2="104.651" gradientUnits="userSpaceOnUse"><stop stop-color="#FFA769"/><stop offset=".406" stop-color="#FFC793"/><stop offset=".972" stop-color="#FFF1C9"/></linearGradient><linearGradient id="paint16_linear_150_938" x1="121.851" y1="87.492" x2="122.47" y2="69.011" gradientUnits="userSpaceOnUse"><stop offset=".006" stop-color="#F24A20"/><stop offset=".994" stop-color="#8A0B2B"/></linearGradient><linearGradient id="paint17_linear_150_938" x1="165.404" y1="47.007" x2="166.657" y2="103.392" gradientUnits="userSpaceOnUse"><stop offset=".006" stop-color="#F24A20"/><stop offset=".994" stop-color="#8A0B2B"/></linearGradient><linearGradient id="paint18_linear_150_938" x1="165.759" y1="80.975" x2="163.731" y2="60.486" gradientUnits="userSpaceOnUse"><stop offset=".006" stop-color="#F24A20"/><stop offset=".994" stop-color="#8A0B2B"/></linearGradient><linearGradient id="paint19_linear_150_938" x1="162.856" y1="108.196" x2="164.721" y2="66.362" gradientUnits="userSpaceOnUse"><stop stop-color="#802E2E"/><stop offset="1" stop-color="#4C0F37"/></linearGradient><linearGradient id="paint20_linear_150_938" x1="166.548" y1="88.474" x2="165.91" y2="69.427" gradientUnits="userSpaceOnUse"><stop offset=".006" stop-color="#F24A20"/><stop offset=".994" stop-color="#8A0B2B"/></linearGradient></defs></svg>