<svg width="397" height="130" fill="none" xmlns="http://www.w3.org/2000/svg"><g filter="url(#filter0_d_150_2744)"><path d="M56.502 27.778A5 5 0 0160.325 26H362a5 5 0 015 5v60a5 5 0 01-5 5H60.325a5 5 0 01-3.823-1.778l-25.286-30a5 5 0 010-6.444l25.286-30z" fill="#000"/><path d="M60.325 26.5H362a4.5 4.5 0 014.5 4.5v60a4.5 4.5 0 01-4.5 4.5H60.325a4.5 4.5 0 01-3.441-1.6l-25.286-30a4.5 4.5 0 010-5.8l25.286-30a4.5 4.5 0 013.44-1.6z" stroke="#97FF95"/></g><defs><filter id="filter0_d_150_2744" x=".039" y="0" width="396.961" height="130" filterUnits="userSpaceOnUse" color-interpolation-filters="sRGB"><feFlood flood-opacity="0" result="BackgroundImageFix"/><feColorMatrix in="SourceAlpha" values="0 0 0 0 0 0 0 0 0 0 0 0 0 0 0 0 0 0 127 0" result="hardAlpha"/><feOffset dy="4"/><feGaussianBlur stdDeviation="15"/><feComposite in2="hardAlpha" operator="out"/><feColorMatrix values="0 0 0 0 0.23316 0 0 0 0 0.708333 0 0 0 0 0.594292 0 0 0 1 0"/><feBlend in2="BackgroundImageFix" result="effect1_dropShadow_150_2744"/><feBlend in="SourceGraphic" in2="effect1_dropShadow_150_2744" result="shape"/></filter></defs></svg>