<svg width="378" height="317" fill="none" xmlns="http://www.w3.org/2000/svg"><path d="M166.967 86.64c-23.975-30.825-53.23-57.796-85.91-79.345-5.993-3.853-12.7-7.849-19.693-6.422C50.52 3.014 46.094 15.715 43.67 26.418a2194.708 2194.708 0 00-40.243 239.46c-.999 8.277-1.713 17.267 2.854 24.117 5.137 7.849 15.412 10.418 24.83 11.702 38.103 4.852 77.49-2.141 111.597-19.836 5.565-2.854 11.416-6.565 13.699-12.416 4.71-11.844-7.991-23.974-20.407-26.543-12.415-2.569-25.687 0-37.96-3.71-12.13-3.711-22.547-18.98-14.555-28.969 9.561-12.13 23.118-23.119 38.245-25.687 15.269-2.569 33.25-6.422 39.244-20.55 3.996-9.419.999-20.407-2.997-29.826-3.996-9.418-9.133-18.837-9.561-29.111-.428-10.275 8.419-17.553 18.552-18.41z" fill="url(#paint0_linear_74_1049)"/><path d="M66.648 16.714c-10.703-5.28-24.26-9.99-33.536-2.569-7.563 5.994-8.134 16.982-8.277 26.544-.428 80.058-.856 160.258-1.427 240.316 0 8.277.143 17.41 5.138 23.974 9.56 12.559 29.254 8.705 44.096 2.997 65.93-25.544 127.293-61.363 188.228-97.04 13.7-7.991 28.399-17.267 33.536-32.394 6.565-19.836-10.417-43.668-31.395-43.668-11.845 0-22.833 6.279-32.68 12.844-21.976 14.699-43.382 32.679-69.497 37.389-26.115 4.709-58.224-10.989-59.223-37.532-.714-18.123 13.7-33.964 30.396-40.956 16.411-6.85 34.535-6.422 51.802-7.421-33.393-34.677-73.921-61.078-117.161-82.484z" fill="url(#paint1_linear_74_1049)"/><path d="M137.285 65.804A357.76 357.76 0 0029.257 20.71c-6.85-1.57-14.556-2.854-20.693.714C-.854 27.13-.71 40.688.716 51.533A2289.726 2289.726 0 0045.097 290.28c1.998 7.992 4.424 16.697 10.988 21.692 7.564 5.565 18.124 4.566 27.4 2.426 37.389-8.42 72.066-28.542 97.896-56.94 4.281-4.709 8.562-9.989 8.705-16.411.428-12.701-15.698-19.694-28.256-17.838-12.558 1.855-24.117 8.847-36.818 9.561-12.701.713-27.685-9.989-23.689-22.119 4.852-14.699 13.7-29.683 27.114-37.247 13.415-7.563 28.969-17.41 29.826-32.822.57-10.275-5.994-19.551-12.987-26.971-6.992-7.421-15.126-14.556-18.979-23.975-3.853-9.418 1.712-19.55 10.988-23.832z" fill="url(#paint2_linear_74_1049)"/><path d="M346.206 142.295c17.339 0 31.395-14.056 31.395-31.395 0-17.34-14.056-31.396-31.395-31.396S314.811 93.56 314.811 110.9c0 17.339 14.056 31.395 31.395 31.395z" fill="url(#paint3_linear_74_1049)"/><path d="M243.456 98.056c10.246 0 18.552-8.306 18.552-18.552s-8.306-18.551-18.552-18.551-18.552 8.305-18.552 18.551c0 10.246 8.306 18.552 18.552 18.552z" fill="url(#paint4_linear_74_1049)"/><path d="M233.468 237.908c10.246 0 18.551-8.306 18.551-18.552s-8.305-18.552-18.551-18.552c-10.246 0-18.552 8.306-18.552 18.552s8.306 18.552 18.552 18.552z" fill="url(#paint5_linear_74_1049)"/><path d="M185.52 140.582c6.147 0 11.131-4.983 11.131-11.131 0-6.147-4.984-11.131-11.131-11.131-6.148 0-11.131 4.984-11.131 11.131 0 6.148 4.983 11.131 11.131 11.131z" fill="url(#paint6_linear_74_1049)"/><defs><linearGradient id="paint0_linear_74_1049" x1="19.377" y1="145.514" x2="175.117" y2="176.215" gradientUnits="userSpaceOnUse"><stop stop-color="#003437"/><stop offset="1" stop-color="#006837"/></linearGradient><linearGradient id="paint1_linear_74_1049" x1="23.513" y1="161.834" x2="295.986" y2="161.834" gradientUnits="userSpaceOnUse"><stop stop-color="#006837"/><stop offset="1" stop-color="#39B54A"/></linearGradient><linearGradient id="paint2_linear_74_1049" x1="18.831" y1="171.767" x2="175.651" y2="147.13" gradientUnits="userSpaceOnUse"><stop stop-color="#39B54A"/><stop offset="1" stop-color="#D9E021"/></linearGradient><linearGradient id="paint3_linear_74_1049" x1="314.859" y1="110.951" x2="377.649" y2="110.951" gradientUnits="userSpaceOnUse"><stop stop-color="#006837"/><stop offset="1" stop-color="#39B54A"/></linearGradient><linearGradient id="paint4_linear_74_1049" x1="224.953" y1="79.556" x2="262.056" y2="79.556" gradientUnits="userSpaceOnUse"><stop stop-color="#006837"/><stop offset="1" stop-color="#39B54A"/></linearGradient><linearGradient id="paint5_linear_74_1049" x1="214.964" y1="219.407" x2="252.068" y2="219.407" gradientUnits="userSpaceOnUse"><stop stop-color="#39B54A"/><stop offset="1" stop-color="#D9E021"/></linearGradient><linearGradient id="paint6_linear_74_1049" x1="174.47" y1="129.503" x2="196.67" y2="129.503" gradientUnits="userSpaceOnUse"><stop stop-color="#39B54A"/><stop offset="1" stop-color="#D9E021"/></linearGradient></defs></svg>