<svg width="209" height="39" fill="none" xmlns="http://www.w3.org/2000/svg"><path d="M30.153 0c.073.403.394.273.641.288 2.273.144 4.268.935 5.914 2.518 1.617 1.569 2.346 3.57 2.462 5.728.379 6.922.131 13.844.131 20.766 0 1.914-.32 3.843-1.427 5.541-1.384 2.13-3.336 3.396-5.842 3.857-.218.043-.51-.072-.568.288H7.866c-.029-.317-.277-.26-.48-.288-3.7-.518-6.541-3.339-7.095-6.994-.029-.216.03-.446-.291-.475V7.915c.32-.029.262-.273.306-.475.306-1.727.976-3.281 2.243-4.547C4.181 1.238 6.22.432 8.536.288c.233-.015.568.115.641-.288h20.976zM18.966 1.007c-3.074.116-6.89-.201-10.692.144-2.418.216-4.37 1.295-5.827 3.224C1.21 6.015.932 7.944.903 9.872.83 14.88.86 19.903.89 24.912c.014 1.942-.132 3.885.13 5.813.175 1.209.38 2.403 1.035 3.468 1.66 2.72 4.253 3.915 7.312 3.915 7.255.014 14.51.259 21.763-.13 2.39-.13 4.312-1.295 5.769-3.195 1.18-1.554 1.53-3.396 1.53-5.21 0-7.05.247-14.088-.117-21.14-.131-2.561-1.34-4.62-3.51-6.044-1.545-1.022-3.322-1.324-5.114-1.353-3.336-.072-6.671-.029-10.721-.029z" fill="#E5E5E5"/><path d="M48.332 31.66c1.486-3.195 2.913-6.303 4.37-9.411.233-.504.291-.778-.306-1.109-1.223-.676-2.054-1.755-2.505-3.065-.7-2.058-.758-4.144-.131-6.217.946-3.137 3.394-4.85 6.963-4.907 1.092-.015 2.185.029 3.277-.015.525-.014.641.159.641.648-.014 3.785-.014 7.57-.014 11.369 0 4.03-.015 8.059.014 12.088 0 .49-.102.691-.626.634-.67-.072-1.559.273-1.952-.144-.335-.36-.102-1.223-.102-1.871 0-2.274-.015-4.562.014-6.836 0-.49-.13-.59-.626-.662-1.267-.187-1.85.317-2.316 1.483-1.005 2.532-2.214 4.993-3.322 7.483-.174.403-.393.575-.859.547-.801-.043-1.602-.015-2.52-.015zm9.629-17.053V9.714c0-.187.116-.417-.219-.504-1.354-.36-3.481.346-4.34 1.468-1.02 1.338-1.18 2.893-1.122 4.504.116 3.426 1.777 4.994 5.069 4.836.539-.029.626-.187.612-.662-.015-1.583 0-3.166 0-4.75z" fill="#242424"/><path d="M137.934 25.17c.364-1.626.757-3.21 1.165-4.807 1.093-4.274 2.156-8.548 3.219-12.822.117-.504.35-.62.845-.62 1.326.03 1.297.015 1.355 1.282l.962 22.061c0 .144.029.288.014.432-.015.302.175.792-.073.863-.437.144-.947.101-1.427.044-.292-.03-.175-.36-.19-.547-.116-2.59-.233-5.181-.32-7.757-.16-4.476-.495-8.951-.51-13.456-.262 1.31-.481 2.634-.801 3.944-1.136 4.533-2.316 9.051-3.453 13.57-.131.518-.451.403-.757.403-.32 0-.714.159-.845-.388-1.238-5.239-2.753-10.42-3.86-15.687-.044-.201.014-.489-.277-.619-.189.144-.116.346-.116.519l-.787 19.341c-.015.23.117.62-.189.691-.365.086-.772.058-1.151 0-.19-.029-.088-.288-.088-.446l.525-12.506c.16-3.684.349-7.383.495-11.067.015-.46.088-.676.627-.662 1.311.029 1.311 0 1.616 1.267 1.224 5.051 2.462 10.102 3.686 15.14.131.604.233 1.208.335 1.827zm-51.727-3.295c0 2.302.014 4.605-.015 6.908 0 .503.073.805.656.69.626-.115.757.159.743.734a85.361 85.361 0 000 4.318c.014.489-.146.59-.612.59-1.836 0-1.836.014-1.836-1.828 0-1.626 0-1.626-1.646-1.626-1.704 0-3.394.043-5.098-.015-.7-.028-.845.216-.801.835.058.69 0 1.396.014 2.087.015.388-.087.532-.524.547-1.938.057-1.938.072-1.938-1.857 0-1.08.015-2.158-.014-3.238-.015-.431.102-.647.553-.547.481.101.612-.201.743-.575 1.035-2.82 1.34-5.771 1.472-8.75.087-1.741.087-3.497.087-5.253 0-.46.073-.662.612-.662 2.33.029 4.661.029 6.992 0 .553-.014.626.187.612.662-.015 2.332 0 4.649 0 6.98zm-2.724 1.108c0-1.44.014-2.878 0-4.317-.015-.734.335-1.713-.146-2.13-.422-.36-1.384-.058-2.112-.13-.656-.072-.801.173-.801.792 0 4.015-.16 8.001-1.486 11.858-.146.417.058.417.364.417 1.195-.014 2.374-.028 3.569 0 .466.015.626-.115.612-.59-.015-1.971 0-3.943 0-5.9z" fill="#272727"/><path d="M64.095 22.91c0-2.69.014-5.367-.015-8.058 0-.504.131-.662.641-.62.67.058 1.573-.215 1.966.13.452.389.132 1.31.146 1.986.03 1.555.03 3.123 0 4.677-.014.519.16.634.656.62a29.57 29.57 0 012.767 0c.51.014.656-.13.656-.634-.03-2.043.014-4.073-.03-6.116-.014-.547.146-.705.685-.662.641.072 1.5-.26 1.894.115.393.388.117 1.223.117 1.856.014 4.908 0 9.83.014 14.737 0 .547-.116.777-.699.705a7.036 7.036 0 00-1.457 0c-.48.043-.553-.144-.553-.576.014-2.201-.015-4.403.014-6.62 0-.503-.145-.647-.64-.633a31.3 31.3 0 01-2.841 0c-.51-.029-.583.159-.583.605.015 2.187-.014 4.36.03 6.548.014.547-.146.72-.685.662a9.042 9.042 0 00-1.53 0c-.466.043-.553-.13-.553-.562.014-2.69 0-5.425 0-8.16z" fill="#242424"/><path d="M95.661 23.587c-1.02 0-2.04.014-3.06-.014-.378-.015-.567.043-.538.489.073 1.18.16 2.346.597 3.454.714 1.77 2.04 2.403 3.904 1.9.612-.159 1.21-.36 1.734-.72.378-.26.524-.26.67.23.539 1.713.568 1.785-1.151 2.418-3.467 1.295-7.08.417-8.172-4.174-.772-3.223-.554-6.476.495-9.642a5.86 5.86 0 011.253-2.158c2.01-2.173 5.477-1.77 6.89.806.714 1.295.947 2.705 1.049 4.144.058.878.014 1.77.073 2.663.029.489-.16.604-.612.59-1.049 0-2.083.014-3.132.014zm-1.296-2.23h1.82c.19 0 .408.043.408-.26-.014-1.41-.014-2.85-.772-4.116-.553-.935-1.704-1.007-2.476-.23-.335.331-.525.748-.67 1.18-.35.979-.423 2.015-.54 3.037-.043.36.146.388.423.388h1.806z" fill="#272727"/><path d="M104.91 23.3c0 2.532-.014 5.065.015 7.598.014.604-.117.878-.772.777-.612-.086-1.442.245-1.821-.115-.379-.374-.117-1.18-.117-1.8-.014-4.935 0-9.871-.014-14.822 0-.561.145-.748.714-.69.48.042.976.042 1.456 0 .466-.044.554.129.554.56-.015 2.404-.015 4.793-.015 7.21.306-.014.306-.287.394-.446a507.169 507.169 0 003.583-6.821c.189-.36.393-.532.83-.504.699.043 1.399.015 2.112.015.015.316-.174.518-.291.748-1.223 2.303-2.447 4.62-3.7 6.908-.204.374-.204.676 0 1.05a2046.2 2046.2 0 014.297 7.901c.117.23.233.46.408.791-.947 0-1.806-.014-2.665.015-.379.014-.423-.274-.539-.49-1.297-2.403-2.579-4.82-3.875-7.224-.117-.23-.248-.46-.379-.676a.66.66 0 00-.175.014zm17.115-5.872c-.568-.36-1.034-.706-1.587-.893-1.705-.604-2.987-.086-3.788 1.526-.451.92-.67 1.9-.772 2.907-.175 2.015-.175 4.03.364 6 .845 3.066 3.089 3.268 5.376 1.9.102-.057.189-.129.364-.244.189.576.335 1.122.539 1.64.131.346-.088.461-.306.634-2.404 1.813-6.176 1.151-7.808-1.382-1.078-1.67-1.398-3.569-1.486-5.483-.102-2.115.044-4.216.845-6.217 1.34-3.324 4.822-4.72 7.997-3.238.496.23.685.504.554 1.05-.131.548-.19 1.138-.292 1.8z" fill="#242424"/><path d="M199.493 17.14c-.058-.072-.073-.086-.087-.1-.569-1.425-.452-1.756.932-2.461 1.486-.778 3.073-.878 4.661-.375 1.705.547 2.389 1.914 2.608 3.555.145 1.05.102 2.101.102 3.166v7.7c0 .863.058 1.726.262 2.56.102.39-.015.49-.408.476-1.209-.043-.947.187-1.238-.979-.088-.374-.117-.748-.175-1.137-.262.058-.291.274-.379.418-1.078 1.597-2.564 2.317-4.268 1.942-1.733-.374-2.651-1.583-3.001-3.238-.407-1.986-.32-3.914 1.006-5.598.83-1.05 1.995-1.468 3.262-1.683.947-.159 1.894-.13 2.841-.101.379.014.51-.115.495-.49-.043-.82 0-1.626-.073-2.446-.262-2.85-2.738-3.986-5.2-2.418-.51.346-.918.734-1.34 1.21zm6.599 8.203c0-1.022-.015-1.727 0-2.418.014-.33-.073-.475-.437-.46-.918.029-1.85-.029-2.753.144-1.253.23-2.215.849-2.637 2.086-.495 1.454-.524 2.922.058 4.361.714 1.756 2.681 2.187 4.108.935.335-.287.583-.633.845-.978.903-1.223.889-2.605.816-3.67zM158.226 14.32c-.597 2.417-1.18 4.834-1.777 7.252-.962 3.9-1.923 7.8-2.914 11.7-.276 1.08-.728 2.072-1.515 2.907-.815.85-1.85 1.137-2.986.964-.684-.1-.349-.777-.437-1.18-.102-.518.35-.259.539-.244 1.093.144 1.836-.346 2.316-1.252.612-1.137.918-2.26.568-3.627-1.383-5.353-2.651-10.736-3.962-16.104-.029-.144-.043-.287-.058-.417.044-.014.058-.029.087-.043 1.501-.144 1.486-.144 1.836 1.28.947 3.9 1.893 7.815 2.826 11.715.175.72.262 1.454.408 2.331.539-2.302 1.034-4.46 1.544-6.62.597-2.532 1.209-5.08 1.821-7.612.291-1.252.291-1.252 1.704-1.05zm30.969 8.087c.684-.95 1.238-1.712 1.791-2.49 1.093-1.525 2.244-3.007 3.278-4.576.583-.878 1.209-1.381 2.316-1.036.015.23-.204.374-.335.561-1.661 2.332-3.321 4.663-5.011 6.966-.262.374-.277.619-.014.993 1.835 2.705 3.627 5.425 5.448 8.145.131.187.262.389.437.662-.583 0-1.064-.014-1.545 0-.393.014-.466-.302-.626-.518-1.748-2.562-3.481-5.123-5.229-7.7-.132-.186-.263-.373-.539-.748v.806c0 2.49-.015 4.98.014 7.484 0 .518-.087.705-.67.69-1.02-.043-1.02 0-1.02-.978 0-5.253.03-10.506-.029-15.744-.014-.864.466-.662.947-.705.597-.072.787.115.772.734-.044 2.187-.014 4.36-.014 6.548.029.244.029.474.029.906zm-17.583.546c0-2.705.015-5.41-.014-8.13 0-.475.131-.605.611-.59 1.064.014 1.064 0 1.064 1.064 0 1.612.014 3.21-.015 4.822-.014.46.117.618.598.604.903-.043 1.791 0 2.665.245 1.705.474 2.841 1.525 3.263 3.223.525 2.058.437 4.044-1.019 5.771-.947 1.122-2.244 1.554-3.671 1.655-.962.072-1.938.014-2.914.058-.48.028-.611-.116-.597-.59.044-2.72.029-5.426.029-8.132zm1.661 3.195v3.742c0 .187-.088.417.247.49 2.113.503 4.298-.806 4.808-2.908.189-.777.189-1.583.072-2.36-.276-1.799-1.238-2.777-2.971-3.05-.525-.087-1.064-.03-1.603-.073-.451-.043-.582.116-.568.562.029 1.194.015 2.403.015 3.597zm-12.833-8.893c-.539-1.641-.466-1.814.918-2.677 2.374-1.482 5.768-.533 6.54 1.885.685 2.13.233 4.504-2.025 5.728-.087.043-.145.115-.233.187 3.263 1.67 4.094 5.224 1.879 7.944-1.806 2.201-5.812 2.23-7.691.057-.175-.201-.247-.388-.116-.647.145-.303.262-.62.422-.965.86.979 1.835 1.655 3.161 1.77 1.923.159 3.307-.863 3.627-2.734a6.084 6.084 0 00.029-1.856c-.247-1.626-1.354-2.663-3.03-2.778-.539-.029-1.063-.057-1.602-.029-.641.044-.466-.388-.481-.719-.014-.345-.058-.69.496-.619.291.029.582.015.874 0 2.607-.187 4.049-2.317 3.219-4.778-.466-1.41-1.908-2.029-3.583-1.54-.991.288-1.705.95-2.404 1.77zm23.131 5.771c0 2.676-.029 5.367.014 8.044.015.749-.407.59-.815.59s-.831.159-.831-.575c.03-5.411.03-10.823 0-16.248 0-.806.496-.561.904-.59.422-.029.757-.072.742.576-.043 2.734-.014 5.468-.014 8.203z" fill="#272727"/><path d="M18.966 1.007c4.05 0 7.386-.043 10.707.014 1.806.03 3.583.346 5.113 1.353 2.17 1.44 3.38 3.483 3.51 6.044.365 7.038.117 14.09.117 21.141 0 1.813-.35 3.655-1.53 5.21-1.456 1.9-3.364 3.065-5.768 3.195-7.254.388-14.509.143-21.763.129-3.059 0-5.652-1.195-7.312-3.914-.656-1.065-.86-2.26-1.035-3.469-.276-1.928-.13-3.87-.13-5.814-.03-5.008-.059-10.03.014-15.038C.918 7.929 1.195 6 2.433 4.36c1.471-1.914 3.423-2.993 5.841-3.21 3.802-.33 7.619-.028 10.692-.143zm5.099 10.678c-.248-.086-.51-.158-.758-.244-2.054-.734-4.18-.907-6.293-.447-4.486.98-7.604 3.627-9.002 7.973-1.384 4.318-.466 8.275 2.695 11.556 3.409 3.526 7.648 4.591 12.309 3.08 4.749-1.54 7.59-4.965 8.099-9.872.524-4.893-1.53-8.75-5.812-11.37-.015-.33-.044-.676-.044-1.007 0-.82 0-.82.83-.575 1.88.56 3.744 1.136 5.696 1.726 0-1.698-.015-3.324.015-4.95 0-.389-.277-.403-.51-.475-2.2-.676-4.4-1.324-6.599-2.015-.568-.172-.626 0-.626.504.029 2.044 0 4.073 0 6.116z" fill="#FDFDFD"/><path d="M25.302 12.362c4.283 2.62 6.322 6.476 5.813 11.369-.525 4.907-3.35 8.347-8.1 9.872-4.661 1.511-8.886.446-12.294-3.08-3.161-3.28-4.079-7.238-2.695-11.556 1.398-4.346 4.501-6.994 8.988-7.987 2.112-.46 4.239-.287 6.293.447.247.086.51.158.757.244v7.296c-1.733-1.971-3.86-2.72-6.205-2.144-3.06.748-4.939 3.756-4.298 6.908.598 2.979 3.628 5.022 6.701 4.49 2.914-.49 4.91-2.749 4.953-5.685.044-3.022.029-6.044.044-9.052-.015-.36-.088-.748.043-1.122z" fill="#FECA01"/><path d="M25.302 12.362c-.145.374-.058.763-.058 1.137-.014 3.022 0 6.044-.043 9.052-.044 2.936-2.04 5.195-4.953 5.685-3.06.518-6.09-1.511-6.701-4.49-.64-3.152 1.238-6.174 4.297-6.908 2.345-.576 4.487.173 6.206 2.144v-7.296c.014-2.044.029-4.073.029-6.116 0-.49.058-.677.626-.504 2.185.69 4.4 1.338 6.599 2.015.233.072.524.086.51.475-.015 1.626-.015 3.252-.015 4.95-1.952-.59-3.83-1.151-5.695-1.727-.83-.259-.845-.244-.83.576 0 .345.014.676.028 1.007z" fill="#FE0220"/></svg>